<?xml version="1.0" standalone="no"?>
<!DOCTYPE svg PUBLIC "-//W3C//DTD SVG 1.1//EN" "http://www.w3.org/Graphics/SVG/1.1/DTD/svg11.dtd" >
<svg>
<metadata>
Created by FontForge 20090622 at Wed Sep 11 14:38:00 2019
 By deploy user
copyright missing
</metadata>
<defs>
<font id="RB-Regular" horiz-adv-x="0" >
  <font-face 
    font-family="RB"
    font-weight="400"
    font-stretch="normal"
    units-per-em="1000"
    panose-1="0 0 5 0 0 0 0 0 0 0"
    ascent="800"
    descent="-200"
    x-height="493"
    cap-height="700"
    bbox="-186 -465 1411 1174"
    underline-thickness="50"
    underline-position="-50"
    unicode-range="U+0020-U+FEFC"
  />
<missing-glyph horiz-adv-x="500" 
d="M0 0v700h500v-700h-500zM250 395l170 255h-340zM280 350l170 -255v510zM80 50h340l-170 255zM50 605v-510l170 255z" />
    <glyph glyph-name="lam_alefMaddaar" unicode="&#xfedf;&#xfe82;" horiz-adv-x="591" arabic-form="isolated" 
d="M166 669q-40 0 -80 36q-25 -15 -75 -58h-6l-19 46q52 48 92 73h6q41 -38 90 -38q17 0 45.5 9.5t47.5 21.5h6l14 -48q-61 -42 -121 -42zM418 327q95 -118 144 -232l-42 -95h-445l-34 88l2 11q154 85 254 203l14 17q-95 102 -256 232v8l64 57q149 -123 238 -220
q37 85 37 230v124h89v-110q0 -203 -65 -313zM366 257l-9 -11q-72 -84 -190 -149h308q-40 76 -109 160z" />
    <glyph glyph-name="lam_alefMaddaar.fina" unicode="&#xfee0;&#xfe82;" horiz-adv-x="654" arabic-form="final" 
d="M664 91v-81l-10 -10h-29q-120 0 -159 112q-143 -124 -380 -154l-37 93l7 10q130 15 230 47q-52 184 -179 407l83 49q122 -220 169 -428q55 28 89 56v558h89v-497q0 -84 22.5 -117.5t86.5 -33.5h8zM190 618q-40 0 -80 36q-25 -15 -75 -58h-6l-19 46q52 48 92 73h6
q41 -38 90 -38q17 0 45.5 9.5t47.5 21.5h6l14 -48q-61 -42 -121 -42z" />
    <glyph glyph-name="lam_alefHamzaabovear" unicode="&#xfedf;&#xfe84;" horiz-adv-x="591" arabic-form="isolated" 
d="M213 730l8 -51q-46 -12 -110 -12h-97v56l50 -2q-19 25 -19 51q0 37 18 71q37 13 76 13q29 0 59 -7l-5 -50q-32 4 -62 4q-15 0 -33 -3q-2 -6 -2 -22q0 -35 20 -58q57 0 92 12zM418 327q95 -118 144 -232l-42 -95h-445l-34 88l2 11q154 85 254 203l14 17q-95 102 -256 232
v8l64 57q149 -123 238 -220q37 85 37 230v124h89v-110q0 -203 -65 -313zM366 257l-9 -11q-72 -84 -190 -149h308q-40 76 -109 160z" />
    <glyph glyph-name="lam_alefHamzaabovear.fina" unicode="&#xfee0;&#xfe84;" horiz-adv-x="654" arabic-form="final" 
d="M232 672l8 -51q-46 -12 -110 -12h-97v56l50 -2q-19 25 -19 51q0 37 18 71q37 13 76 13q29 0 59 -7l-5 -50q-32 4 -62 4q-15 0 -33 -3q-2 -6 -2 -22q0 -35 20 -58q57 0 92 12zM664 91v-81l-10 -10h-29q-120 0 -159 112q-143 -124 -380 -154l-37 93l7 10q130 15 230 47
q-52 184 -179 407l83 49q122 -220 169 -428q55 28 89 56v558h89v-497q0 -84 22.5 -117.5t86.5 -33.5h8z" />
    <glyph glyph-name="lam_alefHamzabelowar" unicode="&#xfedf;&#xfe88;" horiz-adv-x="591" arabic-form="isolated" 
d="M418 327q95 -118 144 -232l-42 -95h-445l-34 88l2 11q154 85 254 203l14 17q-95 102 -256 232v8l64 57q149 -123 238 -220q37 85 37 230v124h89v-110q0 -203 -65 -313zM366 257l-9 -11q-72 -84 -190 -149h308q-40 76 -109 160zM260 -206l8 -51q-46 -12 -110 -12h-97v56
l50 -2q-19 25 -19 51q0 37 18 71q37 13 76 13q29 0 59 -7l-5 -50q-32 4 -62 4q-15 0 -33 -3q-2 -6 -2 -22q0 -35 20 -58q57 0 92 12z" />
    <glyph glyph-name="lam_alefHamzabelowar.fina" unicode="&#xfee0;&#xfe88;" horiz-adv-x="654" arabic-form="final" 
d="M664 91v-81l-10 -10h-29q-120 0 -159 112q-143 -124 -380 -154l-37 93l7 10q130 15 230 47q-52 184 -179 407l83 49q122 -220 169 -428q55 28 89 56v558h89v-497q0 -84 22.5 -117.5t86.5 -33.5h8zM368 -210l8 -51q-46 -12 -110 -12h-97v56l50 -2q-19 25 -19 51
q0 37 18 71q37 13 76 13q29 0 59 -7l-5 -50q-32 4 -62 4q-15 0 -33 -3q-2 -6 -2 -22q0 -35 20 -58q57 0 92 12z" />
    <glyph glyph-name="lam_alefar" unicode="&#xfedf;&#xfe8e;" horiz-adv-x="591" arabic-form="isolated" 
d="M418 327q95 -118 144 -232l-42 -95h-445l-34 88l2 11q154 85 254 203l14 17q-95 102 -256 232v8l64 57q149 -123 238 -220q37 85 37 230v124h89v-110q0 -203 -65 -313zM366 257l-9 -11q-72 -84 -190 -149h308q-40 76 -109 160z" />
    <glyph glyph-name="lam_alefar.fina" unicode="&#xfee0;&#xfe8e;" horiz-adv-x="654" arabic-form="final" 
d="M664 91v-81l-10 -10h-29q-120 0 -159 112q-143 -124 -380 -154l-37 93l7 10q130 15 230 47q-52 184 -179 407l83 49q122 -220 169 -428q55 28 89 56v558h89v-497q0 -84 22.5 -117.5t86.5 -33.5h8z" />
    <glyph glyph-name="f_f" unicode="ff" horiz-adv-x="698" 
d="M614 766q64 0 122 -20v-85l-7 -4q-62 20 -107 20q-42 0 -62 -24.5t-20 -79.5v-79h147v-86h-147v-408h-97v408h-242v-408h-97v408h-81v86h81v85q0 187 163 187q60 0 114 -20v-85l-7 -4q-57 20 -98 20q-39 0 -57 -24.5t-18 -79.5v-79h242v85q0 187 171 187z" />
    <glyph glyph-name="f_f_i" unicode="ffi" horiz-adv-x="958" 
d="M443 494v85q0 187 163 187q60 0 114 -20v-85l-7 -4q-57 20 -99 20q-38 0 -56 -24.5t-18 -79.5v-79h147v-86h-147v-408h-97v408h-242v-408h-97v408h-81v86h81v85q0 187 163 187q60 0 114 -20v-85l-7 -4q-57 20 -98 20q-39 0 -57 -24.5t-18 -79.5v-79h242zM827 571l-76 76
l76 77l77 -77zM778 494h100v-494h-100v494z" />
    <glyph glyph-name="f_f_l" unicode="ffl" horiz-adv-x="946" 
d="M872 750v-750h-100v664l-51 5.5t-55 5.5t-44 2q-42 0 -62 -24.5t-20 -79.5v-79h147v-86h-147v-408h-97v408h-242v-408h-97v408h-81v86h81v85q0 187 163 187q60 0 114 -20v-85l-7 -4q-57 20 -98 20q-39 0 -57 -24.5t-18 -79.5v-79h242v85q0 187 171 187q31 0 110 -8
t126 -8h22z" />
    <glyph glyph-name="uni06440671" unicode="&#xfedf;&#xfb51;" horiz-adv-x="591" 
d="M168 675q-50 0 -89 44q-28 -16 -70 -53h-6l-20 44q38 36 87 67h7q22 -23 45 -35q42 74 80 74q24 0 40.5 -17t16.5 -42q0 -36 -29 -59t-62 -23zM193 760q-18 0 -38 -29q14 -2 21 -2q39 0 39 17q0 6 -7 10t-15 4zM418 327q95 -118 144 -232l-42 -95h-445l-34 88l2 11
q154 85 254 203l14 17q-95 102 -256 232v8l64 57q149 -123 238 -220q37 85 37 230v124h89v-110q0 -203 -65 -313zM366 257l-9 -11q-72 -84 -190 -149h308q-40 76 -109 160z" />
    <glyph glyph-name="uni06440671.fina" unicode="&#xfee0;&#xfb51;" horiz-adv-x="654" 
d="M192 618q-50 0 -89 44q-28 -16 -70 -53h-6l-20 44q38 36 87 67h7q22 -23 45 -35q42 74 80 74q24 0 40.5 -17t16.5 -42q0 -36 -29 -59t-62 -23zM664 91v-81l-10 -10h-29q-120 0 -159 112q-143 -124 -380 -154l-37 93l7 10q130 15 230 47q-52 184 -179 407l83 49
q122 -220 169 -428q55 28 89 56v558h89v-497q0 -84 22.5 -117.5t86.5 -33.5h8zM217 703q-18 0 -38 -29q14 -2 21 -2q39 0 39 17q0 6 -7 10t-15 4z" />
    <glyph glyph-name="uni066E.init" unicode="&#x66e;" horiz-adv-x="327" 
d="M250 401v-401h-250l-14 14v77l14 11h160v299h90z" />
    <glyph glyph-name="uni066E.medi" unicode="&#x66e;" horiz-adv-x="367" 
d="M377 91v-81l-10 -10h-19q-59 0 -121 60l-37 -60h-190l-14 14v77l14 11h167v266h91v-242q35 -24 94 -24h15z" />
    <glyph glyph-name="uni066E.fina" unicode="&#x66e;" horiz-adv-x="889" 
d="M899 91v-81l-10 -10h-19q-59 0 -120 59l-38 -59h-395q-263 0 -263 222q0 57 23 126l69 14l7 -6q-15 -66 -15 -112q0 -74 44 -108t158 -34h350v266h90v-242q34 -24 94 -24h15z" />
    <glyph glyph-name="dotlessqafar.fina" unicode="&#x66f;" horiz-adv-x="796" 
d="M806 90v-77l-10 -13h-84q-9 -90 -35 -168q-134 -68 -300 -68q-151 0 -237 64t-86 199q0 61 27 150l70 15l6 -5q-18 -74 -18 -131q0 -102 61 -146.5t200 -44.5q127 0 211 30q15 49 18 106q-207 7 -310 111q11 105 69 190t128 85q47 0 84.5 -26.5t60 -69.5t35.5 -90.5
t17 -98.5h83zM504 283q-28 0 -57.5 -37.5t-42.5 -89.5q70 -52 222 -54q-11 77 -42.5 129t-79.5 52z" />
    <glyph glyph-name="dotlessfehar.init" unicode="&#x6a1;" horiz-adv-x="520" 
d="M265 516q58 0 102 -46.5t65.5 -115.5t21.5 -145q0 -113 -22 -209h-432l-10 14v73l10 15h368q2 28 2 46q-188 -2 -299 95q12 110 66.5 191.5t127.5 81.5zM154 285q71 -54 214 -50q-8 74 -38 125.5t-74 51.5q-32 0 -61.5 -36.5t-40.5 -90.5z" />
    <glyph glyph-name="dotlessfehar.medi" unicode="&#x6a1;" horiz-adv-x="537" 
d="M547 93v-84l-10 -9h-50q-99 0 -193 42q-92 -42 -225 -42h-69l-10 13v75l10 14h194q-73 54 -112 130q29 98 87.5 151.5t123.5 53.5q74 0 120.5 -51t46.5 -126q0 -87 -67 -154q34 -4 104 -4h40zM277 337q-33 0 -62 -24.5t-48 -63.5q48 -83 143 -122q31 22 48 51.5t17 58.5
q0 44 -26 72t-72 28z" />
    <glyph glyph-name="dotlessfehar.fina" unicode="&#x6a1;" horiz-adv-x="997" 
d="M1014 93v-84l-10 -9h-50q-98 0 -193 42q-95 -42 -233 -42h-210q-265 0 -265 222q0 54 24 126l69 14l8 -6q-17 -66 -17 -112q0 -74 44 -108t158 -34h321q-75 54 -114 130q28 98 87 152t123 54q73 0 121 -51.5t48 -124.5q0 -88 -66 -156q34 -4 104 -4h41zM777 127
q64 45 64 112q0 41 -28 69.5t-72 28.5q-29 0 -59.5 -23.5t-49.5 -63.5q51 -85 145 -123z" />
    <glyph glyph-name="uniFB51" unicode="&#x671;" horiz-adv-x="290" arabic-form="final" 
d="M177 743q-50 0 -89 44q-28 -16 -70 -53h-6l-20 44q38 36 87 67h7q22 -23 45 -35q42 74 80 74q24 0 40.5 -17t16.5 -42q0 -36 -29 -59t-62 -23zM202 828q-18 0 -38 -29q14 -2 21 -2q39 0 39 17q0 6 -7 10t-15 4zM301 90v-79l-11 -11h-204v683h90v-581h114z" />
    <glyph glyph-name="vehar.fina" unicode="&#x6a4;" horiz-adv-x="997" arabic-form="final" 
d="M731 645l-63 76l80 67l63 -76zM654 512l-65 77l82 69l64 -77zM733 588l82 68l64 -77l-81 -68zM1014 93v-84l-10 -9h-50q-98 0 -193 42q-95 -42 -233 -42h-210q-265 0 -265 222q0 54 24 126l69 14l8 -6q-17 -66 -17 -112q0 -74 44 -108t158 -34h321q-75 54 -114 130
q28 98 87 152t123 54q73 0 121 -51.5t48 -124.5q0 -88 -66 -156q34 -4 104 -4h41zM777 127q64 45 64 112q0 41 -28 69.5t-72 28.5q-29 0 -59.5 -23.5t-49.5 -63.5q51 -85 145 -123z" />
    <glyph glyph-name="vehar.init" unicode="&#x6a4;" horiz-adv-x="520" arabic-form="initial" 
d="M253 711l-63 76l80 67l63 -76zM176 578l-65 77l82 69l64 -77zM255 654l82 68l64 -77l-81 -68zM265 516q58 0 102 -46.5t65.5 -115.5t21.5 -145q0 -113 -22 -209h-432l-10 14v73l10 15h368q2 28 2 46q-188 -2 -299 95q12 110 66.5 191.5t127.5 81.5zM154 285
q71 -54 214 -50q-8 74 -38 125.5t-74 51.5q-32 0 -61.5 -36.5t-40.5 -90.5z" />
    <glyph glyph-name="vehar.medi" unicode="&#x6a4;" horiz-adv-x="537" arabic-form="medial" 
d="M278 645l-63 76l80 67l63 -76zM201 512l-65 77l82 69l64 -77zM280 588l82 68l64 -77l-81 -68zM547 93v-84l-10 -9h-50q-99 0 -193 42q-92 -42 -225 -42h-69l-10 13v75l10 14h194q-73 54 -112 130q29 98 87.5 151.5t123.5 53.5q74 0 120.5 -51t46.5 -126q0 -87 -67 -154
q34 -4 104 -4h40zM277 337q-33 0 -62 -24.5t-48 -63.5q48 -83 143 -122q31 22 48 51.5t17 58.5q0 44 -26 72t-72 28z" />
    <glyph glyph-name="noonghunnaar.fina" unicode="&#x6ba;" horiz-adv-x="656" arabic-form="final" 
d="M666 91v-81l-10 -10h-10q-46 0 -95 36v-134q-121 -63 -234 -63q-129 0 -196 70t-67 192q0 72 27 155l72 12l5 -5q-19 -72 -19 -137q0 -92 46 -139t153 -47q64 0 124 18v397h89v-234q38 -19 96 -19h9z" />
    <glyph glyph-name="uniFC31" unicode="&#xfc31;" horiz-adv-x="1078" arabic-form="isolated" 
d="M782 604l-66 78l84 69l65 -78zM823 524q57 0 101.5 -48.5t66 -119.5t21.5 -147q0 -113 -22 -209h-250q-42 0 -94 21l-4 -7q59 -47 104 -103l-27 -91q-68 -32 -160 -52t-183 -20q-322 0 -322 249q0 82 29 152l72 12l6 -5q-22 -66 -22 -135q0 -90 62 -131t195 -41
q156 0 265 41q-95 112 -231 179l31 81l7 3q63 -31 109.5 -41t106.5 -10h243q1 7 1.5 22.5t0.5 23.5q-189 -2 -299 94q12 114 66 198t127 84zM711 285q69 -52 215 -50q-9 76 -39.5 130.5t-74.5 54.5q-32 0 -61 -38.5t-40 -96.5z" />
    <glyph glyph-name="uniFC32" unicode="&#xfc32;" horiz-adv-x="1078" arabic-form="isolated" 
d="M799 605l-66 78l83 69l65 -78zM823 524q57 0 101.5 -48.5t66 -119.5t21.5 -147q0 -113 -22 -209h-250q-42 0 -94 21l-4 -7q59 -47 104 -103l-27 -91q-68 -32 -160 -52t-183 -20q-322 0 -322 249q0 82 29 152l72 12l6 -5q-22 -66 -22 -135q0 -90 62 -131t195 -41
q156 0 265 41q-95 112 -231 179l31 81l7 3q63 -31 109.5 -41t106.5 -10h243q1 7 1.5 22.5t0.5 23.5q-189 -2 -299 94q12 114 66 198t127 84zM711 285q69 -52 215 -50q-9 76 -39.5 130.5t-74.5 54.5q-32 0 -61 -38.5t-40 -96.5zM317 -314l66 -80l-83 -69l-66 80zM466 -314
l66 -80l-82 -69l-67 80z" />
    <glyph glyph-name="uniFC35" unicode="&#xfc35;" horiz-adv-x="1078" arabic-form="isolated" 
d="M714 594l-65 77l83 69l59 -70l83 68l65 -77l-83 -69l-60 70zM823 524q57 0 101.5 -48.5t66 -119.5t21.5 -147q0 -113 -22 -209h-250q-42 0 -94 21l-4 -7q59 -47 104 -103l-27 -91q-68 -32 -160 -52t-183 -20q-322 0 -322 249q0 82 29 152l72 12l6 -5q-22 -66 -22 -135
q0 -90 62 -131t195 -41q156 0 265 41q-95 112 -231 179l31 81l7 3q63 -31 109.5 -41t106.5 -10h243q1 7 1.5 22.5t0.5 23.5q-189 -2 -299 94q12 114 66 198t127 84zM711 285q69 -52 215 -50q-9 76 -39.5 130.5t-74.5 54.5q-32 0 -61 -38.5t-40 -96.5z" />
    <glyph glyph-name="uniFC36" unicode="&#xfc36;" horiz-adv-x="1078" arabic-form="isolated" 
d="M713 593l-66 77l83 69l59 -70l83 69l65 -77l-83 -69l-59 70zM823 524q57 0 101.5 -48.5t66 -119.5t21.5 -147q0 -113 -22 -209h-250q-42 0 -94 21l-4 -7q59 -47 104 -103l-27 -91q-68 -32 -160 -52t-183 -20q-322 0 -322 249q0 82 29 152l72 12l6 -5q-22 -66 -22 -135
q0 -90 62 -131t195 -41q156 0 265 41q-95 112 -231 179l31 81l7 3q63 -31 109.5 -41t106.5 -10h243q1 7 1.5 22.5t0.5 23.5q-189 -2 -299 94q12 114 66 198t127 84zM711 285q69 -52 215 -50q-9 76 -39.5 130.5t-74.5 54.5q-32 0 -61 -38.5t-40 -96.5zM317 -314l66 -80
l-83 -69l-66 80zM466 -314l66 -80l-82 -69l-67 80z" />
    <glyph glyph-name="uniFC3D" unicode="&#xfc3d;" horiz-adv-x="1233" arabic-form="isolated" 
d="M877 388q59 0 108 -13.5t92.5 -45t69.5 -90.5t29 -141l-54 -98h-383q-41 0 -93 21l-4 -7q59 -47 104 -103l-27 -91q-68 -32 -160 -52t-183 -20q-322 0 -322 249q0 82 29 152l72 12l6 -5q-22 -66 -22 -135q0 -90 62 -131t195 -41q156 0 265 41q-95 112 -231 179l31 81l7 3
q63 -31 109.5 -41t106.5 -10h407q-11 115 -74 155.5t-180 40.5q-99 0 -206 -15l-37 85l355 375h9l42 -79l-296 -295q98 19 173 19z" />
    <glyph glyph-name="uniFC3E" unicode="&#xfc3e;" horiz-adv-x="1233" arabic-form="isolated" 
d="M877 388q59 0 108 -13.5t92.5 -45t69.5 -90.5t29 -141l-54 -98h-383q-41 0 -93 21l-4 -7q59 -47 104 -103l-27 -91q-68 -32 -160 -52t-183 -20q-322 0 -322 249q0 82 29 152l72 12l6 -5q-22 -66 -22 -135q0 -90 62 -131t195 -41q156 0 265 41q-95 112 -231 179l31 81l7 3
q63 -31 109.5 -41t106.5 -10h407q-11 115 -74 155.5t-180 40.5q-99 0 -206 -15l-37 85l355 375h9l42 -79l-296 -295q98 19 173 19zM310 -309l66 -80l-83 -69l-66 80zM459 -309l66 -80l-82 -69l-67 80z" />
    <glyph glyph-name="uniFC43" unicode="&#xfc43;" horiz-adv-x="977" arabic-form="isolated" 
d="M891 750v-750h-151q-42 0 -94 21l-4 -7q59 -47 104 -103l-27 -91q-68 -32 -160 -52t-183 -20q-322 0 -322 249q0 82 29 152l72 12l6 -5q-22 -66 -22 -135q0 -90 62 -131t195 -41q156 0 265 41q-95 112 -231 179l31 81l7 3q63 -31 109.5 -41t106.5 -10h113v648h94z" />
    <glyph glyph-name="uniFC44" unicode="&#xfc44;" horiz-adv-x="977" arabic-form="isolated" 
d="M891 750v-750h-151q-42 0 -94 21l-4 -7q59 -47 104 -103l-27 -91q-68 -32 -160 -52t-183 -20q-322 0 -322 249q0 82 29 152l72 12l6 -5q-22 -66 -22 -135q0 -90 62 -131t195 -41q156 0 265 41q-95 112 -231 179l31 81l7 3q63 -31 109.5 -41t106.5 -10h113v648h94z
M306 -316l66 -80l-83 -69l-66 80zM455 -316l66 -80l-82 -69l-67 80z" />
    <glyph glyph-name="uniFC68" unicode="&#xfc68;" horiz-adv-x="902" arabic-form="final" 
d="M725 501l8 -51q-46 -12 -110 -12h-97v56l50 -2q-19 25 -19 51q0 37 18 71q37 13 76 13q29 0 59 -7l-5 -50q-32 4 -62 4q-15 0 -33 -3q-2 -6 -2 -22q0 -35 20 -58q57 0 92 12zM912 91v-81l-10 -10h-35q-79 0 -132.5 60.5t-69.5 191.5q-59 -11 -102.5 -38.5t-43.5 -64.5
q0 -53 56.5 -100.5t163.5 -103.5l-24 -95q-161 -76 -338 -76q-159 0 -242 63t-83 186q0 75 30 154l72 10l6 -5q-22 -66 -22 -135q0 -89 64.5 -130.5t195.5 -41.5q128 0 236 36q-201 116 -201 229q0 85 82.5 146t210.5 76l9 -4q7 -101 29 -159t52 -77.5t76 -19.5h10z" />
    <glyph glyph-name="uniFC69" unicode="&#xfc69;" horiz-adv-x="902" arabic-form="final" 
d="M725 501l8 -51q-46 -12 -110 -12h-97v56l50 -2q-19 25 -19 51q0 37 18 71q37 13 76 13q29 0 59 -7l-5 -50q-32 4 -62 4q-15 0 -33 -3q-2 -6 -2 -22q0 -35 20 -58q57 0 92 12zM912 91v-81l-10 -10h-35q-79 0 -132.5 60.5t-69.5 191.5q-59 -11 -102.5 -38.5t-43.5 -64.5
q0 -53 56.5 -100.5t163.5 -103.5l-24 -95q-161 -76 -338 -76q-159 0 -242 63t-83 186q0 75 30 154l72 10l6 -5q-22 -66 -22 -135q0 -89 64.5 -130.5t195.5 -41.5q128 0 236 36q-201 116 -201 229q0 85 82.5 146t210.5 76l9 -4q7 -101 29 -159t52 -77.5t76 -19.5h10z
M317 -285l66 -80l-83 -69l-66 80zM466 -285l66 -80l-82 -69l-67 80z" />
    <glyph glyph-name="uniFC74" unicode="&#xfc74;" horiz-adv-x="905" arabic-form="final" 
d="M563 456l-65 77l83 69l59 -69l83 68l65 -77l-83 -69l-60 70zM915 91v-81l-10 -10h-35q-79 0 -132.5 60.5t-69.5 191.5q-59 -11 -102.5 -38.5t-43.5 -64.5q0 -53 56.5 -100.5t163.5 -103.5l-24 -95q-162 -76 -338 -76q-158 0 -241 63t-83 186q0 77 29 154l72 10l6 -5
q-22 -66 -22 -135q0 -89 65 -130.5t195 -41.5q128 0 236 36q-201 116 -201 229q0 85 82.5 146t211.5 76l8 -4q7 -101 29 -159t52.5 -77.5t76.5 -19.5h9z" />
    <glyph glyph-name="uniFC75" unicode="&#xfc75;" horiz-adv-x="902" arabic-form="final" 
d="M558 456l-66 77l83 69l59 -70l83 69l65 -77l-83 -69l-59 70zM912 91v-81l-10 -10h-35q-79 0 -132.5 60.5t-69.5 191.5q-59 -11 -102.5 -38.5t-43.5 -64.5q0 -53 56.5 -100.5t163.5 -103.5l-24 -95q-161 -76 -338 -76q-159 0 -242 63t-83 186q0 75 30 154l72 10l6 -5
q-22 -66 -22 -135q0 -89 64.5 -130.5t195.5 -41.5q128 0 236 36q-201 116 -201 229q0 85 82.5 146t210.5 76l9 -4q7 -101 29 -159t52 -77.5t76 -19.5h10zM325 -285l66 -80l-83 -69l-66 80zM474 -285l66 -80l-82 -69l-67 80z" />
    <glyph glyph-name="uniFC7A" unicode="&#xfc7a;" horiz-adv-x="903" arabic-form="final" 
d="M607 577l-64 76l81 67l63 -76zM530 444l-65 77l82 69l64 -77zM608 521l83 67l64 -77l-82 -67zM913 91v-81l-10 -10h-35q-79 0 -132.5 60.5t-69.5 191.5q-59 -11 -102.5 -38.5t-43.5 -64.5q0 -53 56.5 -100.5t163.5 -103.5l-24 -95q-161 -76 -338 -76q-158 0 -241 63
t-83 186q0 77 29 154l72 10l6 -5q-22 -66 -22 -135q0 -89 65 -130.5t195 -41.5q128 0 236 36q-201 116 -201 229q0 85 82.5 146t211.5 76l8 -4q7 -101 29 -159t52.5 -77.5t76.5 -19.5h9z" />
    <glyph glyph-name="uniFC7B" unicode="&#xfc7b;" horiz-adv-x="902" arabic-form="final" 
d="M605 577l-63 76l80 67l63 -76zM528 444l-65 77l82 69l64 -77zM607 520l82 68l64 -77l-81 -68zM912 91v-81l-10 -10h-35q-79 0 -132.5 60.5t-69.5 191.5q-59 -11 -102.5 -38.5t-43.5 -64.5q0 -53 56.5 -100.5t163.5 -103.5l-24 -95q-161 -76 -338 -76q-159 0 -242 63
t-83 186q0 75 30 154l72 10l6 -5q-22 -66 -22 -135q0 -89 64.5 -130.5t195.5 -41.5q128 0 236 36q-201 116 -201 229q0 85 82.5 146t210.5 76l9 -4q7 -101 29 -159t52 -77.5t76 -19.5h10zM320 -285l66 -80l-83 -69l-66 80zM469 -285l66 -80l-82 -69l-67 80z" />
    <glyph glyph-name="uniFC83" unicode="&#xfc83;" horiz-adv-x="1281" arabic-form="final" 
d="M1291 91v-81l-10 -10h-19q-58 0 -112 50l-28 -50h-383q-41 0 -93 21l-4 -7q59 -47 104 -103l-27 -91q-68 -32 -160 -52t-183 -20q-322 0 -322 249q0 82 29 152l72 12l6 -5q-22 -66 -22 -135q0 -90 62 -131t195 -41q156 0 265 41q-95 112 -231 179l31 81l7 3
q63 -31 109.5 -41t106.5 -10h407q-11 115 -74 155.5t-180 40.5q-99 0 -206 -15l-37 85l355 375h9l42 -79l-296 -295q98 19 173 19q56 0 103.5 -12.5t90.5 -41t70.5 -82t33.5 -128.5q33 -22 91 -22h15z" />
    <glyph glyph-name="uniFC84" unicode="&#xfc84;" horiz-adv-x="1281" arabic-form="final" 
d="M1291 91v-81l-10 -10h-19q-58 0 -112 50l-28 -50h-383q-41 0 -93 21l-4 -7q59 -47 104 -103l-27 -91q-68 -32 -160 -52t-183 -20q-322 0 -322 249q0 82 29 152l72 12l6 -5q-22 -66 -22 -135q0 -90 62 -131t195 -41q156 0 265 41q-95 112 -231 179l31 81l7 3
q63 -31 109.5 -41t106.5 -10h407q-11 115 -74 155.5t-180 40.5q-99 0 -206 -15l-37 85l355 375h9l42 -79l-296 -295q98 19 173 19q56 0 103.5 -12.5t90.5 -41t70.5 -82t33.5 -128.5q33 -22 91 -22h15zM305 -315l66 -80l-82 -69l-67 80zM454 -315l66 -80l-82 -69l-67 80z" />
    <glyph glyph-name="uniFC86" unicode="&#xfc86;" horiz-adv-x="1000" arabic-form="final" 
d="M1010 91v-81l-10 -10h-13q-67 0 -124 57l-34 -57h-89q-42 0 -94 21l-4 -7q59 -47 104 -103l-27 -91q-68 -32 -160 -52t-183 -20q-322 0 -322 249q0 82 29 152l72 12l6 -5q-22 -66 -22 -135q0 -90 62 -131t195 -41q156 0 265 41q-95 112 -231 179l31 81l7 3
q63 -31 109.5 -41t106.5 -10h121v648h91v-623q33 -25 95 -25h9z" />
    <glyph glyph-name="uniFC87" unicode="&#xfc87;" horiz-adv-x="1000" arabic-form="final" 
d="M1010 91v-81l-10 -10h-13q-67 0 -124 57l-34 -57h-89q-42 0 -94 21l-4 -7q59 -47 104 -103l-27 -91q-68 -32 -160 -52t-183 -20q-322 0 -322 249q0 82 29 152l72 12l6 -5q-22 -66 -22 -135q0 -90 62 -131t195 -41q156 0 265 41q-95 112 -231 179l31 81l7 3
q63 -31 109.5 -41t106.5 -10h121v648h91v-623q33 -25 95 -25h9zM306 -316l66 -80l-83 -69l-66 80zM455 -316l66 -80l-82 -69l-67 80z" />
    <glyph glyph-name="uniFC8E" unicode="&#xfc8e;" horiz-adv-x="905" arabic-form="final" 
d="M586 455l-65 78l83 69l65 -78zM915 91v-81l-10 -10h-35q-79 0 -132.5 60.5t-69.5 191.5q-59 -11 -102.5 -38.5t-43.5 -64.5q0 -53 56.5 -100.5t163.5 -103.5l-24 -95q-162 -76 -338 -76q-158 0 -241 63t-83 186q0 77 29 154l72 10l6 -5q-22 -66 -22 -135q0 -89 65 -130.5
t195 -41.5q128 0 236 36q-201 116 -201 229q0 85 82.5 146t211.5 76l8 -4q7 -101 29 -159t52.5 -77.5t76.5 -19.5h9z" />
    <glyph glyph-name="uniFC8F" unicode="&#xfc8f;" horiz-adv-x="905" arabic-form="final" 
d="M586 455l-65 78l83 69l65 -78zM915 91v-81l-10 -10h-35q-79 0 -132.5 60.5t-69.5 191.5q-59 -11 -102.5 -38.5t-43.5 -64.5q0 -53 56.5 -100.5t163.5 -103.5l-24 -95q-162 -76 -338 -76q-158 0 -241 63t-83 186q0 77 29 154l72 10l6 -5q-22 -66 -22 -135q0 -89 65 -130.5
t195 -41.5q128 0 236 36q-201 116 -201 229q0 85 82.5 146t211.5 76l8 -4q7 -101 29 -159t52.5 -77.5t76.5 -19.5h9zM321 -285l66 -80l-82 -69l-67 80zM470 -285l66 -80l-82 -69l-67 80z" />
    <glyph glyph-name="lam_meemar.init" unicode="&#xfccc;" horiz-adv-x="323" arabic-form="initial" 
d="M209 750v-556q0 -46 10 -74.5t23.5 -39t35 -29.5t35.5 -43l-58 -77q-57 39 -104 54t-114 15h-37l-10 11v79l10 12h36q72 0 110 -26l4 5q-30 35 -30 111v558h89z" />
    <glyph glyph-name="uniFCFB" unicode="&#xfcfb;" horiz-adv-x="1356" arabic-form="isolated" 
d="M1294 100l-63 -100q-135 0 -230 58l-40 -55q-26 -10 -65 -10q-177 0 -228 260q-61 -11 -104.5 -38.5t-43.5 -65.5q0 -55 56 -101.5t165 -103.5l-25 -95q-161 -76 -337 -76q-159 0 -242 63.5t-83 186.5q0 75 30 154l72 10l5 -5q-22 -66 -22 -135q0 -89 65 -130.5
t195 -41.5q126 0 237 37q-202 119 -202 236q1 85 83 143.5t206 73.5l8 -5q21 -157 59.5 -211t125.5 -54q10 0 16 1l31 247l83 10l9 -6l-29 -220q67 -23 176 -25q-13 109 -47 290l89 20q37 -190 50 -312z" />
    <glyph glyph-name="uniFCFC" unicode="&#xfcfc;" horiz-adv-x="1356" arabic-form="isolated" 
d="M1294 100l-63 -100q-135 0 -230 58l-40 -55q-26 -10 -65 -10q-177 0 -228 260q-61 -11 -104.5 -38.5t-43.5 -65.5q0 -55 56 -101.5t165 -103.5l-25 -95q-161 -76 -337 -76q-159 0 -242 63.5t-83 186.5q0 75 30 154l72 10l5 -5q-22 -66 -22 -135q0 -89 65 -130.5
t195 -41.5q126 0 237 37q-202 119 -202 236q1 85 83 143.5t206 73.5l8 -5q21 -157 59.5 -211t125.5 -54q10 0 16 1l31 247l83 10l9 -6l-29 -220q67 -23 176 -25q-13 109 -47 290l89 20q37 -190 50 -312zM319 -285l66 -80l-82 -69l-67 80zM468 -285l66 -80l-82 -69l-67 80z
" />
    <glyph glyph-name="uniFCFD" unicode="&#xfcfd;" horiz-adv-x="1356" arabic-form="isolated" 
d="M995 597l-64 76l81 67l63 -76zM918 464l-65 77l82 69l64 -77zM997 540l82 68l64 -77l-81 -68zM1294 100l-63 -100q-135 0 -230 58l-40 -55q-26 -10 -65 -10q-177 0 -228 260q-61 -11 -104.5 -38.5t-43.5 -65.5q0 -55 56 -101.5t165 -103.5l-25 -95q-161 -76 -337 -76
q-159 0 -242 63.5t-83 186.5q0 75 30 154l72 10l5 -5q-22 -66 -22 -135q0 -89 65 -130.5t195 -41.5q126 0 237 37q-202 119 -202 236q1 85 83 143.5t206 73.5l8 -5q21 -157 59.5 -211t125.5 -54q10 0 16 1l31 247l83 10l9 -6l-29 -220q67 -23 176 -25q-13 109 -47 290l89 20
q37 -190 50 -312z" />
    <glyph glyph-name="uniFCFE" unicode="&#xfcfe;" horiz-adv-x="1356" arabic-form="isolated" 
d="M1000 601l-63 76l81 67l63 -76zM923 468l-64 77l81 69l64 -77zM1002 545l82 67l64 -77l-81 -67zM1294 100l-63 -100q-135 0 -230 58l-40 -55q-26 -10 -65 -10q-177 0 -228 260q-61 -11 -104.5 -38.5t-43.5 -65.5q0 -55 56 -101.5t165 -103.5l-25 -95q-161 -76 -337 -76
q-159 0 -242 63.5t-83 186.5q0 75 30 154l72 10l5 -5q-22 -66 -22 -135q0 -89 65 -130.5t195 -41.5q126 0 237 37q-202 119 -202 236q1 85 83 143.5t206 73.5l8 -5q21 -157 59.5 -211t125.5 -54q10 0 16 1l31 247l83 10l9 -6l-29 -220q67 -23 176 -25q-13 109 -47 290l89 20
q37 -190 50 -312zM319 -285l66 -80l-82 -69l-67 80zM468 -285l66 -80l-82 -69l-67 80z" />
    <glyph glyph-name="uniFD05" unicode="&#xfd05;" horiz-adv-x="1316" arabic-form="isolated" 
d="M1054 419q61 0 108 -48t69.5 -120t22.5 -153l-70 -98h-275q-110 0 -166 58t-75 194q-59 -10 -102.5 -37.5t-43.5 -65.5q0 -54 56.5 -101t163.5 -104l-24 -95q-162 -76 -338 -76q-159 0 -241.5 63.5t-82.5 186.5q0 77 29 154l72 10l6 -5q-22 -66 -22 -135q0 -89 65 -130.5
t195 -41.5q126 0 237 37q-202 117 -202 235q0 84 83.5 141.5t210.5 73.5l8 -4q5 -64 10 -101q87 72 170 117t136 45zM766 184q18 -47 53.5 -64.5t104.5 -17.5h243q-8 93 -42.5 153.5t-90.5 60.5q-90 0 -268 -132z" />
    <glyph glyph-name="uniFD06" unicode="&#xfd06;" horiz-adv-x="1316" arabic-form="isolated" 
d="M1054 419q61 0 108 -48t69.5 -120t22.5 -153l-70 -98h-275q-110 0 -166 58t-75 194q-59 -10 -102.5 -37.5t-43.5 -65.5q0 -54 56.5 -101t163.5 -104l-24 -95q-162 -76 -338 -76q-159 0 -241.5 63.5t-82.5 186.5q0 77 29 154l72 10l6 -5q-22 -66 -22 -135q0 -89 65 -130.5
t195 -41.5q126 0 237 37q-202 117 -202 235q0 84 83.5 141.5t210.5 73.5l8 -4q5 -64 10 -101q87 72 170 117t136 45zM766 184q18 -47 53.5 -64.5t104.5 -17.5h243q-8 93 -42.5 153.5t-90.5 60.5q-90 0 -268 -132zM319 -285l66 -80l-82 -69l-67 80zM468 -285l66 -80l-82 -69
l-67 80z" />
    <glyph glyph-name="uniFD07" unicode="&#xfd07;" horiz-adv-x="1316" arabic-form="isolated" 
d="M943 517l-66 78l84 69l65 -78zM1054 419q61 0 108 -48t69.5 -120t22.5 -153l-70 -98h-275q-110 0 -166 58t-75 194q-59 -10 -102.5 -37.5t-43.5 -65.5q0 -54 56.5 -101t163.5 -104l-24 -95q-162 -76 -338 -76q-159 0 -241.5 63.5t-82.5 186.5q0 77 29 154l72 10l6 -5
q-22 -66 -22 -135q0 -89 65 -130.5t195 -41.5q126 0 237 37q-202 117 -202 235q0 84 83.5 141.5t210.5 73.5l8 -4q5 -64 10 -101q87 72 170 117t136 45zM766 184q18 -47 53.5 -64.5t104.5 -17.5h243q-8 93 -42.5 153.5t-90.5 60.5q-90 0 -268 -132z" />
    <glyph glyph-name="uniFD08" unicode="&#xfd08;" horiz-adv-x="1316" arabic-form="isolated" 
d="M943 517l-66 78l84 69l65 -78zM1054 419q61 0 108 -48t69.5 -120t22.5 -153l-70 -98h-275q-110 0 -166 58t-75 194q-59 -10 -102.5 -37.5t-43.5 -65.5q0 -54 56.5 -101t163.5 -104l-24 -95q-162 -76 -338 -76q-159 0 -241.5 63.5t-82.5 186.5q0 77 29 154l72 10l6 -5
q-22 -66 -22 -135q0 -89 65 -130.5t195 -41.5q126 0 237 37q-202 117 -202 235q0 84 83.5 141.5t210.5 73.5l8 -4q5 -64 10 -101q87 72 170 117t136 45zM766 184q18 -47 53.5 -64.5t104.5 -17.5h243q-8 93 -42.5 153.5t-90.5 60.5q-90 0 -268 -132zM319 -285l66 -80l-82 -69
l-67 80zM468 -285l66 -80l-82 -69l-67 80z" />
    <glyph glyph-name="uniFD17" unicode="&#xfd17;" horiz-adv-x="1392" arabic-form="final" 
d="M1402 91v-81l-10 -10h-13q-60 0 -115 53l-33 -53q-135 0 -230 58l-40 -55q-26 -10 -65 -10q-177 0 -228 260q-61 -11 -104.5 -38.5t-43.5 -65.5q0 -55 56 -101.5t165 -103.5l-25 -95q-161 -76 -337 -76q-159 0 -242 63.5t-83 186.5q0 75 30 154l72 10l5 -5
q-22 -66 -22 -135q0 -89 65 -130.5t195 -41.5q126 0 237 37q-202 119 -202 236q1 85 83 143.5t206 73.5l8 -5q21 -157 59.5 -211t125.5 -54q10 0 16 1l31 247l83 10l9 -6l-29 -220q67 -23 176 -25q-13 109 -47 290l89 20q36 -189 47 -288q33 -22 92 -22h9z" />
    <glyph glyph-name="uniFD18" unicode="&#xfd18;" horiz-adv-x="1398" arabic-form="final" 
d="M1408 91v-81l-10 -10h-19q-60 0 -115 53l-33 -53q-135 0 -230 58l-40 -55q-26 -10 -65 -10q-177 0 -228 260q-61 -11 -104.5 -38.5t-43.5 -65.5q0 -55 56 -101.5t165 -103.5l-25 -95q-161 -76 -337 -76q-159 0 -242 63.5t-83 186.5q0 75 30 154l72 10l5 -5
q-22 -66 -22 -135q0 -89 65 -130.5t195 -41.5q126 0 237 37q-202 119 -202 236q1 85 83 143.5t206 73.5l8 -5q21 -157 59.5 -211t125.5 -54q10 0 16 1l31 247l83 10l9 -6l-29 -220q67 -23 176 -25q-13 109 -47 290l89 20q36 -189 47 -287q34 -23 92 -23h15zM319 -285l66 -80
l-82 -69l-67 80zM468 -285l66 -80l-82 -69l-67 80z" />
    <glyph glyph-name="uniFD19" unicode="&#xfd19;" horiz-adv-x="1398" arabic-form="final" 
d="M997 601l-64 76l81 67l63 -76zM920 468l-65 77l82 69l64 -77zM998 545l83 67l64 -77l-82 -67zM1408 91v-81l-10 -10h-19q-60 0 -115 53l-33 -53q-135 0 -230 58l-40 -55q-26 -10 -65 -10q-177 0 -228 260q-61 -11 -104.5 -38.5t-43.5 -65.5q0 -55 56 -101.5t165 -103.5
l-25 -95q-161 -76 -337 -76q-159 0 -242 63.5t-83 186.5q0 75 30 154l72 10l5 -5q-22 -66 -22 -135q0 -89 65 -130.5t195 -41.5q126 0 237 37q-202 119 -202 236q1 85 83 143.5t206 73.5l8 -5q21 -157 59.5 -211t125.5 -54q10 0 16 1l31 247l83 10l9 -6l-29 -220
q67 -23 176 -25q-13 109 -47 290l89 20q36 -189 47 -287q34 -23 92 -23h15z" />
    <glyph glyph-name="uniFD1A" unicode="&#xfd1a;" horiz-adv-x="1398" arabic-form="final" 
d="M997 601l-64 76l81 67l63 -76zM920 468l-65 77l82 69l64 -77zM998 545l83 67l64 -77l-82 -67zM1408 91v-81l-10 -10h-19q-60 0 -115 53l-33 -53q-135 0 -230 58l-40 -55q-26 -10 -65 -10q-177 0 -228 260q-61 -11 -104.5 -38.5t-43.5 -65.5q0 -55 56 -101.5t165 -103.5
l-25 -95q-161 -76 -337 -76q-159 0 -242 63.5t-83 186.5q0 75 30 154l72 10l5 -5q-22 -66 -22 -135q0 -89 65 -130.5t195 -41.5q126 0 237 37q-202 119 -202 236q1 85 83 143.5t206 73.5l8 -5q21 -157 59.5 -211t125.5 -54q10 0 16 1l31 247l83 10l9 -6l-29 -220
q67 -23 176 -25q-13 109 -47 290l89 20q36 -189 47 -287q34 -23 92 -23h15zM319 -285l66 -80l-82 -69l-67 80zM468 -285l66 -80l-82 -69l-67 80z" />
    <glyph glyph-name="uniFD21" unicode="&#xfd21;" horiz-adv-x="1360" arabic-form="final" 
d="M1370 91v-81l-10 -10h-19q-61 0 -117 56l-40 -56h-275q-110 0 -166 58t-75 194q-59 -10 -102.5 -37.5t-43.5 -65.5q0 -54 56.5 -101t163.5 -104l-24 -95q-162 -76 -338 -76q-159 0 -241.5 63.5t-82.5 186.5q0 77 29 154l72 10l6 -5q-22 -66 -22 -135q0 -89 65 -130.5
t195 -41.5q126 0 237 37q-202 117 -202 235q0 84 83.5 141.5t210.5 73.5l8 -4q5 -64 10 -101q87 72 170 117t136 45q86 0 139.5 -87.5t59.5 -206.5q34 -23 92 -23h15zM766 184q18 -47 53.5 -64.5t104.5 -17.5h243q-8 93 -42.5 153.5t-90.5 60.5q-90 0 -268 -132z" />
    <glyph glyph-name="uniFD22" unicode="&#xfd22;" horiz-adv-x="1360" arabic-form="final" 
d="M1370 91v-81l-10 -10h-19q-60 0 -117 55l-40 -55h-275q-110 0 -166 58t-75 194q-59 -10 -102.5 -37.5t-43.5 -65.5q0 -54 56.5 -101t163.5 -104l-24 -95q-162 -76 -338 -76q-159 0 -241.5 63.5t-82.5 186.5q0 77 29 154l72 10l6 -5q-22 -66 -22 -135q0 -89 65 -130.5
t195 -41.5q126 0 237 37q-202 117 -202 235q0 84 83.5 141.5t210.5 73.5l8 -4q5 -64 10 -101q87 72 170 117t136 45q86 0 139.5 -87.5t59.5 -207.5q35 -22 92 -22h15zM766 184q18 -47 53.5 -64.5t104.5 -17.5h243q-8 93 -42.5 153.5t-90.5 60.5q-90 0 -268 -132zM319 -285
l66 -80l-82 -69l-67 80zM468 -285l66 -80l-82 -69l-67 80z" />
    <glyph glyph-name="uniFD23" unicode="&#xfd23;" horiz-adv-x="1360" arabic-form="final" 
d="M943 517l-66 78l84 69l65 -78zM1370 91v-81l-10 -10h-19q-61 0 -117 56l-40 -56h-275q-110 0 -166 58t-75 194q-59 -10 -102.5 -37.5t-43.5 -65.5q0 -54 56.5 -101t163.5 -104l-24 -95q-162 -76 -338 -76q-159 0 -241.5 63.5t-82.5 186.5q0 77 29 154l72 10l6 -5
q-22 -66 -22 -135q0 -89 65 -130.5t195 -41.5q126 0 237 37q-202 117 -202 235q0 84 83.5 141.5t210.5 73.5l8 -4q5 -64 10 -101q87 72 170 117t136 45q86 0 139.5 -87.5t59.5 -206.5q34 -23 92 -23h15zM766 184q18 -47 53.5 -64.5t104.5 -17.5h243q-8 93 -42.5 153.5
t-90.5 60.5q-90 0 -268 -132z" />
    <glyph glyph-name="uniFD24" unicode="&#xfd24;" horiz-adv-x="1360" arabic-form="final" 
d="M943 517l-66 78l84 69l65 -78zM1370 91v-81l-10 -10h-19q-61 0 -117 56l-40 -56h-275q-110 0 -166 58t-75 194q-59 -10 -102.5 -37.5t-43.5 -65.5q0 -54 56.5 -101t163.5 -104l-24 -95q-162 -76 -338 -76q-159 0 -241.5 63.5t-82.5 186.5q0 77 29 154l72 10l6 -5
q-22 -66 -22 -135q0 -89 65 -130.5t195 -41.5q126 0 237 37q-202 117 -202 235q0 84 83.5 141.5t210.5 73.5l8 -4q5 -64 10 -101q87 72 170 117t136 45q86 0 139.5 -87.5t59.5 -206.5q34 -23 92 -23h15zM766 184q18 -47 53.5 -64.5t104.5 -17.5h243q-8 93 -42.5 153.5
t-90.5 60.5q-90 0 -268 -132zM319 -285l66 -80l-82 -69l-67 80zM468 -285l66 -80l-82 -69l-67 80z" />
    <glyph glyph-name="allahar" unicode="&#xfdf2;" horiz-adv-x="1399" arabic-form="isolated" 
d="M638 853l-11 123l41 18l5 -1v-134zM591 681q-22 0 -36.5 14t-13.5 43q0 26 17 66l34 9l4 -4q-13 -29 -13 -52t21 -23q14 0 25.5 17t12.5 51l32 13l5 -4q1 -34 -5 -55q15 -9 32 -9q8 0 15 6t7 17q0 29 -11 57l36 15q15 -38 15 -65q0 -38 -20.5 -60.5t-49.5 -22.5
q-27 0 -48 19q-24 -32 -59 -32zM960 750h93v-750h-213q-67 0 -124 57l-34 -57h-344v71q-83 -51 -149 -51q-72 0 -113 40t-41 106q0 65 34 135l269 75v79h89v-353h231l1 484h90v-459q34 -25 95 -25h116v648zM1313 750v-750h-91v750h91zM204 119q66 0 134 34v140l-212 -58
q-6 -22 -6 -47q0 -69 84 -69z" />
    <glyph glyph-name="alefMaddaar.fina" unicode="&#x622;" horiz-adv-x="290" arabic-form="final" 
d="M150 755q-40 0 -80 36q-25 -15 -75 -58h-6l-19 46q52 48 92 73h6q41 -38 90 -38q17 0 45.5 9.5t47.5 21.5h6l14 -48q-61 -42 -121 -42zM301 90v-79l-11 -11h-204v683h90v-581h114z" />
    <glyph glyph-name="alefHamzaabovear.fina" unicode="&#x623;" horiz-adv-x="290" arabic-form="final" 
d="M228 813l8 -51q-46 -12 -110 -12h-97v56l50 -2q-19 25 -19 51q0 37 18 71q37 13 76 13q29 0 59 -7l-5 -50q-32 4 -62 4q-15 0 -33 -3q-2 -6 -2 -22q0 -35 20 -58q57 0 92 12zM301 90v-79l-11 -11h-204v683h90v-581h114z" />
    <glyph glyph-name="wawHamzaabovear.fina" unicode="&#x624;" horiz-adv-x="545" arabic-form="final" 
d="M351 576l8 -51q-46 -12 -110 -12h-97v56l50 -2q-19 25 -19 51q0 37 18 71q37 13 76 13q29 0 59 -7l-5 -50q-32 4 -62 4q-15 0 -33 -3q-2 -6 -2 -22q0 -35 20 -58q57 0 92 12zM555 91v-75l-10 -16h-82q-29 -216 -236 -216q-65 0 -130 30l-10 86l7 6q69 -24 146 -24
q62 0 95.5 26t43.5 93q-220 18 -319 152q26 118 85 194t126 76q47 0 84.5 -28.5t61 -76t36.5 -103t15 -114.5l77 1zM258 319q-29 0 -60 -37t-49 -96q74 -72 233 -84q-6 91 -37 154t-87 63z" />
    <glyph glyph-name="alefHamzabelowar.fina" unicode="&#x625;" horiz-adv-x="282" arabic-form="final" 
d="M292 90v-79l-10 -11h-196v750h90v-648h106zM245 -190l8 -51q-46 -12 -110 -12h-97v56l50 -2q-19 25 -19 51q0 37 18 71q37 13 76 13q29 0 59 -7l-5 -50q-32 4 -62 4q-15 0 -33 -3q-2 -6 -2 -22q0 -35 20 -58q57 0 92 12z" />
    <glyph glyph-name="yehHamzaabovear.fina" unicode="&#x626;" horiz-adv-x="787" arabic-form="final" 
d="M226 298l8 -51q-46 -12 -110 -12h-97v56l50 -2q-19 25 -19 51q0 37 18 71q37 13 76 13q29 0 59 -7l-5 -50q-32 4 -62 4q-15 0 -33 -3q-2 -6 -2 -22q0 -35 20 -58q57 0 92 12zM797 91v-82l-10 -9h-47q-42 0 -94 21l-4 -7q59 -47 104 -103l-27 -91q-68 -32 -160 -52
t-183 -20q-322 0 -322 249q0 82 29 152l72 12l6 -5q-22 -66 -22 -135q0 -90 62 -131t195 -41q156 0 265 41q-95 112 -231 179l31 81l7 3q63 -31 109.5 -41t106.5 -10h103z" />
    <glyph glyph-name="yehHamzaabovear.init" unicode="&#x626;" horiz-adv-x="327" arabic-form="initial" 
d="M285 552l8 -51q-46 -12 -110 -12h-97v56l50 -2q-19 25 -19 51q0 37 18 71q37 13 76 13q29 0 59 -7l-5 -50q-32 4 -62 4q-15 0 -33 -3q-2 -6 -2 -22q0 -35 20 -58q57 0 92 12zM160 401h90v-401h-250l-14 14v77l14 11h160v299z" />
    <glyph glyph-name="yehHamzaabovear.medi" unicode="&#x626;" horiz-adv-x="367" arabic-form="medial" 
d="M285 533l8 -51q-46 -12 -110 -12h-97v56l50 -2q-19 25 -19 51q0 37 18 71q37 13 76 13q29 0 59 -7l-5 -50q-32 4 -62 4q-15 0 -33 -3q-2 -6 -2 -22q0 -35 20 -58q57 0 92 12zM377 91v-81l-10 -10h-19q-59 0 -121 60l-37 -60h-190l-14 14v77l14 11h167v266h91v-242
q35 -24 94 -24h15z" />
    <glyph glyph-name="uniFE8E" unicode="&#x627;" horiz-adv-x="282" arabic-form="final" 
d="M292 90v-79l-10 -11h-196v750h90v-648h106z" />
    <glyph glyph-name="behar.fina" unicode="&#x628;" horiz-adv-x="889" arabic-form="final" 
d="M899 91v-81l-10 -10h-19q-59 0 -120 59l-38 -59h-395q-263 0 -263 222q0 57 23 126l69 14l7 -6q-15 -66 -15 -112q0 -74 44 -108t158 -34h350v266h90v-242q34 -24 94 -24h15zM444 -77l67 -80l-83 -69l-67 80z" />
    <glyph glyph-name="behar.init" unicode="&#x628;" horiz-adv-x="327" arabic-form="initial" 
d="M250 401v-401h-250l-14 14v77l14 11h160v299h90zM175 -77l67 -80l-83 -69l-67 80z" />
    <glyph glyph-name="behar.medi" unicode="&#x628;" horiz-adv-x="367" arabic-form="medial" 
d="M377 91v-81l-10 -10h-19q-59 0 -121 60l-37 -60h-190l-14 14v77l14 11h167v266h91v-242q35 -24 94 -24h15zM200 -77l67 -80l-83 -69l-67 80z" />
    <glyph glyph-name="tehMarbutaar.fina" unicode="&#x629;" horiz-adv-x="522" arabic-form="final" 
d="M141 501l-66 77l83 69l59 -70l83 69l65 -77l-83 -69l-59 70zM532 89v-76l-10 -13h-184v71q-83 -51 -149 -51q-72 0 -113 40t-41 106q0 65 34 135l269 75v79h89v-353h95zM204 119q66 0 134 34v140l-212 -58q-6 -22 -6 -47q0 -69 84 -69z" />
    <glyph glyph-name="tehar.fina" unicode="&#x62a;" horiz-adv-x="889" arabic-form="final" 
d="M356 423l-66 77l83 69l59 -70l83 69l65 -77l-83 -69l-59 70zM899 91v-81l-10 -10h-19q-59 0 -120 59l-38 -59h-395q-263 0 -263 222q0 57 23 126l69 14l7 -6q-15 -66 -15 -112q0 -74 44 -108t158 -34h350v266h90v-242q34 -24 94 -24h15z" />
    <glyph glyph-name="tehar.init" unicode="&#x62a;" horiz-adv-x="327" arabic-form="initial" 
d="M108 483l-66 77l83 69l59 -70l83 69l65 -77l-83 -69l-59 70zM160 401h90v-401h-250l-14 14v77l14 11h160v299z" />
    <glyph glyph-name="tehar.medi" unicode="&#x62a;" horiz-adv-x="367" arabic-form="medial" 
d="M121 460l-66 77l83 69l59 -70l83 69l65 -77l-83 -69l-59 70zM377 91v-81l-10 -10h-19q-59 0 -121 60l-37 -60h-190l-14 14v77l14 11h167v266h91v-242q35 -24 94 -24h15z" />
    <glyph glyph-name="thehar.fina" unicode="&#x62b;" horiz-adv-x="889" arabic-form="final" 
d="M431 546l-63 76l80 67l63 -76zM354 413l-65 77l82 69l64 -77zM433 489l82 68l64 -77l-81 -68zM899 91v-81l-10 -10h-19q-59 0 -120 59l-38 -59h-395q-263 0 -263 222q0 57 23 126l69 14l7 -6q-15 -66 -15 -112q0 -74 44 -108t158 -34h350v266h90v-242q34 -24 94 -24h15z
" />
    <glyph glyph-name="thehar.init" unicode="&#x62b;" horiz-adv-x="327" arabic-form="initial" 
d="M183 607l-63 76l80 67l63 -76zM106 474l-65 77l82 69l64 -77zM331 541l-81 -68l-65 77l82 68zM160 401h90v-401h-250l-14 14v77l14 11h160v299z" />
    <glyph glyph-name="thehar.medi" unicode="&#x62b;" horiz-adv-x="367" arabic-form="medial" 
d="M204 607l-63 76l80 67l63 -76zM127 474l-65 77l82 69l64 -77zM206 550l82 68l64 -77l-81 -68zM377 91v-81l-10 -10h-19q-59 0 -121 60l-37 -60h-190l-14 14v77l14 11h167v266h91v-242q35 -24 94 -24h15z" />
    <glyph glyph-name="jeemar.fina" unicode="&#x62c;" horiz-adv-x="647" arabic-form="final" 
d="M657 92v-84l-10 -8h-89q-59 0 -107 28t-86 101q-135 -32 -217 -79q-16 -44 -16 -86q0 -68 42.5 -98.5t126.5 -30.5q91 0 206 39l7 -3v-84q-114 -52 -235 -52q-107 0 -169.5 55.5t-62.5 152.5q0 89 40 172q143 87 379 124q-157 120 -249 120q-52 0 -108 -19l-8 5v88
q66 29 129 29q60 0 141.5 -52.5t196.5 -154.5l-24 -94q-55 -7 -102 -16q36 -43 118 -43h87zM227 -24l80 66l62 -75l-79 -65z" />
    <glyph glyph-name="jeemar.init" unicode="&#x62c;" horiz-adv-x="582" arabic-form="initial" 
d="M192 417q64 0 139 -47t206 -154l-23 -83q-29 -12 -91 -40t-90.5 -39t-76 -26.5t-89.5 -21.5t-89 -6h-78l-14 14v74l14 14h85q42 0 76 3.5t74 16l57 18t71 28.5l69 29q-98 68 -147.5 92.5t-104.5 24.5q-51 0 -105 -19l-9 5v88q72 29 126 29zM301 -49l67 -80l-83 -69
l-67 80z" />
    <glyph glyph-name="jeemar.medi" unicode="&#x62c;" horiz-adv-x="629" arabic-form="medial" 
d="M639 92v-84l-10 -8h-84q-91 0 -149 82q-96 -42 -165.5 -62t-152.5 -20h-78l-14 14v74l14 14h85q42 0 76 3.5t74 16l57 18t71 28.5l69 29q-98 68 -147.5 92.5t-104.5 24.5q-51 0 -105 -19l-9 5v88q72 29 126 29q64 0 139 -47t206 -154l-23 -83l-42 -18q27 -13 72 -13h85z
M352 -49l67 -80l-83 -69l-67 80z" />
    <glyph glyph-name="hahar.fina" unicode="&#x62d;" horiz-adv-x="647" arabic-form="final" 
d="M657 92v-84l-10 -8h-89q-59 0 -107 28t-86 101q-135 -32 -217 -79q-16 -44 -16 -86q0 -68 42.5 -98.5t126.5 -30.5q91 0 206 39l7 -3v-84q-114 -52 -235 -52q-107 0 -169.5 55.5t-62.5 152.5q0 89 40 172q143 87 379 124q-157 120 -249 120q-52 0 -108 -19l-8 5v88
q66 29 129 29q60 0 141.5 -52.5t196.5 -154.5l-24 -94q-55 -7 -102 -16q36 -43 118 -43h87z" />
    <glyph glyph-name="hahar.init" unicode="&#x62d;" horiz-adv-x="582" arabic-form="initial" 
d="M192 417q64 0 139 -47t206 -154l-23 -83q-29 -12 -91 -40t-90.5 -39t-76 -26.5t-89.5 -21.5t-89 -6h-78l-14 14v74l14 14h85q42 0 76 3.5t74 16l57 18t71 28.5l69 29q-98 68 -147.5 92.5t-104.5 24.5q-51 0 -105 -19l-9 5v88q72 29 126 29z" />
    <glyph glyph-name="hahar.medi" unicode="&#x62d;" horiz-adv-x="629" arabic-form="medial" 
d="M639 92v-84l-10 -8h-84q-91 0 -149 82q-96 -42 -165.5 -62t-152.5 -20h-78l-14 14v74l14 14h85q42 0 76 3.5t74 16l57 18t71 28.5l69 29q-98 68 -147.5 92.5t-104.5 24.5q-51 0 -105 -19l-9 5v88q72 29 126 29q64 0 139 -47t206 -154l-23 -83l-42 -18q27 -13 72 -13h85z
" />
    <glyph glyph-name="khahar.fina" unicode="&#x62e;" horiz-adv-x="647" arabic-form="final" 
d="M244 562l-66 78l84 69l65 -78zM657 92v-84l-10 -8h-89q-59 0 -107 28t-86 101q-135 -32 -217 -79q-16 -44 -16 -86q0 -68 42.5 -98.5t126.5 -30.5q91 0 206 39l7 -3v-84q-114 -52 -235 -52q-107 0 -169.5 55.5t-62.5 152.5q0 89 40 172q143 87 379 124q-157 120 -249 120
q-52 0 -108 -19l-8 5v88q66 29 129 29q60 0 141.5 -52.5t196.5 -154.5l-24 -94q-55 -7 -102 -16q36 -43 118 -43h87z" />
    <glyph glyph-name="khahar.init" unicode="&#x62e;" horiz-adv-x="582" arabic-form="initial" 
d="M194 521l-66 78l84 69l65 -78zM192 417q64 0 139 -47t206 -154l-23 -83q-29 -12 -91 -40t-90.5 -39t-76 -26.5t-89.5 -21.5t-89 -6h-78l-14 14v74l14 14h85q42 0 76 3.5t74 16l57 18t71 28.5l69 29q-98 68 -147.5 92.5t-104.5 24.5q-51 0 -105 -19l-9 5v88q72 29 126 29z
" />
    <glyph glyph-name="khahar.medi" unicode="&#x62e;" horiz-adv-x="629" arabic-form="medial" 
d="M197 521l-66 78l84 69l65 -78zM639 92v-84l-10 -8h-84q-91 0 -149 82q-96 -42 -165.5 -62t-152.5 -20h-78l-14 14v74l14 14h85q42 0 76 3.5t74 16l57 18t71 28.5l69 29q-98 68 -147.5 92.5t-104.5 24.5q-51 0 -105 -19l-9 5v88q72 29 126 29q64 0 139 -47t206 -154
l-23 -83l-42 -18q27 -13 72 -13h85z" />
    <glyph glyph-name="dalar.fina" unicode="&#x62f;" horiz-adv-x="523" arabic-form="final" 
d="M533 91v-81l-10 -10h-28q-68 0 -118 53q-47 -29 -96.5 -41t-121.5 -12h-106l-24 93l8 9h141q92 0 152 18l-16 28q-70 135 -131 273l70 50h9q56 -132 120 -260q36 -69 61.5 -89t70.5 -20h9z" />
    <glyph glyph-name="thalar.fina" unicode="&#x630;" horiz-adv-x="523" arabic-form="final" 
d="M177 541l-66 78l84 69l65 -78zM533 91v-81l-10 -10h-28q-68 0 -118 53q-47 -29 -96.5 -41t-121.5 -12h-106l-24 93l8 9h141q92 0 152 18l-16 28q-70 135 -131 273l70 50h9q56 -132 120 -260q36 -69 61.5 -89t70.5 -20h9z" />
    <glyph glyph-name="rehar.fina" unicode="&#x631;" horiz-adv-x="366" arabic-form="final" 
d="M376 91v-81l-10 -10h-16q-47 0 -102 42v-20q0 -238 -182 -238q-39 0 -75 17l-16 87l7 6q39 -12 88 -12q45 0 67 28.5t22 94.5v363h89v-244q39 -22 103 -22h15z" />
    <glyph glyph-name="zainar.fina" unicode="&#x632;" horiz-adv-x="366" arabic-form="final" 
d="M193 490l-66 78l84 69l65 -78zM376 91v-81l-10 -10h-16q-47 0 -102 42v-20q0 -238 -182 -238q-39 0 -75 17l-16 87l7 6q39 -12 88 -12q45 0 67 28.5t22 94.5v363h89v-244q39 -22 103 -22h15z" />
    <glyph glyph-name="seenar.fina" unicode="&#x633;" horiz-adv-x="1166" arabic-form="final" 
d="M1176 91v-81l-10 -10h-19q-58 0 -114 54l-34 -54q-132 0 -230 58l-39 -58q-103 0 -179 48v-146q-121 -63 -234 -63q-129 0 -196 70t-67 192q0 72 27 155l72 12l5 -5q-19 -72 -19 -137q0 -92 46 -139t153 -47q64 0 124 18v397h89v-225q62 -27 150 -28l33 253h90l-30 -228
q67 -23 176 -25q-13 99 -48 286l90 20q37 -195 47 -283q34 -23 92 -23h15z" />
    <glyph glyph-name="seenar.init" unicode="&#x633;" horiz-adv-x="766" arabic-form="initial" 
d="M706 100l-64 -100q-132 0 -230 58l-39 -58q-109 0 -189 57l-9 -57h-175l-10 8v86l10 8h104l38 253h90l-36 -224q62 -28 148 -29l32 253h90l-29 -228q70 -23 176 -25q-18 138 -48 284l90 22q33 -158 51 -308z" />
    <glyph glyph-name="seenar.medi" unicode="&#x633;" horiz-adv-x="811" arabic-form="medial" 
d="M821 91v-81l-10 -10h-19q-60 0 -116 54l-34 -54q-132 0 -230 58l-39 -58q-107 0 -187 55l-8 -55h-178l-10 8v86l10 8h106l36 253h90l-34 -225q62 -27 146 -28l32 253h90l-29 -228q70 -23 175 -25q-18 140 -42 272l90 20q27 -152 42 -268q34 -24 94 -24h15z" />
    <glyph glyph-name="sheenar.fina" unicode="&#x634;" horiz-adv-x="1166" arabic-form="final" 
d="M755 584l-63 76l80 67l63 -76zM678 451l-65 77l82 69l64 -77zM757 527l82 68l64 -77l-81 -68zM1176 91v-81l-10 -10h-19q-58 0 -114 54l-34 -54q-132 0 -230 58l-39 -58q-103 0 -179 48v-146q-121 -63 -234 -63q-129 0 -196 70t-67 192q0 72 27 155l72 12l5 -5
q-19 -72 -19 -137q0 -92 46 -139t153 -47q64 0 124 18v397h89v-225q62 -27 150 -28l33 253h90l-30 -228q67 -23 176 -25q-13 99 -48 286l90 20q37 -195 47 -283q34 -23 92 -23h15z" />
    <glyph glyph-name="sheenar.init" unicode="&#x634;" horiz-adv-x="766" arabic-form="initial" 
d="M395 595l-63 76l80 67l63 -76zM318 462l-65 77l82 69l64 -77zM397 538l82 68l64 -77l-81 -68zM706 100l-64 -100q-132 0 -230 58l-39 -58q-109 0 -189 57l-9 -57h-175l-10 8v86l10 8h104l38 253h90l-36 -224q62 -28 148 -29l32 253h90l-29 -228q70 -23 176 -25
q-18 138 -48 284l90 22q33 -158 51 -308z" />
    <glyph glyph-name="sheenar.medi" unicode="&#x634;" horiz-adv-x="811" arabic-form="medial" 
d="M401 589l-63 76l80 67l63 -76zM324 456l-65 77l82 69l64 -77zM403 532l82 68l64 -77l-81 -68zM821 91v-81l-10 -10h-19q-60 0 -116 54l-34 -54q-132 0 -230 58l-39 -58q-107 0 -187 55l-8 -55h-178l-10 8v86l10 8h106l36 253h90l-34 -225q62 -27 146 -28l32 253h90
l-29 -228q70 -23 175 -25q-18 140 -42 272l90 20q27 -152 42 -268q34 -24 94 -24h15z" />
    <glyph glyph-name="sadar.fina" unicode="&#x635;" horiz-adv-x="1136" arabic-form="final" 
d="M1146 91v-81l-10 -10h-13q-61 0 -114 53l-36 -53h-411v-98q-121 -63 -234 -63q-129 0 -196 70t-67 192q0 72 27 155l71 12l6 -5q-19 -72 -19 -137q0 -92 45.5 -139t152.5 -47q65 0 125 18v397h89v-85q190 153 282 153q60 0 104.5 -45t65.5 -111t24 -144q33 -21 89 -21h9z
M562 102h392q-7 96 -38.5 157t-91.5 61q-78 0 -262 -136v-82z" />
    <glyph glyph-name="sadar.init" unicode="&#x635;" horiz-adv-x="737" arabic-form="initial" 
d="M477 423q63 0 108.5 -49.5t66 -121.5t19.5 -154l-66 -98h-605l-10 11v84l10 7h109v269h88v-99q190 151 280 151zM197 102h390q-5 62 -18.5 108.5t-42 78t-69.5 31.5q-80 0 -260 -134v-84z" />
    <glyph glyph-name="sadar.medi" unicode="&#x635;" horiz-adv-x="773" arabic-form="medial" 
d="M783 91v-81l-10 -10h-13q-63 0 -117 56l-38 -56h-605l-10 11v84l10 7h109v269h88v-99q190 151 280 151q59 0 103.5 -44.5t65.5 -110t25 -142.5q34 -24 93 -24h9zM197 102h390q-5 62 -18.5 108.5t-42 78t-69.5 31.5q-80 0 -260 -134v-84z" />
    <glyph glyph-name="dadar.fina" unicode="&#x636;" horiz-adv-x="1136" arabic-form="final" 
d="M691 493l-66 78l84 69l65 -78zM1146 91v-81l-10 -10h-13q-61 0 -114 53l-36 -53h-411v-98q-121 -63 -234 -63q-129 0 -196 70t-67 192q0 72 27 155l71 12l6 -5q-19 -72 -19 -137q0 -92 45.5 -139t152.5 -47q65 0 125 18v397h89v-85q190 153 282 153q60 0 104.5 -45
t65.5 -111t24 -144q33 -21 89 -21h9zM562 102h392q-7 96 -38.5 157t-91.5 61q-78 0 -262 -136v-82z" />
    <glyph glyph-name="dadar.init" unicode="&#x636;" horiz-adv-x="737" arabic-form="initial" 
d="M317 493l-66 78l84 69l65 -78zM477 423q63 0 108.5 -49.5t66 -121.5t19.5 -154l-66 -98h-605l-10 11v84l10 7h109v269h88v-99q190 151 280 151zM197 102h390q-5 62 -18.5 108.5t-42 78t-69.5 31.5q-80 0 -260 -134v-84z" />
    <glyph glyph-name="dadar.medi" unicode="&#x636;" horiz-adv-x="773" arabic-form="medial" 
d="M317 493l-66 78l84 69l65 -78zM783 91v-81l-10 -10h-13q-63 0 -117 56l-38 -56h-605l-10 11v84l10 7h109v269h88v-99q190 151 280 151q59 0 103.5 -44.5t65.5 -110t25 -142.5q34 -24 93 -24h9zM197 102h390q-5 62 -18.5 108.5t-42 78t-69.5 31.5q-80 0 -260 -134v-84z
" />
    <glyph glyph-name="tahar.fina" unicode="&#x637;" horiz-adv-x="841" arabic-form="final" 
d="M851 91v-81l-10 -10h-19q-63 0 -117 56l-38 -56h-603l-42 91l5 11h141v648h89l-1 -481q191 154 283 154q59 0 103.5 -44.5t65.5 -110t25 -142.5q34 -24 93 -24h15zM256 102h393q-5 62 -18.5 108.5t-42 78t-69.5 31.5q-81 0 -263 -136v-82z" />
    <glyph glyph-name="tahar.init" unicode="&#x637;" horiz-adv-x="739" arabic-form="initial" 
d="M478 423q64 0 109.5 -49.5t66 -121.5t19.5 -154l-66 -98h-607l-10 10v82l10 10h108v648h89l-1 -480q190 153 282 153zM196 102h392q-17 218 -130 218q-80 0 -262 -136v-82z" />
    <glyph glyph-name="tahar.medi" unicode="&#x637;" horiz-adv-x="781" arabic-form="medial" 
d="M791 91v-81l-10 -10h-19q-59 0 -118 55l-37 -55h-607l-10 10v82l10 10h108v648h89l-1 -480q190 153 282 153q88 0 138.5 -87.5t56.5 -209.5q34 -24 93 -24h15zM196 102h392q-17 218 -130 218q-80 0 -262 -136v-82z" />
    <glyph glyph-name="zahar.fina" unicode="&#x638;" horiz-adv-x="841" arabic-form="final" 
d="M851 91v-81l-10 -10h-19q-63 0 -117 56l-38 -56h-603l-42 91l5 11h141v648h89l-1 -481q191 154 283 154q59 0 103.5 -44.5t65.5 -110t25 -142.5q34 -24 93 -24h15zM430 537l-66 78l84 69l65 -78zM256 102h393q-5 62 -18.5 108.5t-42 78t-69.5 31.5q-81 0 -263 -136v-82z
" />
    <glyph glyph-name="zahar.init" unicode="&#x638;" horiz-adv-x="739" arabic-form="initial" 
d="M478 423q64 0 109.5 -49.5t66 -121.5t19.5 -154l-66 -98h-607l-10 10v82l10 10h108v648h89l-1 -480q190 153 282 153zM394 537l-66 78l84 69l65 -78zM196 102h392q-17 218 -130 218q-80 0 -262 -136v-82z" />
    <glyph glyph-name="zahar.medi" unicode="&#x638;" horiz-adv-x="781" arabic-form="medial" 
d="M791 91v-81l-10 -10h-19q-59 0 -118 55l-37 -55h-607l-10 10v82l10 10h108v648h89l-1 -480q190 153 282 153q88 0 138.5 -87.5t56.5 -209.5q34 -24 93 -24h15zM391 537l-66 78l84 69l65 -78zM196 102h392q-17 218 -130 218q-80 0 -262 -136v-82z" />
    <glyph glyph-name="ainar.fina" unicode="&#x639;" horiz-adv-x="560" arabic-form="final" 
d="M570 91v-77l-10 -14h-111q-145 0 -234 70q-65 -75 -65 -128q0 -108 161 -108q103 0 205 35l7 -3v-84q-113 -47 -226 -47q-105 0 -169 48.5t-64 137.5q0 91 99 202q-61 78 -95 216l-41 -11l-8 6l9 87q118 34 236 34q122 0 231 -32l14 -103q-169 -131 -228 -185
q63 -33 189 -33h90zM416 345q-75 16 -169 16q-46 0 -97 -7q26 -116 72 -171q67 65 194 162z" />
    <glyph glyph-name="ainar.init" unicode="&#x639;" horiz-adv-x="517" arabic-form="initial" 
d="M467 96l-20 -96h-447l-10 11v80l10 11h160q-65 54 -86 146q28 91 99 140t155 49q45 0 95 -13v-96l-6 -4q-43 10 -97 10q-42 0 -87.5 -19.5t-71.5 -56.5q15 -70 69.5 -113t121.5 -43h108z" />
    <glyph glyph-name="ainar.medi" unicode="&#x639;" horiz-adv-x="644" arabic-form="medial" 
d="M654 88v-74l-10 -14h-126q-104 0 -191 49q-105 -49 -251 -49h-76l-10 13v75l10 14h105q80 0 140 10q-78 83 -115 198l-41 -11l-8 5l9 89q130 42 242 42q106 0 214 -35l14 -101q-42 -113 -138 -191q39 -6 89 -6h133zM477 319q-58 18 -154 18q-57 0 -110 -9
q29 -101 106 -174q9 -9 20 -16q97 66 138 181z" />
    <glyph glyph-name="ghainar.fina" unicode="&#x63a;" horiz-adv-x="560" arabic-form="final" 
d="M260 552l-66 78l84 69l65 -78zM570 91v-77l-10 -14h-111q-145 0 -234 70q-65 -75 -65 -128q0 -108 161 -108q103 0 205 35l7 -3v-84q-113 -47 -226 -47q-105 0 -169 48.5t-64 137.5q0 91 99 202q-61 78 -95 216l-41 -11l-8 6l9 87q118 34 236 34q122 0 231 -32l14 -103
q-169 -131 -228 -185q63 -33 189 -33h90zM416 345q-75 16 -169 16q-46 0 -97 -7q26 -116 72 -171q67 65 194 162z" />
    <glyph glyph-name="ghainar.init" unicode="&#x63a;" horiz-adv-x="517" arabic-form="initial" 
d="M288 527l-66 78l84 69l65 -78zM467 96l-20 -96h-447l-10 11v80l10 11h160q-65 54 -86 146q28 91 99 140t155 49q45 0 95 -13v-96l-6 -4q-43 10 -97 10q-42 0 -87.5 -19.5t-71.5 -56.5q15 -70 69.5 -113t121.5 -43h108z" />
    <glyph glyph-name="ghainar.medi" unicode="&#x63a;" horiz-adv-x="644" arabic-form="medial" 
d="M319 535l-66 78l84 69l65 -78zM654 88v-74l-10 -14h-126q-104 0 -191 49q-105 -49 -251 -49h-76l-10 13v75l10 14h105q80 0 140 10q-78 83 -115 198l-41 -11l-8 5l9 89q130 42 242 42q106 0 214 -35l14 -101q-42 -113 -138 -191q39 -6 89 -6h133zM477 319q-58 18 -154 18
q-57 0 -110 -9q29 -101 106 -174q9 -9 20 -16q97 66 138 181z" />
    <glyph glyph-name="fehar.fina" unicode="&#x641;" horiz-adv-x="997" arabic-form="final" 
d="M745 528l-66 78l84 69l65 -78zM1014 93v-84l-10 -9h-50q-98 0 -193 42q-95 -42 -233 -42h-210q-265 0 -265 222q0 54 24 126l69 14l8 -6q-17 -66 -17 -112q0 -74 44 -108t158 -34h321q-75 54 -114 130q28 98 87 152t123 54q73 0 121 -51.5t48 -124.5q0 -88 -66 -156
q34 -4 104 -4h41zM777 127q64 45 64 112q0 41 -28 69.5t-72 28.5q-29 0 -59.5 -23.5t-49.5 -63.5q51 -85 145 -123z" />
    <glyph glyph-name="fehar.init" unicode="&#x641;" horiz-adv-x="520" arabic-form="initial" 
d="M233 596l-66 78l84 69l65 -78zM265 516q58 0 102 -46.5t65.5 -115.5t21.5 -145q0 -113 -22 -209h-432l-10 14v73l10 15h368q2 28 2 46q-188 -2 -299 95q12 110 66.5 191.5t127.5 81.5zM154 285q71 -54 214 -50q-8 74 -38 125.5t-74 51.5q-32 0 -61.5 -36.5t-40.5 -90.5z
" />
    <glyph glyph-name="fehar.medi" unicode="&#x641;" horiz-adv-x="537" arabic-form="medial" 
d="M281 514l-66 78l84 69l65 -78zM547 93v-84l-10 -9h-50q-99 0 -193 42q-92 -42 -225 -42h-69l-10 13v75l10 14h194q-73 54 -112 130q29 98 87.5 151.5t123.5 53.5q74 0 120.5 -51t46.5 -126q0 -87 -67 -154q34 -4 104 -4h40zM277 337q-33 0 -62 -24.5t-48 -63.5
q48 -83 143 -122q31 22 48 51.5t17 58.5q0 44 -26 72t-72 28z" />
    <glyph glyph-name="qafar.fina" unicode="&#x642;" horiz-adv-x="796" arabic-form="final" 
d="M435 481l-66 77l83 69l59 -70l83 69l65 -77l-83 -69l-59 70zM806 90v-77l-10 -13h-84q-9 -90 -35 -168q-134 -68 -300 -68q-151 0 -237 64t-86 199q0 61 27 150l70 15l6 -5q-18 -74 -18 -131q0 -102 61 -146.5t200 -44.5q127 0 211 30q15 49 18 106q-207 7 -310 111
q11 105 69 190t128 85q47 0 84.5 -26.5t60 -69.5t35.5 -90.5t17 -98.5h83zM504 283q-28 0 -57.5 -37.5t-42.5 -89.5q70 -52 222 -54q-11 77 -42.5 129t-79.5 52z" />
    <glyph glyph-name="qafar.init" unicode="&#x642;" horiz-adv-x="520" arabic-form="initial" 
d="M170 590l-66 77l83 69l59 -70l83 69l65 -77l-83 -69l-59 70zM265 516q58 0 102 -46.5t65.5 -115.5t21.5 -145q0 -113 -22 -209h-432l-10 14v73l10 15h368q2 28 2 46q-188 -2 -299 95q12 110 66.5 191.5t127.5 81.5zM154 285q71 -54 214 -50q-8 74 -38 125.5t-74 51.5
q-32 0 -61.5 -36.5t-40.5 -90.5z" />
    <glyph glyph-name="qafar.medi" unicode="&#x642;" horiz-adv-x="537" arabic-form="medial" 
d="M188 516l-66 77l83 69l59 -70l83 69l65 -77l-83 -69l-59 70zM547 93v-84l-10 -9h-50q-99 0 -193 42q-92 -42 -225 -42h-69l-10 13v75l10 14h194q-73 54 -112 130q29 98 87.5 151.5t123.5 53.5q74 0 120.5 -51t46.5 -126q0 -87 -67 -154q34 -4 104 -4h40zM277 337
q-33 0 -62 -24.5t-48 -63.5q48 -83 143 -122q31 22 48 51.5t17 58.5q0 44 -26 72t-72 28z" />
    <glyph glyph-name="kafar.fina" unicode="&#x643;" horiz-adv-x="889" arabic-form="final" 
d="M899 91v-81l-10 -10h-19q-59 0 -120 59l-38 -59h-395q-263 0 -263 222q0 57 23 126l69 14l7 -6q-15 -66 -15 -112q0 -74 44 -108t158 -34h350v648h90v-624q34 -24 94 -24h15zM503 498l8 -51q-52 -12 -109 -12h-98v56l51 -2q-19 25 -19 51q0 40 18 71q35 13 75 13
q20 0 59 -6l-4 -51q-34 4 -63 4q-13 0 -33 -3q-1 -6 -1 -22q0 -35 20 -58q60 1 92 12z" />
    <glyph glyph-name="kafar.init" unicode="&#x643;" horiz-adv-x="652" arabic-form="initial" 
d="M308 384q118 0 194.5 -69t84.5 -217l-54 -98h-533l-11 18v68l11 16h502q-14 109 -71 148t-159 39q-84 0 -190 -15l-37 84l362 391h9l47 -75l-306 -306q80 16 151 16z" />
    <glyph glyph-name="kafar.medi" unicode="&#x643;" horiz-adv-x="693" arabic-form="medial" 
d="M703 91v-81l-10 -10h-19q-60 0 -113 51l-28 -51h-533l-11 18v68l11 16h502q-14 109 -71 148t-159 39q-84 0 -190 -15l-37 84l362 391h9l47 -75l-306 -306q80 16 151 16q112 0 187.5 -62.5t89.5 -196.5q36 -23 93 -23h15z" />
    <glyph glyph-name="lamar.fina" unicode="&#x644;" horiz-adv-x="670" arabic-form="final" 
d="M680 91v-81l-10 -10h-9q-47 0 -103 43v-157q-120 -63 -235 -63q-130 0 -198.5 68t-68.5 197q0 70 28 152l72 13l5 -5q-20 -76 -20 -136q0 -96 47 -142t158 -46q65 0 122 18v808h90v-625q41 -23 105 -23h7z" />
    <glyph glyph-name="lamar.init" unicode="&#x644;" horiz-adv-x="287" arabic-form="initial" 
d="M201 750v-750h-201l-11 11v79l11 12h108v648h93z" />
    <glyph glyph-name="lamar.medi" unicode="&#x644;" horiz-adv-x="334" arabic-form="medial" 
d="M344 91v-81l-10 -10h-13q-67 0 -124 57l-34 -57h-163l-14 14v77l14 11h139v648h91v-623q33 -25 95 -25h9z" />
    <glyph glyph-name="meemar.fina" unicode="&#x645;" horiz-adv-x="566" arabic-form="final" 
d="M576 91v-81l-10 -10h-19q-61 0 -116 51l-65 -62l-227 82l-19 -46l89 -254l-80 -36h-7l-94 287l32.5 79.5t37 83t47 86t51.5 68t61.5 52t66.5 17.5q61 0 102.5 -59t41.5 -149q0 -41 -10 -77q34 -21 93 -21h15zM305 307q-31 0 -61 -37t-69 -119l190 -67q18 45 18 100
q0 54 -22.5 88.5t-55.5 34.5z" />
    <glyph glyph-name="meemar.init" unicode="&#x645;" horiz-adv-x="552" arabic-form="initial" 
d="M339 410q66 0 107.5 -60t41.5 -153q0 -79 -38 -148l-70 -67l-228 104q-31 -47 -63 -66.5t-81 -19.5h-8l-10 15v70l10 17h16q36 0 60.5 26.5t61.5 97.5q46 88 94 136t107 48zM196 163l185 -85q22 50 22 102q0 59 -22.5 93.5t-59.5 34.5q-30 0 -56 -31.5t-61 -99.5z" />
    <glyph glyph-name="meemar.medi" unicode="&#x645;" horiz-adv-x="586" arabic-form="medial" 
d="M596 91v-81l-10 -10h-19q-61 0 -116 51l-1 -2l-70 -67l-228 104q-31 -47 -63 -66.5t-81 -19.5h-8l-10 15v70l10 17h16q36 0 60.5 26.5t61.5 97.5q46 88 94 136t107 48q66 0 107.5 -60t41.5 -153q0 -37 -9 -75q33 -20 92 -20h15zM196 163l185 -85q22 50 22 102
q0 59 -22.5 93.5t-59.5 34.5q-30 0 -56 -31.5t-61 -99.5z" />
    <glyph glyph-name="noonar.fina" unicode="&#x646;" horiz-adv-x="656" arabic-form="final" 
d="M284 342l-66 78l84 69l65 -78zM666 91v-81l-10 -10h-10q-46 0 -95 36v-134q-121 -63 -234 -63q-129 0 -196 70t-67 192q0 72 27 155l72 12l5 -5q-19 -72 -19 -137q0 -92 46 -139t153 -47q64 0 124 18v397h89v-234q38 -19 96 -19h9z" />
    <glyph glyph-name="noonar.init" unicode="&#x646;" horiz-adv-x="327" arabic-form="initial" 
d="M192 481l-66 78l84 69l65 -78zM160 401h90v-401h-250l-14 14v77l14 11h160v299z" />
    <glyph glyph-name="noonar.medi" unicode="&#x646;" horiz-adv-x="367" arabic-form="medial" 
d="M201 469l-66 78l84 69l65 -78zM377 91v-81l-10 -10h-19q-59 0 -121 60l-37 -60h-190l-14 14v77l14 11h167v266h91v-242q35 -24 94 -24h15z" />
    <glyph glyph-name="hehar.fina" unicode="&#x647;" horiz-adv-x="522" arabic-form="final" 
d="M532 89v-76l-10 -13h-184v71q-83 -51 -149 -51q-72 0 -113 40t-41 106q0 65 34 135l269 75v79h89v-353h95zM204 119q66 0 134 34v140l-212 -58q-6 -22 -6 -47q0 -69 84 -69z" />
    <glyph glyph-name="hehar.init" unicode="&#x647;" horiz-adv-x="692" arabic-form="initial" 
d="M634 176q0 -92 -62 -205q-148 19 -266 70q-88 -41 -226 -41h-80l-10 13v75l10 14h199q-69 47 -118 127q24 54 60 94l-65 -16l-7 6v84q140 33 237 33q149 0 238.5 -67t89.5 -187zM313 126q30 22 46 53t16 59q0 45 -28.5 74t-71.5 28q-66 -3 -107 -92q46 -80 145 -122z
M549 159q0 63 -33 106t-91 63q33 -40 33 -83q0 -83 -68 -148q71 -23 139 -32q20 49 20 94z" />
    <glyph glyph-name="hehar.medi" unicode="&#x647;" horiz-adv-x="743" arabic-form="medial" 
d="M753 91v-81l-10 -10h-16q-55 0 -117 54q-16 -42 -38 -83q-148 19 -266 70q-88 -41 -226 -41h-80l-10 13v75l10 14h199q-69 47 -118 127q24 54 60 94l-65 -16l-7 6v84q140 33 237 33q149 0 238.5 -67t89.5 -187q0 -24 -5 -54q40 -20 99 -20h15zM313 126q30 22 46 53t16 59
q0 45 -28.5 74t-71.5 28q-66 -3 -107 -92q46 -80 145 -122zM549 159q0 63 -33 106t-91 63q33 -40 33 -83q0 -83 -68 -148q71 -23 139 -32q20 49 20 94z" />
    <glyph glyph-name="wawar.fina" unicode="&#x648;" horiz-adv-x="545" arabic-form="final" 
d="M555 91v-75l-10 -16h-82q-29 -216 -236 -216q-65 0 -130 30l-10 86l7 6q69 -24 146 -24q62 0 95.5 26t43.5 93q-220 18 -319 152q26 118 85 194t126 76q47 0 84.5 -28.5t61 -76t36.5 -103t15 -114.5l77 1zM258 319q-29 0 -60 -37t-49 -96q74 -72 233 -84q-6 91 -37 154
t-87 63z" />
    <glyph glyph-name="alefMaksuraar.fina" unicode="&#x649;" horiz-adv-x="787" arabic-form="final" 
d="M797 91v-82l-10 -9h-47q-42 0 -94 21l-4 -7q59 -47 104 -103l-27 -91q-68 -32 -160 -52t-183 -20q-322 0 -322 249q0 82 29 152l72 12l6 -5q-22 -66 -22 -135q0 -90 62 -131t195 -41q156 0 265 41q-95 112 -231 179l31 81l7 3q63 -31 109.5 -41t106.5 -10h103z" />
    <glyph glyph-name="yehar.fina" unicode="&#x64a;" horiz-adv-x="779" arabic-form="final" 
d="M797 91v-82l-10 -9h-47q-42 0 -94 21l-4 -7q59 -47 104 -103l-27 -91q-68 -32 -160 -52t-183 -20q-322 0 -322 249q0 82 29 152l72 12l6 -5q-22 -66 -22 -135q0 -90 62 -131t195 -41q156 0 265 41q-95 112 -231 179l31 81l7 3q63 -31 109.5 -41t106.5 -10h103zM304 -301
l66 -79l-83 -69l-66 79zM453 -301l66 -79l-82 -69l-67 79z" />
    <glyph glyph-name="yehar.init" unicode="&#x64a;" horiz-adv-x="327" arabic-form="initial" 
d="M0 0l-14 14v77l14 11h160v299h90v-401h-250zM63 -84l66 -80l-83 -69l-66 80zM278 -164l-82 -69l-67 80l83 69z" />
    <glyph glyph-name="yehar.medi" unicode="&#x64a;" horiz-adv-x="367" arabic-form="medial" 
d="M377 91v-81l-10 -10h-19q-59 0 -121 60l-37 -60h-190l-14 14v77l14 11h167v266h91v-242q35 -24 94 -24h15zM102 -84l66 -80l-83 -69l-66 80zM251 -84l66 -80l-82 -69l-67 80z" />
    <glyph glyph-name=".notdef" horiz-adv-x="500" 
d="M0 0v700h500v-700h-500zM250 395l170 255h-340zM280 350l170 -255v510zM80 50h340l-170 255zM50 605v-510l170 255z" />
    <glyph glyph-name=".null" 
 />
    <glyph glyph-name="nonmarkingreturn" horiz-adv-x="333" 
 />
    <glyph glyph-name="space" unicode=" " horiz-adv-x="218" 
 />
    <glyph glyph-name="exclam" unicode="!" horiz-adv-x="327" 
d="M195 186h-81l-10 514h101zM155 -21l-77 76l77 77l76 -77z" />
    <glyph glyph-name="quotedbl" unicode="&#x22;" horiz-adv-x="406" 
d="M170 753l-4 -228h-92l-4 228h100zM336 753l-4 -228h-92l-4 228h100z" />
    <glyph glyph-name="numbersign" unicode="#" horiz-adv-x="705" 
d="M537 423l-38 -153h128v-83h-149l-47 -187h-87l47 187h-157l-47 -187h-87l47 187h-131v83h152l38 153h-122v83h143l48 194h87l-48 -194h157l48 194h87l-48 -194h131v-83h-152zM449 423h-157l-38 -153h157z" />
    <glyph glyph-name="dollar" unicode="$" horiz-adv-x="572" 
d="M530 179q0 -66 -36 -136q-56 -46 -169 -56v-97h-67v95q-120 4 -201 36v91l7 4q94 -33 194 -38v223l-3 1q-117 41 -160.5 89.5t-43.5 134.5q0 66 36 127q64 50 171 61v97h67v-94q101 -3 173 -36v-90l-7 -4q-83 32 -166 37v-232q116 -43 160.5 -89.5t44.5 -123.5zM150 534
q0 -42 23.5 -68t84.5 -50v206q-49 -6 -96 -30q-12 -34 -12 -58zM325 276v-197q58 5 95 24q11 38 11 65q0 35 -23.5 59.5t-82.5 48.5z" />
    <glyph glyph-name="percent" unicode="%" horiz-adv-x="687" 
d="M170 351q-143 0 -143 169q0 103 40 165q52 26 106 26q140 0 140 -169q0 -106 -39 -164q-50 -27 -104 -27zM627 690l-499 -690h-75v10l499 690h75v-10zM118 636q-21 -49 -19 -114q1 -105 71 -105q31 0 53 9q21 46 19 114q-1 105 -73 105q-31 -2 -51 -9zM520 352
q140 0 140 -169q0 -105 -39 -164q-50 -27 -104 -27q-143 0 -143 169q0 103 40 165q52 26 106 26zM570 67q21 46 19 114q-1 105 -73 105q-31 -2 -51 -9q-21 -49 -19 -114q1 -105 71 -105q31 0 53 9z" />
    <glyph glyph-name="ampersand" unicode="&#x26;" horiz-adv-x="651" 
d="M656 10v-10h-124l-68 73q-90 -88 -225 -88q-99 0 -157 46t-58 121q0 59 39 106t129 107q-89 100 -89 204q0 53 19 105q77 42 171 42q87 0 139.5 -43t52.5 -114q0 -55 -34 -96.5t-121 -99.5l-3 -2l133 -142q31 73 40 177h97q-15 -147 -73 -245zM385 547q0 36 -25 57
t-72 21q-46 0 -91 -16q-1 -9 -1 -28q0 -77 77 -162l6 4q62 42 84 66.5t22 57.5zM251 76q95 0 155 60l-159 170q-70 -49 -96.5 -77.5t-26.5 -64.5q0 -40 32 -64t95 -24z" />
    <glyph glyph-name="quotesingle" unicode="'" horiz-adv-x="240" 
d="M170 753l-4 -228h-92l-4 228h100z" />
    <glyph glyph-name="parenleft" unicode="(" horiz-adv-x="311" 
d="M58 353q0 -246 133 -511l73 39q-106 234 -106 472q0 235 105 469l-72 40q-133 -265 -133 -509z" />
    <glyph glyph-name="parenright" unicode=")" horiz-adv-x="311" 
d="M253 353q0 243 -132 509l-73 -40q105 -231 105 -469q0 -237 -105 -472l73 -39q132 265 132 511z" />
    <glyph glyph-name="asterisk" unicode="*" horiz-adv-x="446" 
d="M398 640l26 -79l-149 -39l98 -119l-68 -48l-82 129l-83 -129l-67 49l97 118l-148 39l26 79l141 -55l-8 152h83l-8 -152z" />
    <glyph glyph-name="plus" unicode="+" horiz-adv-x="576" 
d="M508 270h-176v-176h-87v176h-177v87h177v177h87v-177h176v-87z" />
    <glyph glyph-name="comma" unicode="," horiz-adv-x="222" 
d="M168 115v-54q0 -63 -19.5 -108t-76.5 -102l-52 45q30 45 40 77t10 78v64h98z" />
    <glyph glyph-name="hyphen" unicode="-" horiz-adv-x="363" 
d="M50 282h259v-79h-259v79z" />
    <glyph glyph-name="period" unicode="." horiz-adv-x="249" 
d="M125 -21l-77 76l77 77l76 -77z" />
    <glyph glyph-name="slash" unicode="/" horiz-adv-x="425" 
d="M303 760l90 -27l-271 -882l-90 27z" />
    <glyph glyph-name="zero" unicode="0" horiz-adv-x="580" 
d="M294 715q245 0 245 -342q0 -98 -18 -188t-48 -146q-86 -54 -184 -54q-248 0 -248 343q0 99 18 188.5t49 145.5q89 53 186 53zM401 101q41 105 39 271q-1 131 -37.5 192t-112.5 61q-60 -1 -110 -25q-43 -115 -41 -271q1 -130 38 -191.5t112 -61.5q63 0 112 25z" />
    <glyph glyph-name="one" unicode="1" horiz-adv-x="580" 
d="M524 87v-87h-451v87h199v515l-190 -71l-37 80l221 89h103v-613h155z" />
    <glyph glyph-name="two" unicode="2" horiz-adv-x="580" 
d="M526 85v-85h-452l-19 86l101 101q144 138 193 208.5t49 129.5q0 103 -120 103q-88 0 -182 -38l-7 4v84q99 38 198 38t153.5 -47.5t54.5 -134.5q0 -80 -57 -163.5t-218 -237.5l-47 -48h353z" />
    <glyph glyph-name="three" unicode="3" horiz-adv-x="580" 
d="M393 368q135 -47 135 -181q0 -98 -59 -165q-73 -37 -182 -37q-117 0 -225 38l24 91q88 -38 202 -38q62 0 118 19q22 43 22 92q0 63 -49 99t-147 36h-90v91h100q90 0 145 26q23 52 23 94q0 46 -32.5 69t-85.5 23q-93 0 -182 -35l-23 91q92 35 208 35q98 0 157 -42t59 -125
q0 -66 -49 -158q-36 -15 -69 -23z" />
    <glyph glyph-name="four" unicode="4" horiz-adv-x="584" 
d="M552 179h-107v-179h-97v179h-312v92l307 430l102 -1v-430h107v-91zM348 270v302l-215 -302h215z" />
    <glyph glyph-name="five" unicode="5" horiz-adv-x="580" 
d="M194 413h47q281 0 281 -219q0 -102 -59 -172q-70 -37 -177 -37q-114 0 -225 38l23 91q91 -38 204 -38q57 0 111 18q22 45 22 100q0 131 -180 131h-135l-11 14l38 361h359v-96h-278z" />
    <glyph glyph-name="six" unicode="6" horiz-adv-x="581" 
d="M297 437q110 0 169.5 -57t59.5 -163q0 -115 -63 -192q-80 -40 -163 -40q-258 0 -258 310q0 213 74 317t225 104q69 0 148 -29l-20 -93q-74 31 -133 31q-162 0 -187 -228q65 40 148 40zM144 315v-17q0 -222 167 -222q39 0 83 14q33 53 33 123q0 65 -37 100t-104 35
q-74 0 -142 -33z" />
    <glyph glyph-name="seven" unicode="7" horiz-adv-x="580" 
d="M521 700v-96q-147 -203 -196 -323.5t-49 -280.5h-96q0 170 49.5 294t192.5 310h-359v96h458z" />
    <glyph glyph-name="eight" unicode="8" horiz-adv-x="589" 
d="M410 351q131 -73 131 -178q0 -83 -55 -148q-90 -40 -203 -40q-114 0 -178.5 47t-64.5 130q0 107 129 195q-98 71 -98 172q0 80 59 154q84 34 160 34q98 0 158 -49.5t60 -129.5q0 -102 -98 -187zM191 612q-24 -50 -24 -79q0 -44 33.5 -76.5t113.5 -62.5l20 -8
q80 74 80 142q0 45 -34.5 73t-91.5 28q-43 0 -97 -17zM135 172q0 -47 42 -73.5t116 -26.5q60 0 129 18q20 40 20 76q0 40 -38.5 71t-126.5 64q-13 5 -37 15q-105 -75 -105 -144z" />
    <glyph glyph-name="nine" unicode="9" horiz-adv-x="580" 
d="M279 716q248 0 248 -370q0 -186 -70 -273.5t-219 -87.5q-78 0 -167 29l21 93q85 -31 151 -31q86 0 130 55.5t51 172.5q-68 -40 -152 -40q-109 0 -166 57.5t-57 163.5q0 111 65 193q89 38 165 38zM148 488q0 -65 34.5 -100t101.5 -35q72 0 140 33q-9 239 -153 239
q-43 0 -88 -14q-35 -53 -35 -123z" />
    <glyph glyph-name="colon" unicode=":" horiz-adv-x="242" 
d="M125 259l-77 77l77 77l76 -77zM125 -21l-77 76l77 77l76 -77z" />
    <glyph glyph-name="semicolon" unicode=";" horiz-adv-x="246" 
d="M115 329l-76 76l76 77l77 -77zM168 115v-55q0 -63 -19 -107.5t-77 -101.5l-52 44q30 46 40 78t10 77v65h98z" />
    <glyph glyph-name="less" unicode="&#x3c;" horiz-adv-x="527" 
d="M467 459l-300 -134l300 -134v-101l-407 191v87l407 191v-100z" />
    <glyph glyph-name="equal" unicode="=" horiz-adv-x="576" 
d="M508 378h-440v87h440v-87zM508 164h-440v87h440v-87z" />
    <glyph glyph-name="greater" unicode="&#x3e;" horiz-adv-x="527" 
d="M467 368v-87l-407 -191v101l300 134l-300 134v100z" />
    <glyph glyph-name="question" unicode="?" horiz-adv-x="512" 
d="M269 716q-94 0 -185 -38v-91l7 -4q87 38 165 38q48 0 75.5 -22.5t27.5 -63.5q0 -26 -17.5 -52.5t-42.5 -51l-50.5 -52t-43 -68t-17.5 -87.5v-38h96v34q0 41 18.5 75t45 59l53.5 50.5t45.5 61t18.5 77.5q0 80 -53 126.5t-143 46.5zM240 -21l-77 76l77 77l76 -77z" />
    <glyph glyph-name="at" unicode="@" horiz-adv-x="894" 
d="M637 472l-27 -296q-8 -65 29 -65q49 0 92 69t43 178q0 120 -85 195.5t-221 75.5q-153 0 -250.5 -118.5t-97.5 -308.5q0 -143 86.5 -227.5t246.5 -84.5q111 0 216 43l8 -3v-77q-102 -42 -224 -42q-198 0 -309.5 109.5t-111.5 281.5q0 220 122.5 363t313.5 143
q172 0 283 -99t111 -251q0 -142 -70 -234t-169 -92q-64 0 -90 48q-58 -58 -129 -58q-70 0 -110.5 43t-40.5 123q0 142 84 285q61 18 111 18q61 0 113 -23l66 14zM415 102q52 0 104 52l1 14l22 227q-43 18 -93 18q-31 0 -59 -7q-49 -114 -49 -212q0 -92 74 -92z" />
    <glyph glyph-name="A" unicode="A" horiz-adv-x="651" 
d="M452 205h-262l-70 -205h-98l243 700h123l241 -700h-108zM423 292l-101 298l-102 -298h203z" />
    <glyph glyph-name="B" unicode="B" horiz-adv-x="644" 
d="M463 360q130 -28 130 -148q0 -77 -32 -167q-70 -45 -230 -45h-243v700h249q210 0 210 -163q0 -71 -29 -156q-26 -13 -55 -21zM190 617v-223h82q104 0 160 17q14 63 14 102q0 104 -121 104h-135zM190 83h161q77 0 124 12q17 60 17 107q0 56 -33.5 82.5t-104.5 26.5h-164
v-228z" />
    <glyph glyph-name="C" unicode="C" horiz-adv-x="589" 
d="M338 624q-77 0 -143 -28q-51 -105 -51 -261q0 -133 46 -196t144 -63q97 0 195 43l7 -3v-87q-96 -44 -212 -44q-143 0 -212.5 85t-69.5 258q0 92 24 183t62 151q106 54 220 54q106 0 188 -36v-90l-7 -4q-96 38 -191 38z" />
    <glyph glyph-name="D" unicode="D" horiz-adv-x="668" 
d="M88 700h254q144 0 214 -81t70 -246q0 -95 -23 -185.5t-63 -148.5q-101 -39 -214 -39h-238v700zM473 112q47 105 47 253q0 128 -44 186t-142 58h-144v-518h144q73 0 139 21z" />
    <glyph glyph-name="E" unicode="E" horiz-adv-x="577" 
d="M537 91v-91h-449v700h439v-91h-337v-213h317v-91h-317v-214h347z" />
    <glyph glyph-name="F" unicode="F" horiz-adv-x="573" 
d="M190 609v-213h317v-91h-317v-305h-102v700h439v-91h-337z" />
    <glyph glyph-name="G" unicode="G" horiz-adv-x="626" 
d="M577 357v-316q-112 -56 -243 -56q-148 0 -220 85t-72 258q0 95 23.5 185.5t63.5 148.5q108 54 227 54q111 0 194 -36v-90l-7 -4q-99 38 -197 38q-79 0 -152 -29q-50 -108 -50 -260q0 -135 47.5 -196.5t149.5 -61.5q76 0 139 21v174h-171v85h268z" />
    <glyph glyph-name="H" unicode="H" horiz-adv-x="726" 
d="M638 700v-700h-102v305h-346v-305h-102v700h102v-304h346v304h102z" />
    <glyph glyph-name="I" unicode="I" horiz-adv-x="278" 
d="M190 700v-700h-102v700h102z" />
    <glyph glyph-name="J" unicode="J" horiz-adv-x="310" 
d="M222 700v-681q0 -99 -45 -144.5t-143 -45.5q-28 0 -73 8l5 90q35 -6 61 -6q49 0 71.5 22.5t22.5 75.5v681h101z" />
    <glyph glyph-name="K" unicode="K" horiz-adv-x="630" 
d="M609 10v-10h-121l-298 329v-329h-102v700h102v-340l299 340h108v-10l-301 -337z" />
    <glyph glyph-name="L" unicode="L" horiz-adv-x="532" 
d="M508 91v-91h-420v700h102v-609h318z" />
    <glyph glyph-name="M" unicode="M" horiz-adv-x="841" 
d="M753 700v-700h-102v385q0 90 8 144h-7q-12 -50 -51 -130l-141 -293h-91l-140 293q-38 83 -49 130h-7q8 -54 8 -144v-385h-93v700h106l231 -498l230 498h98z" />
    <glyph glyph-name="N" unicode="N" horiz-adv-x="722" 
d="M533 0l-274 410q-57 85 -77 129l-6 -1q5 -67 5 -144v-394h-93v700h101l274 -412q62 -96 77 -129l6 1q-6 61 -6 145v395h94v-700h-101z" />
    <glyph glyph-name="O" unicode="O" horiz-adv-x="668" 
d="M342 716q144 0 214 -85t70 -258q0 -95 -23 -185.5t-63 -148.5q-105 -54 -214 -54q-144 0 -214 85t-70 258q0 95 23 185.5t63 148.5q105 54 214 54zM471 107q49 106 49 258q0 135 -44 195.5t-142 60.5q-72 0 -137 -27q-49 -106 -49 -258q0 -135 44 -195.5t142 -60.5
q72 0 137 27z" />
    <glyph glyph-name="P" unicode="P" horiz-adv-x="585" 
d="M88 700h251q111 0 162.5 -49t51.5 -134q0 -94 -38 -187q-74 -57 -250 -57h-75v-273h-102v700zM190 361h88q104 0 156 21q18 58 18 111q0 55 -31 88.5t-98 33.5h-133v-254z" />
    <glyph glyph-name="Q" unicode="Q" horiz-adv-x="666" 
d="M540 39q-64 -33 -125 -46q89 -52 195 -77l-35 -92q-157 53 -291 163q-123 12 -182.5 96.5t-59.5 244.5q0 95 23 185.5t63 148.5q105 54 214 54q144 0 214 -85t70 -258q0 -95 -23 -185.5t-63 -148.5zM148 336q0 -135 44 -195.5t142 -60.5q72 0 137 27q49 106 49 258
q0 135 -44 195.5t-142 60.5q-72 0 -137 -27q-49 -106 -49 -258z" />
    <glyph glyph-name="R" unicode="R" horiz-adv-x="653" 
d="M598 10v-10h-112l-156 289q-40 -2 -65 -2h-75v-287h-102v700h251q111 0 162.5 -49t51.5 -134q0 -83 -38 -173q-27 -21 -80 -37zM190 375h88q104 0 156 18q18 53 18 100q0 53 -31 85.5t-98 32.5h-133v-236z" />
    <glyph glyph-name="S" unicode="S" horiz-adv-x="572" 
d="M290 404l14 -5q128 -44 177 -91.5t49 -128.5q0 -66 -36 -136q-32 -27 -89 -42.5t-122 -15.5q-134 0 -226 36v91l7 4q108 -39 225 -39q77 0 131 26q11 38 11 65q0 42 -35 69.5t-130 60.5l-11 4q-117 41 -160.5 89.5t-43.5 134.5q0 66 36 127q84 64 222 64q111 0 189 -36
v-90l-7 -4q-99 38 -192 38q-74 0 -137 -33q-12 -34 -12 -58q0 -46 29.5 -74t110.5 -56z" />
    <glyph glyph-name="T" unicode="T" horiz-adv-x="520" 
d="M520 609h-209v-609h-102v609h-209v91h520v-91z" />
    <glyph glyph-name="U" unicode="U" horiz-adv-x="710" 
d="M355 -15q-130 0 -198.5 69t-68.5 200v446h102v-438q0 -88 42.5 -135t122.5 -47t122.5 47t42.5 135v438h102v-446q0 -131 -69 -200t-198 -69z" />
    <glyph glyph-name="V" unicode="V" horiz-adv-x="643" 
d="M621 700l-239 -700h-123l-237 700h108l196 -589l197 589h98z" />
    <glyph glyph-name="W" unicode="W" horiz-adv-x="971" 
d="M949 700l-197 -700h-119l-149 550l-148 -550h-119l-195 700h108l153 -576l152 576h111l152 -569l153 569h98z" />
    <glyph glyph-name="X" unicode="X" horiz-adv-x="609" 
d="M457 0l-168 263l-175 -263h-114l232 350l-224 350h132l160 -248l164 248h115l-223 -335l235 -365h-134z" />
    <glyph glyph-name="Y" unicode="Y" horiz-adv-x="597" 
d="M350 272v-272h-102v271l-238 429h112l182 -338l181 338h102z" />
    <glyph glyph-name="Z" unicode="Z" horiz-adv-x="600" 
d="M563 91v-91h-499l-20 94l388 515h-362v91h465l20 -94l-388 -515h396z" />
    <glyph glyph-name="bracketleft" unicode="[" horiz-adv-x="321" 
d="M47 847v-996h229l1 88h-134l1 824h132v84h-229z" />
    <glyph glyph-name="backslash" unicode="\" horiz-adv-x="425" 
d="M303 -149l-271 882l90 27l271 -882z" />
    <glyph glyph-name="bracketright" unicode="]" horiz-adv-x="321" 
d="M48 763h132l1 -824h-134l1 -88h229v996h-229v-84z" />
    <glyph glyph-name="asciicircum" unicode="^" horiz-adv-x="585" 
d="M427 250l-134 334l-134 -334h-101l191 449h87l191 -449h-100z" />
    <glyph glyph-name="underscore" unicode="_" horiz-adv-x="495" 
d="M50 0h395v-79h-395v79z" />
    <glyph glyph-name="grave" unicode="`" horiz-adv-x="294" 
d="M23 738h110l60 -175h-85z" />
    <glyph glyph-name="a" unicode="a" horiz-adv-x="513" 
d="M442 327v-199q0 -64 25 -119l-4 -9h-96q-7 15 -12 33q-66 -48 -148 -48q-81 0 -125.5 38.5t-44.5 108.5q0 58 29 113q108 28 280 32v35q0 57 -26 81.5t-79 24.5q-70 0 -167 -29l-7 4v85q102 29 190 29q97 0 141 -40.5t44 -139.5zM227 62q57 0 119 35v117
q-125 -5 -204 -19q-11 -24 -11 -51q0 -82 96 -82z" />
    <glyph glyph-name="b" unicode="b" horiz-adv-x="552" 
d="M309 508q98 0 150 -61.5t52 -180.5q0 -70 -16.5 -135.5t-42.5 -106.5q-72 -39 -158 -39q-78 0 -136 26l-73 -15l-11 11v743h100v-280q62 38 135 38zM382 90q29 75 29 166q0 84 -31.5 124t-96.5 40q-55 0 -109 -34v-292q53 -21 116 -21q50 0 92 17z" />
    <glyph glyph-name="c" unicode="c" horiz-adv-x="468" 
d="M267 418q-57 0 -101 -16q-28 -71 -28 -159t32.5 -128.5t103.5 -40.5t141 30l7 -4v-82q-73 -33 -164 -33q-217 0 -217 248q0 140 59 237q74 37 157 37q89 0 165 -29v-85l-7 -4q-85 29 -148 29z" />
    <glyph glyph-name="d" unicode="d" horiz-adv-x="576" 
d="M478 750v-620q0 -63 24 -121l-4 -9h-99q-8 20 -11 30q-64 -45 -141 -45q-100 0 -153 61.5t-53 180.5q0 70 16.5 136t42.5 107q73 38 158 38q69 0 120 -19v261h100zM141 237q0 -164 127 -164q56 0 110 34v292q-49 21 -116 21q-49 0 -93 -17q-28 -77 -28 -166z" />
    <glyph glyph-name="e" unicode="e" horiz-adv-x="516" 
d="M463 304q0 -40 -8 -80h-317q4 -78 37 -114t105 -36q81 0 162 30l7 -4v-82q-82 -33 -179 -33q-118 0 -173.5 61.5t-55.5 186.5q0 136 60 237q83 38 167 38q195 0 195 -204zM368 293v12q0 63 -25 90t-75 27q-57 0 -99 -18q-22 -49 -28 -111h227z" />
    <glyph glyph-name="f" unicode="f" horiz-adv-x="359" 
d="M275 766q65 0 122 -20v-85l-7 -4q-62 20 -106 20q-43 0 -63 -24.5t-20 -79.5v-79h147v-86h-147v-408h-97v408h-81v86h81v85q0 187 171 187z" />
    <glyph glyph-name="g" unicode="g" horiz-adv-x="538" 
d="M478 487v-529q0 -112 -53 -166.5t-162 -54.5q-105 0 -198 32v85l7 3q92 -33 181 -33q65 0 96.5 33.5t31.5 107.5v58q-58 -38 -128 -38q-104 0 -158 61.5t-54 180.5q0 146 59 243q73 38 159 38q77 0 136 -25l72 14zM269 70q57 0 112 35v296q-50 21 -118 21q-54 0 -95 -16
q-30 -75 -30 -169q0 -167 131 -167z" />
    <glyph glyph-name="h" unicode="h" horiz-adv-x="578" 
d="M332 508q169 0 169 -159v-349h-100v329q0 86 -95 86q-68 0 -132 -48v-367h-100v750h100v-291q80 49 158 49z" />
    <glyph glyph-name="i" unicode="i" horiz-adv-x="260" 
d="M130 571l-77 76l77 77l76 -77zM180 494v-494h-100v494h100z" />
    <glyph glyph-name="j" unicode="j" horiz-adv-x="292" 
d="M226 673l-75 -75l-75 75l75 75zM198 494v-567q0 -99 -34.5 -144.5t-109.5 -45.5q-44 0 -95 17v83l7 3q42 -13 74 -13q33 0 47.5 24t14.5 82v561h96z" />
    <glyph glyph-name="k" unicode="k" horiz-adv-x="522" 
d="M496 12v-12h-114l-208 242v-242h-100v750h100v-477l200 221h105v-12l-202 -216z" />
    <glyph glyph-name="l" unicode="l" horiz-adv-x="248" 
d="M174 750v-750h-100v750h100z" />
    <glyph glyph-name="m" unicode="m" horiz-adv-x="891" 
d="M652 508q162 0 162 -163v-345h-100v321q0 90 -89 90q-67 0 -129 -48l1 -18v-345h-100v321q0 90 -89 90q-70 0 -128 -47v-364h-100v494h86l10 -43q79 57 159 57q105 0 142 -69q88 69 175 69z" />
    <glyph glyph-name="n" unicode="n" horiz-adv-x="584" 
d="M338 508q169 0 169 -159v-349h-100v329q0 87 -95 87q-69 0 -132 -49v-367h-100v494h86l9 -38q83 52 163 52z" />
    <glyph glyph-name="o" unicode="o" horiz-adv-x="528" 
d="M267 508q220 0 220 -248q0 -144 -60 -236q-81 -39 -166 -39q-220 0 -220 248q0 138 60 237q83 38 166 38zM359 91q28 72 28 159q0 170 -120 170q-52 0 -98 -18q-28 -72 -28 -159q0 -170 120 -170q52 0 98 18z" />
    <glyph glyph-name="p" unicode="p" horiz-adv-x="558" 
d="M307 508q103 0 156.5 -61.5t53.5 -180.5q0 -70 -16.5 -135.5t-42.5 -106.5q-72 -39 -158 -39q-69 0 -120 19v-254h-100v744h86l6 -29q61 43 135 43zM388 90q29 75 29 166q0 84 -31.5 124t-96.5 40q-55 0 -109 -34v-292q53 -21 116 -21q50 0 92 17z" />
    <glyph glyph-name="q" unicode="q" horiz-adv-x="558" 
d="M478 487v-737h-100v273q-60 -38 -127 -38q-103 0 -156.5 61.5t-53.5 180.5q0 70 16.5 136t42.5 107q73 38 158 38q76 0 135 -25l74 15zM268 73q56 0 110 34v292q-49 21 -116 21q-49 0 -93 -17q-28 -77 -28 -166q0 -164 127 -164z" />
    <glyph glyph-name="r" unicode="r" horiz-adv-x="354" 
d="M342 508v-95q-90 0 -162 -44v-369h-100v494h86l9 -39q85 53 167 53z" />
    <glyph glyph-name="s" unicode="s" horiz-adv-x="474" 
d="M256 290q93 -22 134 -58t41 -92q0 -59 -30 -108q-57 -47 -167 -47q-85 0 -176 31l1 85l7 3q87 -32 168 -33q65 0 102 15q5 15 5 36q0 29 -27.5 47.5t-95.5 35.5q-90 23 -127.5 56.5t-37.5 91.5q0 54 31 108q27 21 73 33.5t93 12.5q78 0 149 -29v-85l-7 -4q-76 31 -143 31
q-57 0 -101 -18q-5 -20 -5 -36q0 -27 24 -43.5t89 -32.5z" />
    <glyph glyph-name="t" unicode="t" horiz-adv-x="393" 
d="M352 112l27 -80q-65 -45 -141 -45q-136 0 -136 151v268h-76v88h76v126h100v-126h161v-88h-161v-255q0 -70 54 -70q42 0 96 31z" />
    <glyph glyph-name="u" unicode="u" horiz-adv-x="584" 
d="M504 494v-494h-86l-8 39q-83 -54 -164 -54q-169 0 -169 160v349h100v-329q0 -88 95 -88q69 0 132 49v368h100z" />
    <glyph glyph-name="v" unicode="v" horiz-adv-x="471" 
d="M475 494l-178 -494h-130l-165 494h107l127 -402l140 402h99z" />
    <glyph glyph-name="w" unicode="w" horiz-adv-x="762" 
d="M766 494l-148 -494h-135l-104 382l-106 -382h-130l-141 494h107l106 -397l111 397h125l105 -397l111 397h99z" />
    <glyph glyph-name="x" unicode="x" horiz-adv-x="470" 
d="M351 0l-118 171l-120 -171h-113l177 252l-167 242h119l108 -157l110 157h113l-167 -238l177 -256h-119z" />
    <glyph glyph-name="y" unicode="y" horiz-adv-x="465" 
d="M469 494l-261 -740h-99l87 246h-29l-165 494h107l124 -389l137 389h99z" />
    <glyph glyph-name="z" unicode="z" horiz-adv-x="443" 
d="M425 91v-91h-397l-12 87l280 315h-258v91h368l11 -86l-280 -316h288z" />
    <glyph glyph-name="braceleft" unicode="{" horiz-adv-x="332" 
d="M311 849v-86q-66 0 -93 -25t-21 -83l16 -150q12 -116 -45 -156q57 -40 45 -157l-16 -150q-6 -57 21 -82.5t93 -25.5v-85q-118 0 -166 47.5t-37 155.5l15 142q6 62 -7 85t-54 25h-10v90h10q41 1 54 24.5t7 85.5l-15 142q-11 107 37 155t166 48z" />
    <glyph glyph-name="bar" unicode="|" horiz-adv-x="238" 
d="M164 750v-1000h-90v1000h90z" />
    <glyph glyph-name="braceright" unicode="}" horiz-adv-x="332" 
d="M311 394v-90h-10q-41 -2 -54 -25t-7 -85l15 -142q11 -108 -37 -155.5t-166 -47.5v85q65 0 92 25.5t21 82.5l-15 150q-13 117 44 157q-58 40 -44 156l15 150q6 58 -21 83t-92 25v86q118 0 166 -48t37 -155l-15 -142q-6 -62 7 -85.5t54 -24.5h10z" />
    <glyph glyph-name="asciitilde" unicode="~" horiz-adv-x="578" 
d="M173 372q48 0 127.5 -24.5t102.5 -24.5q50 0 50 40h57q0 -57 -28.5 -87t-76.5 -30q-47 0 -125 24.5t-105 24.5q-49 0 -49 -40h-58q0 57 28 87t77 30z" />
    <glyph glyph-name="exclamdown" unicode="&#xa1;" horiz-adv-x="309" 
d="M155 471l76 -76l-76 -77l-77 77zM114 264h81l10 -514h-101z" />
    <glyph glyph-name="cent" unicode="&#xa2;" horiz-adv-x="466" 
d="M422 393l-7 -4q-62 21 -116 27v-341q53 3 116 29l7 -4v-82q-57 -27 -123 -31v-97h-67v96q-191 15 -191 247q0 140 59 237q62 32 132 36v96h67v-97q69 -6 123 -27v-85zM138 243q0 -144 94 -165v338q-38 -3 -66 -14q-28 -71 -28 -159z" />
    <glyph glyph-name="sterling" unicode="&#xa3;" horiz-adv-x="554" 
d="M544 91v-91h-502v91h77l10 20q30 64 30 126q0 35 -9 68h-108v67h90q-25 83 -25 137q0 100 58.5 153.5t163.5 53.5q89 0 181 -38v-91l-7 -4q-85 38 -160 38q-131 0 -131 -120q0 -34 29 -129h229v-67h-212q6 -30 6 -65q0 -70 -36 -147l-1 -2h317z" />
    <glyph glyph-name="currency" unicode="&#xa4;" horiz-adv-x="593" 
d="M489 39l-81 80q-52 -33 -113 -33q-63 0 -113 33l-82 -82l-61 62l81 82q-34 49 -34 114q0 61 33 113l-82 81l63 61l81 -81q49 34 114 34q63 0 113 -33l81 81l61 -62l-80 -81q33 -52 33 -113q0 -62 -33 -114l82 -81zM164 295q0 -55 38 -93t93 -38q54 0 92 38t38 93
q0 54 -38 92t-92 38q-55 0 -93 -38t-38 -92z" />
    <glyph glyph-name="yen" unicode="&#xa5;" horiz-adv-x="597" 
d="M370 340h155v-67h-175v-77h175v-67h-175v-129h-102v129h-175v67h175v77h-175v67h154l-217 360h112l182 -320l181 320h102z" />
    <glyph glyph-name="brokenbar" unicode="&#xa6;" horiz-adv-x="238" 
d="M164 750v-436h-90v436h90zM164 187v-436h-90v436h90z" />
    <glyph glyph-name="section" unicode="&#xa7;" horiz-adv-x="474" 
d="M377 182q53 -40 53 -106q0 -64 -30 -117q-58 -51 -167 -51q-85 0 -176 34l1 86l7 4q85 -36 168 -37q61 -2 101 16q6 20 6 47q0 33 -27 52.5t-96 41.5q-88 28 -124.5 64.5t-36.5 98.5q0 63 51 127q-54 39 -55 108q0 56 31 116q27 22 73 36t93 14q76 0 149 -33v-85l-7 -4
q-79 34 -143 34q-55 0 -99 -20q-7 -21 -7 -43q0 -31 25 -50t91 -39q91 -28 129.5 -65.5t38.5 -100.5q0 -65 -49 -128zM146 332q0 -34 23.5 -54.5t85.5 -39.5q17 -5 54 -19q27 35 27 72q0 35 -25.5 57t-90.5 42q-28 9 -45 16q-29 -38 -29 -74z" />
    <glyph glyph-name="dieresis" unicode="&#xa8;" horiz-adv-x="374" 
d="M101 572l-77 76l77 77l76 -77zM274 572l-77 76l77 77l76 -77z" />
    <glyph glyph-name="copyright" unicode="&#xa9;" horiz-adv-x="782" 
d="M391 715q161 0 263 -102t102 -263q0 -162 -102 -263.5t-263 -101.5t-263 101.5t-102 263.5q0 161 102 263t263 102zM391 49q132 0 216 84t84 217t-84 216.5t-216 83.5t-216 -83.5t-84 -216.5t84 -217t216 -84zM252 540q63 34 132 34q77 0 141 -27v-76l-6 -4
q-70 26 -126 26q-45 0 -83 -14q-25 -63 -25 -136q0 -68 27.5 -99t87.5 -31q63 0 119 25l6 -3v-73q-65 -30 -140 -30q-186 0 -186 202q0 126 53 206z" />
    <glyph glyph-name="guillemotleft" unicode="&#xab;" horiz-adv-x="505" 
d="M267 444l-129 -198l129 -198v-10h-90l-142 208l142 208h90v-10zM460 444l-129 -198l129 -198v-10h-90l-142 208l142 208h90v-10z" />
    <glyph glyph-name="logicalnot" unicode="&#xac;" horiz-adv-x="600" 
d="M508 405v-263h-87v176h-353v87h440z" />
    <glyph glyph-name="registered" unicode="&#xae;" horiz-adv-x="582" 
d="M291 776q105 0 180 -77t75 -184q0 -108 -75 -185t-180 -77q-106 0 -180.5 77t-74.5 185q0 107 74.5 184t180.5 77zM291 306q84 0 143 61t59 148q0 86 -59 147t-143 61t-143.5 -61t-59.5 -147q0 -87 59.5 -148t143.5 -61zM391 504q-14 -9 -33 -16l65 -95v-5h-78l-56 86
q-11 -1 -34 -1h-11v-85h-71v265h130q104 0 104 -77q0 -33 -16 -72zM244 528h23q40 0 70 7q3 13 3 26q0 36 -50 36h-46v-69z" />
    <glyph glyph-name="macron" unicode="&#xaf;" horiz-adv-x="600" 
 />
    <glyph glyph-name="degree" unicode="&#xb0;" horiz-adv-x="335" 
d="M168 445q-56 0 -96 40t-40 96t40 95.5t96 39.5t95.5 -40t39.5 -95q0 -56 -39.5 -96t-95.5 -40zM168 511q29 0 49 20.5t20 49.5t-20.5 49t-48.5 20q-29 0 -49.5 -20t-20.5 -49t20.5 -49.5t49.5 -20.5z" />
    <glyph glyph-name="plusminus" unicode="&#xb1;" horiz-adv-x="472" 
d="M404 431v-87h-124v-124h-87v124h-125v87h125v125h87v-125h124zM68 179h336v-87h-336v87z" />
    <glyph glyph-name="acute" unicode="&#xb4;" horiz-adv-x="294" 
d="M101 563l60 175h109l-84 -175h-85z" />
    <glyph glyph-name="paragraph" unicode="&#xb6;" horiz-adv-x="629" 
d="M563 700v-950h-90v862h-73v-862h-90v409q-112 0 -191 79.5t-79 191.5q0 111 79 190.5t191 79.5h253z" />
    <glyph glyph-name="periodcentered" unicode="&#xb7;" horiz-adv-x="242" 
d="M125 197l-77 76l77 77l76 -77z" />
    <glyph glyph-name="cedilla" unicode="&#xb8;" horiz-adv-x="224" 
d="M129 0l-10 -62q107 -12 107 -84q0 -45 -36.5 -70t-98.5 -25q-47 0 -81 9l7 63q37 -8 66 -8q55 0 55 32q0 20 -21 29t-75 12l16 104h71z" />
    <glyph glyph-name="guillemotright" unicode="&#xbb;" horiz-adv-x="505" 
d="M45 48l129 198l-129 198v10h90l142 -208l-142 -208h-90v10zM238 48l129 198l-129 198v10h90l142 -208l-142 -208h-90v10z" />
    <glyph glyph-name="onequarter" unicode="&#xbc;" horiz-adv-x="767" 
d="M154 420v209l-91 -42l-31 56l120 60h73v-283h84v-61h-257v61h102zM691 690l-499 -690h-75v10l498 690h76v-10zM746 80h-58v-80h-66v80h-176v64l173 201l69 -1v-200h58v-64zM622 144v119l-107 -119h107z" />
    <glyph glyph-name="onehalf" unicode="&#xbd;" horiz-adv-x="792" 
d="M154 420v209l-91 -42l-31 56l120 60h73v-283h84v-61h-257v61h102zM691 690l-499 -690h-75v10l498 690h76v-10zM760 61v-61h-261l-10 61l59 47q75 61 99.5 88t24.5 50q0 41 -57 41q-45 0 -103 -20l-5 3v63q63 19 115 19q59 0 91 -25.5t32 -72.5q0 -40 -33 -80.5
t-122 -103.5l-12 -9h182z" />
    <glyph glyph-name="threequarters" unicode="&#xbe;" horiz-adv-x="767" 
d="M268 369q-43 -18 -104 -18q-49 0 -122 18v61l5 3q71 -19 115 -19q33 0 63 9q6 13 6 28q0 53 -104 53h-50v64h59q48 0 76 9q9 21 9 36q0 34 -58 34q-48 0 -108 -19l-5 3v61q65 18 117 18q59 0 92 -21t33 -61q0 -36 -27 -79q-17 -7 -38 -12q75 -24 75 -86q0 -48 -34 -82z
M691 690l-499 -690h-75v10l498 690h76v-10zM746 80h-58v-80h-66v80h-176v64l173 201l69 -1v-200h58v-64zM622 144v119l-107 -119h107z" />
    <glyph glyph-name="questiondown" unicode="&#xbf;" horiz-adv-x="507" 
d="M269 472l77 -76l-77 -77l-77 77zM239 -265q93 0 186 38v91l-8 4q-85 -38 -164 -38q-49 0 -76.5 22.5t-27.5 63.5q0 26 17.5 52.5t43 51t51 52t43 68t17.5 87.5v38h-96v-34q0 -41 -18.5 -75t-45.5 -59l-53.5 -50.5t-45 -61t-18.5 -77.5q0 -80 53 -126.5t142 -46.5z" />
    <glyph glyph-name="Agrave" unicode="&#xc0;" horiz-adv-x="651" 
d="M303 773l-84 175h109l60 -175h-85zM452 205h-262l-70 -205h-98l243 700h123l241 -700h-108zM423 292l-101 298l-102 -298h203z" />
    <glyph glyph-name="Aacute" unicode="&#xc1;" horiz-adv-x="651" 
d="M381 773h-85l60 175h109zM452 205h-262l-70 -205h-98l243 700h123l241 -700h-108zM423 292l-101 298l-102 -298h203z" />
    <glyph glyph-name="Acircumflex" unicode="&#xc2;" horiz-adv-x="651" 
d="M239 773h-76l109 175h93l109 -175h-76l-80 111zM452 205h-262l-70 -205h-98l243 700h123l241 -700h-108zM423 292l-101 298l-102 -298h203z" />
    <glyph glyph-name="Atilde" unicode="&#xc3;" horiz-adv-x="651" 
d="M253 844q-29 0 -29 -36h-58q0 54 22.5 83.5t58.5 29.5q30 0 74.5 -20.5t57.5 -20.5q29 0 29 36h58q0 -54 -23 -83.5t-58 -29.5q-30 0 -74.5 20.5t-57.5 20.5zM452 205h-262l-70 -205h-98l243 700h123l241 -700h-108zM423 292l-101 298l-102 -298h203z" />
    <glyph glyph-name="Adieresis" unicode="&#xc4;" horiz-adv-x="651" 
d="M257 782l-77 76l77 77l76 -77zM430 782l-77 76l77 77l76 -77zM452 205h-262l-70 -205h-98l243 700h123l241 -700h-108zM423 292l-101 298l-102 -298h203z" />
    <glyph glyph-name="Aring" unicode="&#xc5;" horiz-adv-x="651" 
d="M325 762q-44 0 -72.5 28t-28.5 73q0 44 28.5 72.5t72.5 28.5t72.5 -28.5t28.5 -72.5q0 -45 -28.5 -73t-72.5 -28zM325 911q-21 0 -34.5 -14t-13.5 -34q0 -21 13.5 -35t34.5 -14t34.5 14t13.5 35q0 20 -13.5 34t-34.5 14zM452 205h-262l-70 -205h-98l243 700h123l241 -700
h-108zM423 292l-101 298l-102 -298h203z" />
    <glyph glyph-name="AE" unicode="&#xc6;" horiz-adv-x="978" 
d="M938 91v-91h-449v197h-233l-130 -197h-104l467 700h439v-91h-337v-213h317v-91h-317v-214h347zM489 284v264l-175 -264h175z" />
    <glyph glyph-name="Ccedilla" unicode="&#xc7;" horiz-adv-x="589" 
d="M338 624q-77 0 -143 -28q-51 -105 -51 -261q0 -133 46 -196t144 -63q97 0 195 43l7 -3v-87q-82 -37 -176 -43l-8 -48q107 -12 107 -84q0 -45 -36.5 -70t-98.5 -25q-46 0 -81 9l7 63q37 -8 66 -8q55 0 55 32q0 20 -21 29t-75 12l14 90q-247 21 -247 342q0 92 24 183
t62 151q106 54 220 54q106 0 188 -36v-90l-7 -4q-96 38 -191 38z" />
    <glyph glyph-name="Egrave" unicode="&#xc8;" horiz-adv-x="577" 
d="M277 769l-84 175h109l60 -175h-85zM537 91v-91h-449v700h439v-91h-337v-213h317v-91h-317v-214h347z" />
    <glyph glyph-name="Eacute" unicode="&#xc9;" horiz-adv-x="577" 
d="M355 769h-85l60 175h109zM537 91v-91h-449v700h439v-91h-337v-213h317v-91h-317v-214h347z" />
    <glyph glyph-name="Ecircumflex" unicode="&#xca;" horiz-adv-x="577" 
d="M238 769h-76l109 175h93l109 -175h-76l-80 111zM537 91v-91h-449v700h439v-91h-337v-213h317v-91h-317v-214h347z" />
    <glyph glyph-name="Edieresis" unicode="&#xcb;" horiz-adv-x="577" 
d="M230 778l-77 76l77 77l76 -77zM403 778l-77 76l77 77l76 -77zM537 91v-91h-449v700h439v-91h-337v-213h317v-91h-317v-214h347z" />
    <glyph glyph-name="Igrave" unicode="&#xcc;" horiz-adv-x="278" 
d="M16 944h109l60 -175h-85zM190 700v-700h-102v700h102z" />
    <glyph glyph-name="Iacute" unicode="&#xcd;" horiz-adv-x="278" 
d="M93 769l60 175h109l-84 -175h-85zM190 700v-700h-102v700h102z" />
    <glyph glyph-name="Icircumflex" unicode="&#xce;" horiz-adv-x="278" 
d="M296 769h-76l-80 111l-79 -111h-76l109 175h93zM88 700h102v-700h-102v700z" />
    <glyph glyph-name="Idieresis" unicode="&#xcf;" horiz-adv-x="278" 
d="M53 778l-77 76l77 77l76 -77zM226 778l-77 76l77 77l76 -77zM190 700v-700h-102v700h102z" />
    <glyph glyph-name="Eth" unicode="&#xd0;" horiz-adv-x="668" 
d="M88 700h254q144 0 214 -81t70 -246q0 -95 -23 -185.5t-63 -148.5q-101 -39 -214 -39h-238v311h-82v79h82v310zM473 112q47 105 47 253q0 128 -44 186t-142 58h-144v-219h75v-79h-75v-220h144q73 0 139 21z" />
    <glyph glyph-name="Ntilde" unicode="&#xd1;" horiz-adv-x="722" 
d="M424 876q29 0 29 36h58q0 -54 -23 -83.5t-58 -29.5q-30 0 -74.5 20.5t-57.5 20.5q-29 0 -29 -36h-58q0 54 22.5 83.5t58.5 29.5q30 0 74.5 -20.5t57.5 -20.5zM533 0l-274 410q-57 85 -77 129l-6 -1q5 -67 5 -144v-394h-93v700h101l274 -412q62 -96 77 -129l6 1
q-6 61 -6 145v395h94v-700h-101z" />
    <glyph glyph-name="Ograve" unicode="&#xd2;" horiz-adv-x="668" 
d="M304 769l-84 175h109l60 -175h-85zM342 716q144 0 214 -85t70 -258q0 -95 -23 -185.5t-63 -148.5q-105 -54 -214 -54q-144 0 -214 85t-70 258q0 95 23 185.5t63 148.5q105 54 214 54zM471 107q49 106 49 258q0 135 -44 195.5t-142 60.5q-72 0 -137 -27q-49 -106 -49 -258
q0 -135 44 -195.5t142 -60.5q72 0 137 27z" />
    <glyph glyph-name="Oacute" unicode="&#xd3;" horiz-adv-x="668" 
d="M382 769h-85l60 175h109zM342 716q144 0 214 -85t70 -258q0 -95 -23 -185.5t-63 -148.5q-105 -54 -214 -54q-144 0 -214 85t-70 258q0 95 23 185.5t63 148.5q105 54 214 54zM471 107q49 106 49 258q0 135 -44 195.5t-142 60.5q-72 0 -137 -27q-49 -106 -49 -258
q0 -135 44 -195.5t142 -60.5q72 0 137 27z" />
    <glyph glyph-name="Ocircumflex" unicode="&#xd4;" horiz-adv-x="668" 
d="M265 769h-76l109 175h93l109 -175h-76l-80 111zM342 716q144 0 214 -85t70 -258q0 -95 -23 -185.5t-63 -148.5q-105 -54 -214 -54q-144 0 -214 85t-70 258q0 95 23 185.5t63 148.5q105 54 214 54zM471 107q49 106 49 258q0 135 -44 195.5t-142 60.5q-72 0 -137 -27
q-49 -106 -49 -258q0 -135 44 -195.5t142 -60.5q72 0 137 27z" />
    <glyph glyph-name="Otilde" unicode="&#xd5;" horiz-adv-x="668" 
d="M279 840q-29 0 -29 -36h-58q0 54 22.5 83.5t58.5 29.5q30 0 74.5 -20.5t57.5 -20.5q29 0 29 36h58q0 -54 -23 -83.5t-58 -29.5q-30 0 -74.5 20.5t-57.5 20.5zM342 716q144 0 214 -85t70 -258q0 -95 -23 -185.5t-63 -148.5q-105 -54 -214 -54q-144 0 -214 85t-70 258
q0 95 23 185.5t63 148.5q105 54 214 54zM471 107q49 106 49 258q0 135 -44 195.5t-142 60.5q-72 0 -137 -27q-49 -106 -49 -258q0 -135 44 -195.5t142 -60.5q72 0 137 27z" />
    <glyph glyph-name="Odieresis" unicode="&#xd6;" horiz-adv-x="668" 
d="M257 778l-77 76l77 77l76 -77zM430 778l-77 76l77 77l76 -77zM342 716q144 0 214 -85t70 -258q0 -95 -23 -185.5t-63 -148.5q-105 -54 -214 -54q-144 0 -214 85t-70 258q0 95 23 185.5t63 148.5q105 54 214 54zM471 107q49 106 49 258q0 135 -44 195.5t-142 60.5
q-72 0 -137 -27q-49 -106 -49 -258q0 -135 44 -195.5t142 -60.5q72 0 137 27z" />
    <glyph glyph-name="multiply" unicode="&#xd7;" horiz-adv-x="514" 
d="M318 314l132 -132l-61 -61l-132 132l-132 -133l-61 62l132 132l-132 132l61 61l132 -132l132 132l61 -61z" />
    <glyph glyph-name="Oslash" unicode="&#xd8;" horiz-adv-x="668" 
d="M500 762l-22 -72q148 -68 148 -317q0 -95 -23 -185.5t-63 -148.5q-105 -54 -214 -54q-31 0 -63 5l-34 -110l-74 24l33 107q-146 68 -146 317q0 95 23 185.5t63 148.5q106 53 214 53q36 0 61 -4l23 75zM148 336q0 -168 71 -223l155 505q-18 3 -40 3q-72 0 -137 -27
q-49 -107 -49 -258zM470 107q50 108 50 258q0 170 -73 225l-156 -507q19 -3 43 -3q73 0 136 27z" />
    <glyph glyph-name="Ugrave" unicode="&#xd9;" horiz-adv-x="710" 
d="M233 944h109l60 -175h-85zM355 -15q-130 0 -198.5 69t-68.5 200v446h102v-438q0 -88 42.5 -135t122.5 -47t122.5 47t42.5 135v438h102v-446q0 -131 -69 -200t-198 -69z" />
    <glyph glyph-name="Uacute" unicode="&#xda;" horiz-adv-x="710" 
d="M310 769l60 175h109l-84 -175h-85zM355 -15q-130 0 -198.5 69t-68.5 200v446h102v-438q0 -88 42.5 -135t122.5 -47t122.5 47t42.5 135v438h102v-446q0 -131 -69 -200t-198 -69z" />
    <glyph glyph-name="Ucircumflex" unicode="&#xdb;" horiz-adv-x="710" 
d="M277 769h-76l109 175h93l109 -175h-76l-80 111zM622 700v-446q0 -131 -69 -200t-198 -69q-130 0 -198.5 69t-68.5 200v446h102v-438q0 -88 42.5 -135t122.5 -47t122.5 47t42.5 135v438h102z" />
    <glyph glyph-name="Udieresis" unicode="&#xdc;" horiz-adv-x="710" 
d="M269 778l-77 76l77 77l76 -77zM442 778l-77 76l77 77l76 -77zM355 -15q-130 0 -198.5 69t-68.5 200v446h102v-438q0 -88 42.5 -135t122.5 -47t122.5 47t42.5 135v438h102v-446q0 -131 -69 -200t-198 -69z" />
    <glyph glyph-name="Yacute" unicode="&#xdd;" horiz-adv-x="597" 
d="M342 769h-85l60 175h109zM350 272v-272h-102v271l-238 429h112l182 -338l181 338h102z" />
    <glyph glyph-name="germandbls" unicode="&#xdf;" horiz-adv-x="625" 
d="M361 383q0 -26 24 -45t58.5 -33t68.5 -32t58 -52t24 -81q0 -61 -27 -108q-20 -21 -64 -34t-86 -13q-77 0 -163 31v85l8 3q83 -32 157 -33q49 0 83 14q4 17 4 37q0 30 -24.5 50t-59.5 34t-70 31.5t-59.5 52t-24.5 84.5q0 32 16.5 61t39.5 49.5l46 39.5t39.5 39t16.5 40
q0 35 -31 55.5t-81 20.5q-143 0 -143 -149v-530h-97v530q0 235 239 235q97 0 153.5 -40t56.5 -111q0 -34 -16.5 -63.5t-40.5 -50t-48 -39t-40.5 -38.5t-16.5 -40z" />
    <glyph glyph-name="agrave" unicode="&#xe0;" horiz-adv-x="513" 
d="M215 563l-84 175h109l60 -175h-85zM442 327v-199q0 -64 25 -119l-4 -9h-96q-7 15 -12 33q-66 -48 -148 -48q-81 0 -125.5 38.5t-44.5 108.5q0 58 29 113q108 28 280 32v35q0 57 -26 81.5t-79 24.5q-70 0 -167 -29l-7 4v85q102 29 190 29q97 0 141 -40.5t44 -139.5z
M227 62q57 0 119 35v117q-125 -5 -204 -19q-11 -24 -11 -51q0 -82 96 -82z" />
    <glyph glyph-name="aacute" unicode="&#xe1;" horiz-adv-x="513" 
d="M293 563h-85l60 175h109zM442 327v-199q0 -64 25 -119l-4 -9h-96q-7 15 -12 33q-66 -48 -148 -48q-81 0 -125.5 38.5t-44.5 108.5q0 58 29 113q108 28 280 32v35q0 57 -26 81.5t-79 24.5q-70 0 -167 -29l-7 4v85q102 29 190 29q97 0 141 -40.5t44 -139.5zM227 62
q57 0 119 35v117q-125 -5 -204 -19q-11 -24 -11 -51q0 -82 96 -82z" />
    <glyph glyph-name="acircumflex" unicode="&#xe2;" horiz-adv-x="513" 
d="M176 563h-76l109 175h93l109 -175h-76l-80 111zM442 327v-199q0 -64 25 -119l-4 -9h-96q-7 15 -12 33q-66 -48 -148 -48q-81 0 -125.5 38.5t-44.5 108.5q0 58 29 113q108 28 280 32v35q0 57 -26 81.5t-79 24.5q-70 0 -167 -29l-7 4v85q102 29 190 29q97 0 141 -40.5
t44 -139.5zM227 62q57 0 119 35v117q-125 -5 -204 -19q-11 -24 -11 -51q0 -82 96 -82z" />
    <glyph glyph-name="atilde" unicode="&#xe3;" horiz-adv-x="513" 
d="M190 634q-29 0 -29 -36h-58q0 54 22.5 83.5t58.5 29.5q30 0 74.5 -20.5t57.5 -20.5q29 0 29 36h58q0 -54 -23 -83.5t-58 -29.5q-30 0 -74.5 20.5t-57.5 20.5zM442 327v-199q0 -64 25 -119l-4 -9h-96q-7 15 -12 33q-66 -48 -148 -48q-81 0 -125.5 38.5t-44.5 108.5
q0 58 29 113q108 28 280 32v35q0 57 -26 81.5t-79 24.5q-70 0 -167 -29l-7 4v85q102 29 190 29q97 0 141 -40.5t44 -139.5zM227 62q57 0 119 35v117q-125 -5 -204 -19q-11 -24 -11 -51q0 -82 96 -82z" />
    <glyph glyph-name="adieresis" unicode="&#xe4;" horiz-adv-x="513" 
d="M168 572l-77 76l77 77l76 -77zM341 572l-77 76l77 77l76 -77zM442 327v-199q0 -64 25 -119l-4 -9h-96q-7 15 -12 33q-66 -48 -148 -48q-81 0 -125.5 38.5t-44.5 108.5q0 58 29 113q108 28 280 32v35q0 57 -26 81.5t-79 24.5q-70 0 -167 -29l-7 4v85q102 29 190 29
q97 0 141 -40.5t44 -139.5zM227 62q57 0 119 35v117q-125 -5 -204 -19q-11 -24 -11 -51q0 -82 96 -82z" />
    <glyph glyph-name="aring" unicode="&#xe5;" horiz-adv-x="513" 
d="M254 556q-44 0 -72.5 28t-28.5 73q0 44 28.5 72.5t72.5 28.5t72.5 -28.5t28.5 -72.5q0 -45 -28.5 -73t-72.5 -28zM254 705q-21 0 -34.5 -14t-13.5 -34q0 -21 13.5 -35t34.5 -14t34.5 14t13.5 35q0 20 -13.5 34t-34.5 14zM442 327v-199q0 -64 25 -119l-4 -9h-96
q-7 15 -12 33q-66 -48 -148 -48q-81 0 -125.5 38.5t-44.5 108.5q0 58 29 113q108 28 280 32v35q0 57 -26 81.5t-79 24.5q-70 0 -167 -29l-7 4v85q102 29 190 29q97 0 141 -40.5t44 -139.5zM227 62q57 0 119 35v117q-125 -5 -204 -19q-11 -24 -11 -51q0 -82 96 -82z" />
    <glyph glyph-name="ae" unicode="&#xe6;" horiz-adv-x="822" 
d="M763 304q0 -40 -8 -80l-314 -4q3 -75 36 -110.5t103 -35.5q82 0 162 30l7 -4v-82q-82 -33 -178 -33q-127 0 -182 72q-82 -72 -187 -72q-78 0 -121.5 38.5t-43.5 108.5q0 58 29 113q102 30 277 38v29q0 57 -25.5 81.5t-77.5 24.5q-70 0 -166 -29l-8 4v85q102 29 190 29
q102 0 143 -44l4 7q83 38 166 38q194 0 194 -204zM668 289v16q0 63 -25 90t-74 27q-56 0 -99 -17q-22 -54 -28 -120zM222 62q77 0 138 50q-16 47 -17 107q-115 -4 -200 -22q-12 -23 -12 -53q0 -82 91 -82z" />
    <glyph glyph-name="ccedilla" unicode="&#xe7;" horiz-adv-x="468" 
d="M267 418q-57 0 -101 -16q-28 -71 -28 -159t32.5 -128.5t103.5 -40.5t141 30l7 -4v-82q-64 -28 -141 -33l-8 -47q107 -12 107 -84q0 -45 -36.5 -70t-98.5 -25q-47 0 -81 9l7 63q37 -8 66 -8q55 0 55 32q0 20 -21 29t-75 12l14 93q-169 26 -169 244q0 140 59 237
q74 37 157 37q89 0 165 -29v-85l-7 -4q-85 29 -148 29z" />
    <glyph glyph-name="egrave" unicode="&#xe8;" horiz-adv-x="516" 
d="M227 563l-84 175h109l60 -175h-85zM463 304q0 -40 -8 -80h-317q4 -78 37 -114t105 -36q81 0 162 30l7 -4v-82q-82 -33 -179 -33q-118 0 -173.5 61.5t-55.5 186.5q0 136 60 237q83 38 167 38q195 0 195 -204zM368 293v12q0 63 -25 90t-75 27q-57 0 -99 -18
q-22 -49 -28 -111h227z" />
    <glyph glyph-name="eacute" unicode="&#xe9;" horiz-adv-x="516" 
d="M305 563h-85l60 175h109zM463 304q0 -40 -8 -80h-317q4 -78 37 -114t105 -36q81 0 162 30l7 -4v-82q-82 -33 -179 -33q-118 0 -173.5 61.5t-55.5 186.5q0 136 60 237q83 38 167 38q195 0 195 -204zM368 293v12q0 63 -25 90t-75 27q-57 0 -99 -18q-22 -49 -28 -111h227z
" />
    <glyph glyph-name="ecircumflex" unicode="&#xea;" horiz-adv-x="516" 
d="M188 563h-76l109 175h93l109 -175h-76l-80 111zM463 304q0 -40 -8 -80h-317q4 -78 37 -114t105 -36q81 0 162 30l7 -4v-82q-82 -33 -179 -33q-118 0 -173.5 61.5t-55.5 186.5q0 136 60 237q83 38 167 38q195 0 195 -204zM368 293v12q0 63 -25 90t-75 27q-57 0 -99 -18
q-22 -49 -28 -111h227z" />
    <glyph glyph-name="edieresis" unicode="&#xeb;" horiz-adv-x="516" 
d="M179 572l-77 76l77 77l76 -77zM352 572l-77 76l77 77l76 -77zM463 304q0 -40 -8 -80h-317q4 -78 37 -114t105 -36q81 0 162 30l7 -4v-82q-82 -33 -179 -33q-118 0 -173.5 61.5t-55.5 186.5q0 136 60 237q83 38 167 38q195 0 195 -204zM368 293v12q0 63 -25 90t-75 27
q-57 0 -99 -18q-22 -49 -28 -111h227z" />
    <glyph glyph-name="igrave" unicode="&#xec;" horiz-adv-x="260" 
d="M7 737h109l60 -175h-85zM180 494v-494h-100v494h100z" />
    <glyph glyph-name="iacute" unicode="&#xed;" horiz-adv-x="260" 
d="M84 562l60 175h109l-84 -175h-85zM180 494v-494h-100v494h100z" />
    <glyph glyph-name="icircumflex" unicode="&#xee;" horiz-adv-x="260" 
d="M287 562h-76l-80 111l-79 -111h-76l109 175h93zM80 494h100v-494h-100v494z" />
    <glyph glyph-name="idieresis" unicode="&#xef;" horiz-adv-x="260" 
d="M44 571l-77 76l77 77l76 -77zM217 571l-77 76l77 77l76 -77zM180 494v-494h-100v494h100z" />
    <glyph glyph-name="ntilde" unicode="&#xf1;" horiz-adv-x="584" 
d="M236 634q-29 0 -29 -36h-58q0 54 22.5 83.5t58.5 29.5q30 0 74.5 -20.5t57.5 -20.5q29 0 29 36h58q0 -54 -23 -83.5t-58 -29.5q-30 0 -74.5 20.5t-57.5 20.5zM338 508q169 0 169 -159v-349h-100v329q0 87 -95 87q-69 0 -132 -49v-367h-100v494h86l9 -38q83 52 163 52z
" />
    <glyph glyph-name="ograve" unicode="&#xf2;" horiz-adv-x="528" 
d="M229 563l-84 175h109l60 -175h-85zM267 508q220 0 220 -248q0 -144 -60 -236q-81 -39 -166 -39q-220 0 -220 248q0 138 60 237q83 38 166 38zM359 91q28 72 28 159q0 170 -120 170q-52 0 -98 -18q-28 -72 -28 -159q0 -170 120 -170q52 0 98 18z" />
    <glyph glyph-name="oacute" unicode="&#xf3;" horiz-adv-x="528" 
d="M307 563h-85l60 175h109zM267 508q220 0 220 -248q0 -144 -60 -236q-81 -39 -166 -39q-220 0 -220 248q0 138 60 237q83 38 166 38zM359 91q28 72 28 159q0 170 -120 170q-52 0 -98 -18q-28 -72 -28 -159q0 -170 120 -170q52 0 98 18z" />
    <glyph glyph-name="ocircumflex" unicode="&#xf4;" horiz-adv-x="528" 
d="M190 563h-76l109 175h93l109 -175h-76l-80 111zM267 508q220 0 220 -248q0 -144 -60 -236q-81 -39 -166 -39q-220 0 -220 248q0 138 60 237q83 38 166 38zM359 91q28 72 28 159q0 170 -120 170q-52 0 -98 -18q-28 -72 -28 -159q0 -170 120 -170q52 0 98 18z" />
    <glyph glyph-name="otilde" unicode="&#xf5;" horiz-adv-x="528" 
d="M204 634q-29 0 -29 -36h-58q0 54 22.5 83.5t58.5 29.5q30 0 74.5 -20.5t57.5 -20.5q29 0 29 36h58q0 -54 -23 -83.5t-58 -29.5q-30 0 -74.5 20.5t-57.5 20.5zM267 508q220 0 220 -248q0 -144 -60 -236q-81 -39 -166 -39q-220 0 -220 248q0 138 60 237q83 38 166 38z
M359 91q28 72 28 159q0 170 -120 170q-52 0 -98 -18q-28 -72 -28 -159q0 -170 120 -170q52 0 98 18z" />
    <glyph glyph-name="odieresis" unicode="&#xf6;" horiz-adv-x="528" 
d="M181 572l-77 76l77 77l76 -77zM354 572l-77 76l77 77l76 -77zM267 508q220 0 220 -248q0 -144 -60 -236q-81 -39 -166 -39q-220 0 -220 248q0 138 60 237q83 38 166 38zM359 91q28 72 28 159q0 170 -120 170q-52 0 -98 -18q-28 -72 -28 -159q0 -170 120 -170q52 0 98 18z
" />
    <glyph glyph-name="divide" unicode="&#xf7;" horiz-adv-x="576" 
d="M288 418l-77 76l77 77l77 -77zM508 270h-440v87h440v-87zM288 63l-77 76l77 77l77 -77z" />
    <glyph glyph-name="oslash" unicode="&#xf8;" horiz-adv-x="528" 
d="M385 563l-21 -70q123 -46 123 -233q0 -144 -60 -236q-81 -39 -166 -39q-27 0 -49 3l-26 -86l-54 19l25 82q-116 49 -116 230q0 138 60 237q83 38 166 38q15 0 43 -2l22 73zM141 243q0 -106 45 -145l97 321l-16 1q-52 0 -98 -18q-28 -72 -28 -159zM359 91q28 72 28 159
q0 112 -51 150l-98 -325q14 -2 23 -2q52 0 98 18z" />
    <glyph glyph-name="ugrave" unicode="&#xf9;" horiz-adv-x="584" 
d="M251 563l-84 175h109l60 -175h-85zM504 494v-494h-86l-8 39q-83 -54 -164 -54q-169 0 -169 160v349h100v-329q0 -88 95 -88q69 0 132 49v368h100z" />
    <glyph glyph-name="uacute" unicode="&#xfa;" horiz-adv-x="584" 
d="M329 563h-85l60 175h109zM504 494v-494h-86l-8 39q-83 -54 -164 -54q-169 0 -169 160v349h100v-329q0 -88 95 -88q69 0 132 49v368h100z" />
    <glyph glyph-name="ucircumflex" unicode="&#xfb;" horiz-adv-x="584" 
d="M212 563h-76l109 175h93l109 -175h-76l-80 111zM504 494v-494h-86l-8 39q-83 -54 -164 -54q-169 0 -169 160v349h100v-329q0 -88 95 -88q69 0 132 49v368h100z" />
    <glyph glyph-name="udieresis" unicode="&#xfc;" horiz-adv-x="584" 
d="M204 572l-77 76l77 77l76 -77zM377 572l-77 76l77 77l76 -77zM504 494v-494h-86l-8 39q-83 -54 -164 -54q-169 0 -169 160v349h100v-329q0 -88 95 -88q69 0 132 49v368h100z" />
    <glyph glyph-name="yacute" unicode="&#xfd;" horiz-adv-x="465" 
d="M276 559h-85l60 175h109zM469 494l-261 -740h-99l87 246h-29l-165 494h107l124 -389l137 389h99z" />
    <glyph glyph-name="ydieresis" unicode="&#xff;" horiz-adv-x="465" 
d="M151 568l-77 76l77 77l76 -77zM324 568l-77 76l77 77l76 -77zM469 494l-261 -740h-99l87 246h-29l-165 494h107l124 -389l137 389h99z" />
    <glyph glyph-name="dotlessi" unicode="&#x131;" horiz-adv-x="260" 
d="M180 494v-494h-100v494h100z" />
    <glyph glyph-name="Ldot" unicode="&#x13f;" horiz-adv-x="532" 
d="M508 91v-91h-420v700h102v-609h318zM364 291l-77 76l77 77l76 -77z" />
    <glyph glyph-name="ldot" unicode="&#x140;" horiz-adv-x="248" 
d="M174 750v-750h-100v750h100zM278 299l-77 76l77 77l76 -77z" />
    <glyph glyph-name="OE" unicode="&#x152;" horiz-adv-x="1010" 
d="M970 91v-91h-457v26q-89 -41 -187 -41q-144 0 -214 85t-70 258q0 95 23 185.5t63 148.5q105 54 214 54q107 0 171 -49v33h447v-91h-337v-213h317v-91h-317v-214h347zM148 336q0 -135 44 -195.5t142 -60.5q72 0 137 27q49 106 49 258q0 135 -44 195.5t-142 60.5
q-72 0 -137 -27q-49 -106 -49 -258z" />
    <glyph glyph-name="oe" unicode="&#x153;" horiz-adv-x="862" 
d="M486 224l-2 -17q6 -68 39.5 -100.5t101.5 -32.5q82 0 162 30l8 -4v-82q-83 -33 -180 -33q-119 0 -174 63q-11 -20 -14 -24q-81 -39 -166 -39q-220 0 -220 248q0 138 60 237q83 38 166 38q111 0 167 -63q6 15 13 25q83 38 167 38q195 0 195 -204q0 -40 -8 -80h-315z
M513 404q-20 -52 -27 -109v-2h228v12q0 63 -25 90t-75 27q-59 0 -101 -18zM141 243q0 -170 120 -170q52 0 98 18q28 72 28 159q0 170 -120 170q-52 0 -98 -18q-28 -72 -28 -159z" />
    <glyph glyph-name="Wcircumflex" unicode="&#x174;" horiz-adv-x="971" 
d="M412 769h-76l109 175h93l109 -175h-76l-80 111zM949 700l-197 -700h-119l-149 550l-148 -550h-119l-195 700h108l153 -576l152 576h111l152 -569l153 569h98z" />
    <glyph glyph-name="wcircumflex" unicode="&#x175;" horiz-adv-x="762" 
d="M307 563h-76l109 175h93l109 -175h-76l-80 111zM766 494l-148 -494h-135l-104 382l-106 -382h-130l-141 494h107l106 -397l111 397h125l105 -397l111 397h99z" />
    <glyph glyph-name="Ycircumflex" unicode="&#x176;" horiz-adv-x="597" 
d="M225 769h-76l109 175h93l109 -175h-76l-80 111zM350 272v-272h-102v271l-238 429h112l182 -338l181 338h102z" />
    <glyph glyph-name="ycircumflex" unicode="&#x177;" horiz-adv-x="465" 
d="M159 559h-76l109 175h93l109 -175h-76l-80 111zM469 494l-261 -740h-99l87 246h-29l-165 494h107l124 -389l137 389h99z" />
    <glyph glyph-name="Ydieresis" unicode="&#x178;" horiz-adv-x="597" 
d="M217 778l-77 76l77 77l76 -77zM390 778l-77 76l77 77l76 -77zM350 272v-272h-102v271l-238 429h112l182 -338l181 338h102z" />
    <glyph glyph-name="circumflex" unicode="&#x2c6;" horiz-adv-x="362" 
d="M262 563l-80 111l-79 -111h-76l109 175h93l109 -175h-76z" />
    <glyph glyph-name="caron" unicode="&#x2c7;" horiz-adv-x="360" 
d="M338 722l-109 -175h-93l-109 175h76l79 -111l80 111h76z" />
    <glyph glyph-name="breve" unicode="&#x2d8;" horiz-adv-x="330" 
d="M17 720h64q7 -44 28.5 -67.5t55.5 -23.5t55.5 23.5t28.5 67.5h65q-7 -75 -45 -121t-104 -46t-103.5 45.5t-44.5 121.5z" />
    <glyph glyph-name="dotaccent" unicode="&#x2d9;" horiz-adv-x="193" 
d="M97 572l-77 76l77 77l76 -77z" />
    <glyph glyph-name="ring" unicode="&#x2da;" horiz-adv-x="274" 
d="M137 556q-44 0 -72.5 28t-28.5 73q0 44 28.5 72.5t72.5 28.5t72.5 -28.5t28.5 -72.5q0 -45 -28.5 -73t-72.5 -28zM137 608q21 0 34.5 14t13.5 35q0 20 -13.5 34t-34.5 14t-34.5 -14t-13.5 -34q0 -21 13.5 -35t34.5 -14z" />
    <glyph glyph-name="ogonek" unicode="&#x2db;" horiz-adv-x="600" 
 />
    <glyph glyph-name="tilde" unicode="&#x2dc;" horiz-adv-x="347" 
d="M236 670q29 0 29 36h58q0 -54 -23 -83.5t-58 -29.5q-30 0 -74.5 20.5t-57.5 20.5q-29 0 -29 -36h-58q0 54 22.5 83.5t58.5 29.5q30 0 74.5 -20.5t57.5 -20.5z" />
    <glyph glyph-name="hungarumlaut" unicode="&#x2dd;" horiz-adv-x="421" 
d="M252 637l-28 -74h-88l60 175h105z" />
    <glyph glyph-name="uni060C" unicode="&#x60c;" horiz-adv-x="233" 
d="M174 287l-43 -158l51 -94l-86 -44q-47 66 -47 105q0 28 26.5 92t57.5 116z" />
    <glyph glyph-name="uni061B" unicode="&#x61b;" horiz-adv-x="254" 
d="M188 504l-43 -158l50 -95l-85 -44q-47 65 -47 106q0 28 27 92.5t57 115.5zM133 -21l-77 76l77 77l76 -77z" />
    <glyph glyph-name="uni061F" unicode="&#x61f;" horiz-adv-x="512" 
d="M243 716q-90 0 -143 -46.5t-53 -126.5q0 -42 18.5 -77.5t45.5 -61l53.5 -50.5t45 -59t18.5 -75v-34h96v38q0 47 -17.5 87.5t-42.5 68t-50.5 52t-43 51t-17.5 52.5q0 41 27.5 63.5t76.5 22.5q77 0 164 -38l7 4v91q-91 38 -185 38zM273 132l76 -77l-76 -76l-77 76z" />
    <glyph glyph-name="uni0621" unicode="&#x621;" horiz-adv-x="446" 
d="M380 106l11 -89q-82 -17 -182 -17h-165v94h83q-38 51 -38 106q0 62 31 127q55 34 137 34q48 0 101 -15l-1 -84l-4 -4q-53 10 -107 10q-38 0 -71 -9q-6 -24 -6 -50q0 -64 42 -115q101 0 169 12z" />
    <glyph glyph-name="uni0622" unicode="&#x622;" horiz-adv-x="262" 
d="M150 755q-40 0 -80 36q-25 -15 -75 -58h-6l-19 46q52 48 92 73h6q41 -38 90 -38q17 0 45.5 9.5t47.5 21.5h6l14 -48q-61 -42 -121 -42zM86 683h90v-683h-90v683z" />
    <glyph glyph-name="uni0623" unicode="&#x623;" horiz-adv-x="262" 
d="M228 815l8 -51q-46 -12 -110 -12h-97v56l50 -2q-19 25 -19 51q0 37 18 71q37 13 76 13q29 0 59 -7l-5 -50q-32 4 -62 4q-15 0 -33 -3q-2 -6 -2 -22q0 -35 20 -58q57 0 92 12zM86 683h90v-683h-90v683z" />
    <glyph glyph-name="uni0624" unicode="&#x624;" horiz-adv-x="526" 
d="M345 576l8 -51q-46 -12 -110 -12h-97v56l50 -2q-19 25 -19 51q0 37 18 71q37 13 76 13q29 0 59 -7l-5 -50q-32 4 -62 4q-15 0 -33 -3q-2 -6 -2 -22q0 -35 20 -58q57 0 92 12zM271 423q64 0 110.5 -54.5t66.5 -130t20 -158.5q0 -296 -241 -296q-68 0 -130 29l-16 87l7 6
q69 -24 152 -24q61 0 94.5 25t43.5 89q-218 20 -318 155q26 118 85 195t126 77zM149 184q80 -80 234 -91q-3 60 -16 108.5t-41.5 83t-67.5 34.5q-29 0 -59.5 -38t-49.5 -97z" />
    <glyph glyph-name="uni0625" unicode="&#x625;" horiz-adv-x="262" 
d="M176 0h-90v750h90v-750zM223 -190l8 -51q-46 -12 -110 -12h-97v56l50 -2q-19 25 -19 51q0 37 18 71q37 13 76 13q29 0 59 -7l-5 -50q-32 4 -62 4q-15 0 -33 -3q-2 -6 -2 -22q0 -35 20 -58q57 0 92 12z" />
    <glyph glyph-name="uni0626" unicode="&#x626;" horiz-adv-x="824" 
d="M224 453l8 -51q-46 -12 -110 -12h-97v56l50 -2q-19 25 -19 51q0 37 18 71q37 13 76 13q29 0 59 -7l-5 -50q-32 4 -62 4q-15 0 -33 -3q-2 -6 -2 -22q0 -35 20 -58q57 0 92 12zM605 236q80 -34 120 -67.5t40 -85.5q0 -48 -18 -99q-159 -76 -363 -76q-163 0 -242.5 69.5
t-79.5 185.5q0 74 24 146l73 14l5 -5q-17 -68 -17 -125q-2 -184 259 -184q163 0 274 42l1 14q0 21 -30 43t-98 54q-71 34 -106 66.5t-35 85.5q0 57 31 116q76 41 170 41q61 0 127 -19l-1 -96l-5 -3q-75 18 -132 18q-58 0 -103 -14q-2 -9 -2 -25q0 -29 23 -48.5t85 -47.5z
" />
    <glyph glyph-name="uni0627" unicode="&#x627;" horiz-adv-x="262" 
d="M176 0h-90v750h90v-750z" />
    <glyph glyph-name="uni0628" unicode="&#x628;" horiz-adv-x="857" 
d="M780 401v-401h-463q-263 0 -263 222q0 59 23 126l69 14l7 -6q-15 -66 -15 -112q0 -74 44 -108t158 -34h350v299h90zM445 -77l67 -80l-83 -69l-67 80z" />
    <glyph glyph-name="uni0629" unicode="&#x629;" horiz-adv-x="494" 
d="M163 503l-66 77l83 69l59 -70l83 69l65 -77l-83 -69l-59 70zM250 458h9q116 -197 182 -327l-37 -104q-81 -42 -169 -42q-84 0 -133.5 41.5t-49.5 103.5q0 64 42 119.5t114 111.5q-17 24 -27 40zM137 155q0 -30 31 -49.5t83 -19.5q54 0 105 21l-107 188q-46 -31 -79 -69
t-33 -71z" />
    <glyph glyph-name="uni062A" unicode="&#x62a;" horiz-adv-x="857" 
d="M356 423l-66 77l83 69l59 -70l83 69l65 -77l-83 -69l-59 70zM780 401v-401h-463q-263 0 -263 222q0 59 23 126l69 14l7 -6q-15 -66 -15 -112q0 -74 44 -108t158 -34h350v299h90z" />
    <glyph glyph-name="uni062B" unicode="&#x62b;" horiz-adv-x="857" 
d="M431 546l-63 76l80 67l63 -76zM354 413l-65 77l82 69l64 -77zM433 489l82 68l64 -77l-81 -68zM780 401v-401h-463q-263 0 -263 222q0 59 23 126l69 14l7 -6q-15 -66 -15 -112q0 -74 44 -108t158 -34h350v299h90z" />
    <glyph glyph-name="uni062C" unicode="&#x62c;" horiz-adv-x="602" 
d="M568 255l-24 -94q-263 -35 -396 -111q-16 -44 -16 -86q0 -68 42.5 -98.5t126.5 -30.5q91 0 206 39l7 -3v-84q-114 -52 -235 -52q-107 0 -169.5 55.5t-62.5 152.5q0 89 40 172q143 87 379 124q-157 120 -249 120q-52 0 -108 -19l-8 5v88q66 29 129 29q60 0 141.5 -52.5
t196.5 -154.5zM249 -19l80 66l62 -75l-79 -65z" />
    <glyph glyph-name="uni062D" unicode="&#x62d;" horiz-adv-x="602" 
d="M568 255l-24 -94q-263 -35 -396 -111q-16 -44 -16 -86q0 -68 42.5 -98.5t126.5 -30.5q91 0 206 39l7 -3v-84q-114 -52 -235 -52q-107 0 -169.5 55.5t-62.5 152.5q0 89 40 172q143 87 379 124q-157 120 -249 120q-52 0 -108 -19l-8 5v88q66 29 129 29q60 0 141.5 -52.5
t196.5 -154.5z" />
    <glyph glyph-name="uni062E" unicode="&#x62e;" horiz-adv-x="602" 
d="M244 562l-66 78l84 69l65 -78zM568 255l-24 -94q-263 -35 -396 -111q-16 -44 -16 -86q0 -68 42.5 -98.5t126.5 -30.5q91 0 206 39l7 -3v-84q-114 -52 -235 -52q-107 0 -169.5 55.5t-62.5 152.5q0 89 40 172q143 87 379 124q-157 120 -249 120q-52 0 -108 -19l-8 5v88
q66 29 129 29q60 0 141.5 -52.5t196.5 -154.5z" />
    <glyph glyph-name="uni062F" unicode="&#x62f;" horiz-adv-x="505" 
d="M238 474h11q163 -203 200 -378l-53 -96h-328l-24 93l8 9h307q-49 137 -187 306z" />
    <glyph glyph-name="uni0630" unicode="&#x630;" horiz-adv-x="505" 
d="M177 541l-66 78l84 69l65 -78zM238 474h11q163 -203 200 -378l-53 -96h-328l-24 93l8 9h307q-49 137 -187 306z" />
    <glyph glyph-name="uni0631" unicode="&#x631;" horiz-adv-x="311" 
d="M248 368v-346q0 -238 -182 -238q-39 0 -75 17l-16 87l7 6q39 -12 88 -12q45 0 67 28.5t22 94.5v363h89z" />
    <glyph glyph-name="uni0632" unicode="&#x632;" horiz-adv-x="311" 
d="M276 559l-83 -69l-66 78l84 69zM248 368v-346q0 -238 -182 -238q-39 0 -75 17l-16 87l7 6q39 -12 88 -12q45 0 67 28.5t22 94.5v363h89z" />
    <glyph glyph-name="uni0633" unicode="&#x633;" horiz-adv-x="1122" 
d="M1062 100l-63 -100q-132 0 -230 58l-39 -58q-103 0 -179 48v-146q-121 -63 -234 -63q-129 0 -196 70t-67 192q0 72 27 155l72 12l5 -5q-19 -72 -19 -137q0 -92 46 -139t153 -47q64 0 124 18v397h89v-225q62 -27 150 -28l33 253h90l-30 -228q67 -23 176 -25
q-13 99 -48 286l90 20q38 -195 50 -308z" />
    <glyph glyph-name="uni0634" unicode="&#x634;" horiz-adv-x="1122" 
d="M755 584l-63 76l80 67l63 -76zM678 451l-65 77l82 69l64 -77zM757 527l82 68l64 -77l-81 -68zM1062 100l-63 -100q-132 0 -230 58l-39 -58q-103 0 -179 48v-146q-121 -63 -234 -63q-129 0 -196 70t-67 192q0 72 27 155l72 12l5 -5q-19 -72 -19 -137q0 -92 46 -139
t153 -47q64 0 124 18v397h89v-225q62 -27 150 -28l33 253h90l-30 -228q67 -23 176 -25q-13 99 -48 286l90 20q38 -195 50 -308z" />
    <glyph glyph-name="uni0635" unicode="&#x635;" horiz-adv-x="1102" 
d="M973 0h-411v-98q-121 -63 -234 -63q-129 0 -196 70t-67 192q0 72 27 155l71 12l6 -5q-19 -72 -19 -137q0 -92 45.5 -139t152.5 -47q65 0 125 18v397h89v-85q190 153 282 153q64 0 109.5 -50t65.5 -121.5t20 -153.5zM562 102h392q-7 96 -38.5 157t-91.5 61
q-78 0 -262 -136v-82z" />
    <glyph glyph-name="uni0636" unicode="&#x636;" horiz-adv-x="1102" 
d="M691 493l-66 78l84 69l65 -78zM973 0h-411v-98q-121 -63 -234 -63q-129 0 -196 70t-67 192q0 72 27 155l71 12l6 -5q-19 -72 -19 -137q0 -92 45.5 -139t152.5 -47q65 0 125 18v397h89v-85q190 153 282 153q64 0 109.5 -50t65.5 -121.5t20 -153.5zM562 102h392
q-7 96 -38.5 157t-91.5 61q-78 0 -262 -136v-82z" />
    <glyph glyph-name="uni0637" unicode="&#x637;" horiz-adv-x="799" 
d="M539 423q63 0 108.5 -49.5t66 -121.5t19.5 -154l-66 -98h-603l-42 91l5 11h141v648h89l-1 -481q191 154 283 154zM256 102h393q-5 62 -18.5 108.5t-42 78t-69.5 31.5q-81 0 -263 -136v-82z" />
    <glyph glyph-name="uni0638" unicode="&#x638;" horiz-adv-x="799" 
d="M539 423q63 0 108.5 -49.5t66 -121.5t19.5 -154l-66 -98h-603l-42 91l5 11h141v648h89l-1 -481q191 154 283 154zM430 537l-66 78l84 69l65 -78zM256 102h393q-5 62 -18.5 108.5t-42 78t-69.5 31.5q-81 0 -263 -136v-82z" />
    <glyph glyph-name="uni0639" unicode="&#x639;" horiz-adv-x="555" 
d="M523 -128v-84q-108 -51 -236 -51q-110 0 -172.5 54.5t-62.5 150.5q0 73 40 163q44 24 120 51q-116 58 -140 181q28 92 99 139.5t155 47.5q50 0 95 -13v-96l-6 -4q-43 10 -97 10q-43 0 -87 -18.5t-71 -54.5q12 -61 56.5 -102.5t104.5 -54.5q79 17 146 29l7 -5l-1 -83
q-207 -42 -321 -90q-15 -38 -15 -81q0 -126 168 -126q97 0 211 40z" />
    <glyph glyph-name="uni063A" unicode="&#x63a;" horiz-adv-x="555" 
d="M251 610l-66 78l84 69l65 -78zM523 -128v-84q-108 -51 -236 -51q-110 0 -172.5 54.5t-62.5 150.5q0 73 40 163q44 24 120 51q-116 58 -140 181q28 92 99 139.5t155 47.5q50 0 95 -13v-96l-6 -4q-43 10 -97 10q-43 0 -87 -18.5t-71 -54.5q12 -61 56.5 -102.5t104.5 -54.5
q79 17 146 29l7 -5l-1 -83q-207 -42 -321 -90q-15 -38 -15 -81q0 -126 168 -126q97 0 211 40z" />
    <glyph glyph-name="uni0640" unicode="&#x640;" horiz-adv-x="162" 
d="M0 102h162q14 0 14 -14v-74q0 -14 -14 -14h-162q-14 0 -14 14v74q0 14 14 14z" />
    <glyph glyph-name="uni0641" unicode="&#x641;" horiz-adv-x="950" 
d="M670 591l-66 78l84 69l65 -78zM690 527q50 2 90 -31.5t62 -86t33.5 -106.5t11.5 -100q0 -111 -21 -203h-547q-264 0 -264 224q0 53 21 129l70 10l7 -5q-16 -62 -16 -112q0 -73 44 -108.5t158 -35.5h464q2 28 2 46q-199 -2 -308 94q11 111 67 196.5t126 88.5zM580 285
q69 -52 221 -50q-10 80 -41.5 135.5t-79.5 52.5q-29 -2 -58.5 -42t-41.5 -96z" />
    <glyph glyph-name="uni0642" unicode="&#x642;" horiz-adv-x="762" 
d="M424 481l-66 77l84 69l59 -69l82 68l65 -77l-82 -69l-60 70zM516 387q51 0 91.5 -32.5t62.5 -83.5t33.5 -105.5t11.5 -106.5q0 -112 -38 -227q-134 -68 -300 -68q-151 0 -237 64t-86 199q0 61 27 150l70 15l6 -5q-18 -74 -18 -131q0 -102 61 -146.5t200 -44.5
q127 0 211 30q15 50 18 107q-92 1 -174.5 29t-135.5 81q11 105 69 190t128 85zM404 155q75 -54 222 -54q-11 78 -42.5 130t-79.5 52q-28 0 -57.5 -37.5t-42.5 -90.5z" />
    <glyph glyph-name="uni0643" unicode="&#x643;" horiz-adv-x="859" 
d="M780 750v-750h-463q-263 0 -263 222q0 59 23 126l69 14l7 -6q-15 -66 -15 -112q0 -74 44 -108t158 -34h350v648h90zM511 498l8 -51q-54 -12 -110 -12h-97v56l51 -2q-20 24 -20 51q0 37 18 71q37 13 76 13q20 0 59 -6l-5 -51q-32 4 -62 4q-15 0 -33 -3q-2 -6 -2 -22
q0 -35 20 -58q62 1 92 12z" />
    <glyph glyph-name="uni0644" unicode="&#x644;" horiz-adv-x="642" 
d="M558 750v-864q-120 -63 -235 -63q-130 0 -198.5 68t-68.5 197q0 70 28 152l72 13l5 -5q-20 -76 -20 -136q0 -96 47 -142t158 -46q65 0 122 18v808h90z" />
    <glyph glyph-name="uni0645" unicode="&#x645;" horiz-adv-x="528" 
d="M324 408q61 0 102.5 -59t41.5 -149q0 -71 -33 -145l-69 -66l-227 82l-19 -46l89 -254l-80 -36h-7l-94 287l32.5 79.5t37 83t47 86t51.5 68t61.5 52t66.5 17.5zM305 307q-31 0 -61 -37t-69 -119l190 -67q18 45 18 100q0 54 -22.5 88.5t-55.5 34.5z" />
    <glyph glyph-name="uni0646" unicode="&#x646;" horiz-adv-x="623" 
d="M284 342l-66 78l84 69l65 -78zM551 355v-453q-121 -63 -234 -63q-129 0 -196 70t-67 192q0 72 27 155l72 12l5 -5q-19 -72 -19 -137q0 -92 46 -139t153 -47q64 0 124 18v397h89z" />
    <glyph glyph-name="uni0647" unicode="&#x647;" horiz-adv-x="494" 
d="M250 458h9q116 -197 182 -327l-37 -104q-81 -42 -169 -42q-84 0 -133.5 41.5t-49.5 103.5q0 64 42 119.5t114 111.5q-17 24 -27 40zM137 155q0 -30 31 -49.5t83 -19.5q54 0 105 21l-107 188q-46 -31 -79 -69t-33 -71z" />
    <glyph glyph-name="uni0648" unicode="&#x648;" horiz-adv-x="526" 
d="M271 423q64 0 110.5 -54.5t66.5 -130t20 -158.5q0 -296 -241 -296q-68 0 -130 29l-16 87l7 6q69 -24 152 -24q61 0 94.5 25t43.5 89q-218 20 -318 155q26 118 85 195t126 77zM149 184q80 -80 234 -91q-3 60 -16 108.5t-41.5 83t-67.5 34.5q-29 0 -59.5 -38t-49.5 -97z
" />
    <glyph glyph-name="uni0649" unicode="&#x649;" horiz-adv-x="824" 
d="M605 236q80 -34 120 -67.5t40 -85.5q0 -48 -18 -99q-159 -76 -363 -76q-163 0 -242.5 69.5t-79.5 185.5q0 74 24 146l73 14l5 -5q-17 -68 -17 -125q-2 -184 259 -184q163 0 274 42l1 14q0 21 -30 43t-98 54q-71 34 -106 66.5t-35 85.5q0 57 31 116q76 41 170 41
q61 0 127 -19l-1 -96l-5 -3q-75 18 -132 18q-58 0 -103 -14q-2 -9 -2 -25q0 -29 23 -48.5t85 -47.5z" />
    <glyph glyph-name="uni064A" unicode="&#x64a;" horiz-adv-x="824" 
d="M605 236q80 -34 120 -67.5t40 -85.5q0 -48 -18 -99q-159 -76 -363 -76q-163 0 -242.5 69.5t-79.5 185.5q0 74 24 146l73 14l5 -5q-17 -68 -17 -125q-2 -184 259 -184q163 0 274 42l1 14q0 21 -30 43t-98 54q-71 34 -106 66.5t-35 85.5q0 57 31 116q76 41 170 41
q61 0 127 -19l-1 -96l-5 -3q-75 18 -132 18q-58 0 -103 -14q-2 -9 -2 -25q0 -29 23 -48.5t85 -47.5zM333 -159l66 -80l-83 -69l-66 80zM482 -159l66 -80l-82 -69l-67 80z" />
    <glyph glyph-name="uni064B" unicode="&#x64b;" 
d="M74 966l-233 -88v47l233 89v-48zM69 873l-232 -88v47l232 89v-48z" />
    <glyph glyph-name="uni064C" unicode="&#x64c;" 
d="M29 1001q22 0 35.5 -19.5t13.5 -48.5q0 -50 -38.5 -90.5t-83.5 -40.5q-28 0 -44.5 23t-18.5 54q-37 -64 -42 -79l-7 -3l-26 29q4 13 25.5 49t39.5 58h38q-1 -49 10.5 -64.5t36.5 -15.5q20 0 38 12q-57 2 -57 46q0 31 26 60.5t54 29.5zM-9 920q0 -20 43 -21q3 9 3 20
q0 12 -5.5 21t-14.5 9q-8 0 -17 -9.5t-9 -19.5z" />
    <glyph glyph-name="uni064D" unicode="&#x64d;" 
d="M76 -256l-233 -88v47l233 90v-49zM71 -349l-232 -88v47l232 90v-49z" />
    <glyph glyph-name="uni064E" unicode="&#x64e;" 
d="M69 873l-232 -88v47l232 89v-48z" />
    <glyph glyph-name="uni064F" unicode="&#x64f;" 
d="M-7 1011q24 0 39.5 -24t15.5 -52q0 -58 -49 -95.5t-129 -46.5l-16 45l5 6q85 7 118 30q-27 0 -45.5 12t-18.5 32q0 31 28 62t52 31zM-42 928q0 -19 45 -18q2 10 2 15q0 13 -6.5 23.5t-14.5 10.5q-9 0 -17.5 -10t-8.5 -21z" />
    <glyph glyph-name="uni0650" unicode="&#x650;" 
d="M76 -256l-233 -88v47l233 90v-49z" />
    <glyph glyph-name="uni0651" unicode="&#x651;" 
d="M9 941l37 16q15 -38 15 -66q0 -38 -20.5 -60t-49.5 -22q-26 0 -48 18q-26 -31 -60 -31q-21 0 -35.5 14t-14.5 43q0 25 18 65l33 10l5 -4q-14 -31 -14 -53q0 -23 21 -23q15 0 26.5 17.5t12.5 51.5l32 12l5 -3q1 -28 -5 -55q14 -10 32 -10q8 0 15 6.5t7 17.5q0 30 -12 56z
" />
    <glyph glyph-name="uni0652" unicode="&#x652;" 
d="M-54 802q-26 0 -43 17.5t-17 40.5q0 35 29.5 67.5t44.5 32.5q20 0 43.5 -24.5t23.5 -53.5q0 -32 -24 -56t-57 -24zM-14 873q0 10 -14 22.5t-23 12.5q-2 0 -6.5 -4t-9 -12.5t-4.5 -17.5q0 -19 26 -19q11 0 21 5t10 13z" />
    <glyph glyph-name="uni0653" unicode="&#x653;" 
d="M148 789l14 -48q-61 -42 -121 -42q-40 0 -80 36q-25 -15 -75 -58h-6l-19 46q52 48 92 73h6q41 -38 90 -38q17 0 45.5 9.5t47.5 21.5h6z" />
    <glyph glyph-name="uni0654" unicode="&#x654;" 
d="M101 762l8 -51q-46 -12 -110 -12h-97v56l50 -2q-19 25 -19 51q0 37 18 71q37 13 76 13q29 0 59 -7l-5 -50q-32 4 -62 4q-15 0 -33 -3q-2 -6 -2 -22q0 -35 20 -58q57 0 92 12z" />
    <glyph glyph-name="uni0655" unicode="&#x655;" 
d="M101 -150l8 -51q-46 -12 -110 -12h-97v56l50 -2q-19 25 -19 51q0 37 18 71q37 13 76 13q29 0 59 -7l-5 -50q-32 4 -62 4q-15 0 -33 -3q-2 -6 -2 -22q0 -35 20 -58q57 0 92 12z" />
    <glyph glyph-name="uni0656" unicode="&#x656;" 
d="M-29 -342l-35 -6l-12 123l42 18l5 -1v-134z" />
    <glyph glyph-name="uni0660" unicode="&#x660;" horiz-adv-x="315" 
d="M153 166l92 87l-83 90l-92 -88z" />
    <glyph glyph-name="uni0661" unicode="&#x661;" horiz-adv-x="274" 
d="M184 0h-94v706h94v-706z" />
    <glyph glyph-name="uni0662" unicode="&#x662;" horiz-adv-x="514" 
d="M293 713q75 0 171 -14l-12 -101q-78 12 -166 12q-63 0 -119 -13l93 -597h-98l-90 587l59 102q80 24 162 24z" />
    <glyph glyph-name="uni0663" unicode="&#x663;" horiz-adv-x="654" 
d="M496 705l86 17q22 -71 22 -139q0 -52 -39 -149q-34 -12 -79 -12q-50 0 -107 44l-18 -28q-29 -15 -68 -15q-36 0 -88 27l66 -450h-95l-104 696l7 9h89l25 -168q44 -15 111 -15h3v183h93v-171q49 -13 96 -13l18 1q2 22 2 38q0 65 -20 145z" />
    <glyph glyph-name="uni0664" unicode="&#x664;" horiz-adv-x="580" 
d="M530 108l16 -95q-90 -28 -217 -28q-146 0 -219 36l-27 102q35 51 100.5 109t135.5 101q-154 22 -246 68l-1 103q92 97 263 214h9l45 -70q-156 -107 -229 -178q120 -46 276 -51l12 -103q-180 -106 -269 -213q59 -15 163 -15q88 0 188 20z" />
    <glyph glyph-name="uni0665" unicode="&#x665;" horiz-adv-x="560" 
d="M251 557h12q111 -83 171.5 -182.5t60.5 -177.5q0 -94 -61 -152t-161 -58q-92 0 -150.5 51.5t-58.5 133.5q0 133 150 302zM279 89q54 0 89 27t35 70q0 53 -35 119.5t-94 117.5q-60 -60 -89 -121.5t-29 -106.5q0 -49 32.5 -77.5t90.5 -28.5z" />
    <glyph glyph-name="uni0666" unicode="&#x666;" horiz-adv-x="512" 
d="M342 0l-59 616q-52 -16 -121 -16q-80 0 -145 15l-13 95l6 5q67 -12 170 -12q86 0 178 19l9 -6l73 -716h-98z" />
    <glyph glyph-name="uni0667" unicode="&#x667;" horiz-adv-x="602" 
d="M559 700l-206 -700h-104l-207 700l6 6h100l153 -578l154 578h100z" />
    <glyph glyph-name="uni0668" unicode="&#x668;" horiz-adv-x="599" 
d="M456 0l-164 560l-146 -560h-102l197 695l102 22l8 -6l206 -711h-101z" />
    <glyph glyph-name="uni0669" unicode="&#x669;" horiz-adv-x="547" 
d="M475 0h-98q-24 239 -37 346q-52 -19 -99 -19q-55 0 -111 17t-92 50q14 141 75 231t129 90q140 0 175 -236q20 -129 58 -479zM253 428q37 0 74 9l-3 25q-22 154 -93 154q-31 0 -59.5 -43.5t-44.5 -120.5q46 -24 126 -24z" />
    <glyph glyph-name="uni066A" unicode="&#x66a;" horiz-adv-x="631" 
d="M492 700h95l-452 -700h-95zM130 532l-77 76l77 77l76 -77zM510 23l-76 76l76 77l77 -77z" />
    <glyph glyph-name="decimalseparatorpersian" unicode="&#x66b;" horiz-adv-x="222" 
d="M168 115v-54q0 -63 -19.5 -108t-76.5 -102l-52 45q30 45 40 77t10 78v64h98z" />
    <glyph glyph-name="thoussseparatorpersian" unicode="&#x66c;" horiz-adv-x="222" 
d="M168 115v-54q0 -63 -19.5 -108t-76.5 -102l-52 45q30 45 40 77t10 78v64h98z" />
    <glyph glyph-name="uni066D" unicode="&#x66d;" horiz-adv-x="446" 
d="M398 640l26 -79l-149 -39l98 -119l-68 -48l-82 129l-83 -129l-67 49l97 118l-148 39l26 79l141 -55l-8 152h83l-8 -152z" />
    <glyph glyph-name="uni066E" unicode="&#x66e;" horiz-adv-x="857" 
d="M780 401v-401h-463q-263 0 -263 222q0 59 23 126l69 14l7 -6q-15 -66 -15 -112q0 -74 44 -108t158 -34h350v299h90z" />
    <glyph glyph-name="uni066F" unicode="&#x66f;" horiz-adv-x="769" 
d="M516 387q51 0 91.5 -32.5t62.5 -83.5t33.5 -105.5t11.5 -106.5q0 -112 -38 -227q-134 -68 -300 -68q-151 0 -237 64t-86 199q0 61 27 150l70 15l6 -5q-18 -74 -18 -131q0 -102 61 -146.5t200 -44.5q127 0 211 30q15 50 18 107q-92 1 -174.5 29t-135.5 81q11 105 69 190
t128 85zM404 155q75 -54 222 -54q-11 78 -42.5 130t-79.5 52q-28 0 -57.5 -37.5t-42.5 -90.5z" />
    <glyph glyph-name="uni0670" unicode="&#x670;" 
d="M-29 817l-35 -6l-12 123l42 18l5 -1v-134z" />
    <glyph glyph-name="uni0671" unicode="&#x671;" horiz-adv-x="262" 
d="M205 885q24 0 40.5 -17t16.5 -42q0 -36 -29 -59t-62 -23q-50 0 -89 44q-28 -16 -70 -53h-6l-20 44q38 36 87 67h7q22 -23 45 -35q42 74 80 74zM179 798q39 0 39 17q0 6 -7 10t-15 4q-18 0 -38 -29q14 -2 21 -2zM86 683h90v-683h-90v683z" />
    <glyph glyph-name="uni06A1" unicode="&#x6a1;" horiz-adv-x="950" 
d="M690 527q50 2 90 -31.5t62 -86t33.5 -106.5t11.5 -100q0 -111 -21 -203h-547q-264 0 -264 224q0 53 21 129l70 10l7 -5q-16 -62 -16 -112q0 -73 44 -108.5t158 -35.5h464q2 28 2 46q-199 -2 -308 94q11 111 67 196.5t126 88.5zM580 285q69 -52 221 -50
q-10 80 -41.5 135.5t-79.5 52.5q-29 -2 -58.5 -42t-41.5 -96z" />
    <glyph glyph-name="uni06A4" unicode="&#x6a4;" horiz-adv-x="950" 
d="M687 720l-63 76l80 67l63 -76zM610 587l-65 77l82 69l64 -77zM689 663l82 68l64 -77l-81 -68zM690 527q50 2 90 -31.5t62 -86t33.5 -106.5t11.5 -100q0 -111 -21 -203h-547q-264 0 -264 224q0 53 21 129l70 10l7 -5q-16 -62 -16 -112q0 -73 44 -108.5t158 -35.5h464
q2 28 2 46q-199 -2 -308 94q11 111 67 196.5t126 88.5zM580 285q69 -52 221 -50q-10 80 -41.5 135.5t-79.5 52.5q-29 -2 -58.5 -42t-41.5 -96z" />
    <glyph glyph-name="uni06BA" unicode="&#x6ba;" horiz-adv-x="623" 
d="M551 355v-453q-121 -63 -234 -63q-129 0 -196 70t-67 192q0 72 27 155l72 12l5 -5q-19 -72 -19 -137q0 -92 46 -139t153 -47q64 0 124 18v397h89z" />
    <glyph glyph-name="Wgrave" unicode="&#x1e80;" horiz-adv-x="971" 
d="M451 769l-84 175h109l60 -175h-85zM949 700l-197 -700h-119l-149 550l-148 -550h-119l-195 700h108l153 -576l152 576h111l152 -569l153 569h98z" />
    <glyph glyph-name="wgrave" unicode="&#x1e81;" horiz-adv-x="762" 
d="M346 563l-84 175h109l60 -175h-85zM766 494l-148 -494h-135l-104 382l-106 -382h-130l-141 494h107l106 -397l111 397h125l105 -397l111 397h99z" />
    <glyph glyph-name="Wacute" unicode="&#x1e82;" horiz-adv-x="971" 
d="M529 769h-85l60 175h109zM949 700l-197 -700h-119l-149 550l-148 -550h-119l-195 700h108l153 -576l152 576h111l152 -569l153 569h98z" />
    <glyph glyph-name="wacute" unicode="&#x1e83;" horiz-adv-x="762" 
d="M424 563h-85l60 175h109zM766 494l-148 -494h-135l-104 382l-106 -382h-130l-141 494h107l106 -397l111 397h125l105 -397l111 397h99z" />
    <glyph glyph-name="Wdieresis" unicode="&#x1e84;" horiz-adv-x="971" 
d="M404 778l-77 76l77 77l76 -77zM577 778l-77 76l77 77l76 -77zM949 700l-197 -700h-119l-149 550l-148 -550h-119l-195 700h108l153 -576l152 576h111l152 -569l153 569h98z" />
    <glyph glyph-name="wdieresis" unicode="&#x1e85;" horiz-adv-x="762" 
d="M299 572l-77 76l77 77l76 -77zM472 572l-77 76l77 77l76 -77zM766 494l-148 -494h-135l-104 382l-106 -382h-130l-141 494h107l106 -397l111 397h125l105 -397l111 397h99z" />
    <glyph glyph-name="Ygrave" unicode="&#x1ef2;" horiz-adv-x="597" 
d="M264 769l-84 175h109l60 -175h-85zM350 272v-272h-102v271l-238 429h112l182 -338l181 338h102z" />
    <glyph glyph-name="ygrave" unicode="&#x1ef3;" horiz-adv-x="465" 
d="M198 559l-84 175h109l60 -175h-85zM469 494l-261 -740h-99l87 246h-29l-165 494h107l124 -389l137 389h99z" />
    <glyph glyph-name="endash" unicode="&#x2013;" horiz-adv-x="499" 
d="M50 282h395v-79h-395v79z" />
    <glyph glyph-name="emdash" unicode="&#x2014;" horiz-adv-x="740" 
d="M50 282h630v-79h-630v79z" />
    <glyph glyph-name="quoteleft" unicode="&#x2018;" horiz-adv-x="206" 
d="M38 530v55q0 63 19.5 107.5t77.5 101.5l51 -44q-29 -47 -39.5 -78.5t-10.5 -76.5v-65h-98z" />
    <glyph glyph-name="quoteright" unicode="&#x2019;" horiz-adv-x="206" 
d="M168 749v-54q0 -63 -19.5 -108t-76.5 -102l-52 45q30 45 40 77t10 78v64h98z" />
    <glyph glyph-name="quotesinglbase" unicode="&#x201a;" horiz-adv-x="206" 
d="M168 115v-54q0 -63 -19.5 -108t-76.5 -102l-52 45q30 45 40 77t10 78v64h98z" />
    <glyph glyph-name="quotedblleft" unicode="&#x201c;" horiz-adv-x="371" 
d="M38 530v55q0 63 19.5 107.5t77.5 101.5l51 -44q-29 -47 -39.5 -78.5t-10.5 -76.5v-65h-98zM203 530v55q0 63 19.5 107.5t77.5 101.5l51 -44q-29 -47 -39.5 -78.5t-10.5 -76.5v-65h-98z" />
    <glyph glyph-name="quotedblright" unicode="&#x201d;" horiz-adv-x="371" 
d="M168 749v-54q0 -63 -19.5 -108t-76.5 -102l-52 45q30 45 40 77t10 78v64h98zM333 749v-54q0 -63 -19.5 -108t-76.5 -102l-52 45q30 45 40 77t10 78v64h98z" />
    <glyph glyph-name="quotedblbase" unicode="&#x201e;" horiz-adv-x="366" 
d="M168 115v-54q0 -63 -19.5 -108t-76.5 -102l-52 45q30 45 40 77t10 78v64h98zM328 115v-54q0 -63 -19.5 -108t-77.5 -102l-52 45q30 46 40.5 78t10.5 77v64h98z" />
    <glyph glyph-name="bullet" unicode="&#x2022;" horiz-adv-x="505" 
d="M253 123q-55 0 -94 38.5t-39 94.5q0 55 39 93.5t94 38.5t93.5 -38.5t38.5 -93.5t-38.5 -94t-93.5 -39z" />
    <glyph glyph-name="ellipsis" unicode="&#x2026;" horiz-adv-x="600" 
d="M125 -21l-77 76l77 77l76 -77zM305 -21l-77 76l77 77l77 -77zM482 -21l-76 76l76 77l77 -77z" />
    <glyph glyph-name="perthousand" unicode="&#x2030;" horiz-adv-x="1042" 
d="M170 351q-143 0 -143 169q0 103 40 165q52 26 106 26q140 0 140 -169q0 -106 -39 -164q-50 -27 -104 -27zM631 690l-499 -690h-75v10l499 690h75v-10zM118 636q-21 -49 -19 -114q1 -105 71 -105q31 0 53 9q21 46 19 114q-1 105 -73 105q-31 -2 -51 -9zM528 352
q140 0 140 -169q0 -105 -39 -164q-50 -27 -104 -27q-143 0 -143 169q0 103 40 165q52 26 106 26zM875 352q140 0 140 -169q0 -105 -39 -164q-50 -27 -104 -27q-143 0 -143 169q0 103 40 165q52 26 106 26zM578 67q21 46 19 114q-1 105 -73 105q-31 -2 -51 -9
q-21 -49 -19 -114q1 -105 71 -105q31 0 53 9zM925 67q21 46 19 114q-1 105 -73 105q-31 -2 -51 -9q-21 -49 -19 -114q1 -105 71 -105q30 0 53 9z" />
    <glyph glyph-name="guilsinglleft" unicode="&#x2039;" horiz-adv-x="312" 
d="M267 444l-129 -198l129 -198v-10h-90l-142 208l142 208h90v-10z" />
    <glyph glyph-name="guilsinglright" unicode="&#x203a;" horiz-adv-x="312" 
d="M135 454l142 -208l-142 -208h-90v10l129 198l-129 198v10h90z" />
    <glyph glyph-name="fraction" unicode="&#x2044;" horiz-adv-x="615" 
d="M601 690l-499 -690h-75v10l499 690h75v-10z" />
    <glyph glyph-name="Euro" unicode="&#x20ac;" horiz-adv-x="613" 
d="M408 624q-77 0 -143 -28q-26 -53 -40 -130h252v-71h-261q-2 -40 -2 -60v-19h263v-71h-257q14 -87 59 -128t125 -41q97 0 195 43l7 -3v-87q-96 -44 -212 -44q-247 0 -277 260h-100v71h95v12q0 34 3 67h-98v71h109q23 119 72 196q106 54 220 54q106 0 188 -36v-90l-7 -4
q-96 38 -191 38z" />
    <glyph glyph-name="trademark" unicode="&#x2122;" horiz-adv-x="770" 
d="M740 700v-351h-85v143q0 48 3 77l-4 2l-79 -171h-65l-83 171l-5 -2q4 -25 4 -77v-143h-77v279h-129v-279h-83v279h-122v72h419l114 -232l108 232h84z" />
    <glyph glyph-name="oneeighth" unicode="&#x215b;" horiz-adv-x="806" 
d="M154 420v209l-91 -42l-31 56l120 60h73v-283h84v-61h-257v61h102zM691 690l-499 -690h-75v10l498 690h76v-10zM713 176q69 -34 69 -85q0 -47 -33 -78q-48 -21 -118 -21q-67 0 -104.5 23.5t-37.5 64.5q0 50 66 90q-50 37 -50 86q0 41 35 79q53 17 95 17q60 0 95 -23.5
t35 -64.5q0 -49 -52 -88zM699 254q0 17 -18 28t-48 11q-15 0 -51 -8q-10 -15 -10 -26q0 -18 17.5 -30.5t64.5 -28.5l8 -3q37 31 37 57zM554 90q0 -38 86 -38q28 0 66 7q7 11 7 24q0 16 -19.5 27.5t-65.5 25.5q-14 4 -27 10q-47 -30 -47 -56z" />
    <glyph glyph-name="threeeighths" unicode="&#x215c;" horiz-adv-x="806" 
d="M268 369q-43 -18 -104 -18q-49 0 -122 18v61l5 3q71 -19 115 -19q33 0 63 9q6 13 6 28q0 53 -104 53h-50v64h59q48 0 76 9q9 21 9 36q0 34 -58 34q-48 0 -108 -19l-5 3v61q65 18 117 18q59 0 92 -21t33 -61q0 -36 -27 -79q-17 -7 -38 -12q75 -24 75 -86q0 -48 -34 -82z
M691 690l-499 -690h-75v10l498 690h76v-10zM713 176q69 -34 69 -85q0 -47 -33 -78q-48 -21 -118 -21q-67 0 -104.5 23.5t-37.5 64.5q0 50 66 90q-50 37 -50 86q0 41 35 79q53 17 95 17q60 0 95 -23.5t35 -64.5q0 -49 -52 -88zM699 254q0 17 -18 28t-48 11q-15 0 -51 -8
q-10 -15 -10 -26q0 -18 17.5 -30.5t64.5 -28.5l8 -3q37 31 37 57zM554 90q0 -38 86 -38q28 0 66 7q7 11 7 24q0 16 -19.5 27.5t-65.5 25.5q-14 4 -27 10q-47 -30 -47 -56z" />
    <glyph glyph-name="fiveeighths" unicode="&#x215d;" horiz-adv-x="806" 
d="M270 370q-41 -19 -103 -19q-65 0 -130 20l13 64q58 -18 115 -18q28 0 58 8q7 15 7 34q0 47 -86 47h-82l-7 9l21 188h207v-67h-149l-8 -69h18q160 0 160 -108q0 -50 -34 -89zM691 690l-499 -690h-75v10l498 690h76v-10zM713 176q69 -34 69 -85q0 -47 -33 -78
q-48 -21 -118 -21q-67 0 -104.5 23.5t-37.5 64.5q0 50 66 90q-50 37 -50 86q0 41 35 79q53 17 95 17q60 0 95 -23.5t35 -64.5q0 -49 -52 -88zM699 254q0 17 -18 28t-48 11q-15 0 -51 -8q-10 -15 -10 -26q0 -18 17.5 -30.5t64.5 -28.5l8 -3q37 31 37 57zM554 90q0 -38 86 -38
q28 0 66 7q7 11 7 24q0 16 -19.5 27.5t-65.5 25.5q-14 4 -27 10q-47 -30 -47 -56z" />
    <glyph glyph-name="seveneighths" unicode="&#x215e;" horiz-adv-x="758" 
d="M169 359h-70q0 78 26.5 136t99.5 140h-187v68h265v-68q-80 -92 -107 -147.5t-27 -128.5zM643 690l-499 -690h-75v10l498 690h76v-10zM665 176q69 -34 69 -85q0 -47 -33 -78q-48 -21 -118 -21q-67 0 -104.5 23.5t-37.5 64.5q0 50 66 90q-50 37 -50 86q0 41 35 79
q53 17 95 17q60 0 95 -23.5t35 -64.5q0 -49 -52 -88zM651 254q0 17 -18 28t-48 11q-15 0 -51 -8q-10 -15 -10 -26q0 -18 17.5 -30.5t64.5 -28.5l8 -3q37 31 37 57zM506 90q0 -38 86 -38q28 0 66 7q7 11 7 24q0 16 -19.5 27.5t-65.5 25.5q-14 4 -27 10q-47 -30 -47 -56z" />
    <glyph glyph-name="minus" unicode="&#x2212;" horiz-adv-x="576" 
d="M508 270h-440v87h440v-87z" />
    <glyph glyph-name="approxequal" unicode="&#x2248;" horiz-adv-x="578" 
d="M173 474q48 0 127.5 -24.5t102.5 -24.5q50 0 50 40h57q0 -57 -28.5 -87t-76.5 -30q-47 0 -125 24.5t-105 24.5q-49 0 -49 -40h-58q0 57 28 87t77 30zM173 278q48 0 127.5 -24.5t102.5 -24.5q50 0 50 40h57q0 -57 -28.5 -87t-76.5 -30q-47 0 -125 24.5t-105 24.5
q-49 0 -49 -40h-58q0 57 28 87t77 30z" />
    <glyph glyph-name="notequal" unicode="&#x2260;" horiz-adv-x="600" 
d="M352 378l-40 -127h196v-87h-223l-48 -152h-86l48 152h-131v87h158l40 127h-198v87h226l45 144h86l-45 -144h128v-87h-156z" />
    <glyph glyph-name="lessequal" unicode="&#x2264;" horiz-adv-x="524" 
d="M467 204l-407 137v87l407 137v-86l-282 -94l282 -94v-87zM468 179v-87h-412v87h412z" />
    <glyph glyph-name="greaterequal" unicode="&#x2265;" horiz-adv-x="600" 
d="M464 341l-407 -137v87l282 94l-282 94v86l407 -137v-87zM468 179v-87h-412v87h412z" />
    <glyph glyph-name="dotabovear" unicode="&#xfbb2;" 
d="M71 522l-83 -69l-66 78l84 69z" />
    <glyph glyph-name="dotbelowar" unicode="&#xfbb3;" 
d="M112 -131l-83 -69l-67 80l83 69z" />
    <glyph glyph-name="twodotshorizontalabovear" unicode="&#xfbb4;" 
d="M122 453l-59 70l-82 -69l-66 77l83 69l59 -70l83 69l65 -77z" />
    <glyph glyph-name="twodotshorizontalbelowar" unicode="&#xfbb5;" 
d="M34 -111l-83 -69l-66 80l83 69zM183 -111l-82 -69l-67 80l83 69z" />
    <glyph glyph-name="threedotsupabovear" unicode="&#xfbb6;" 
d="M140 576l-80 -67l-63 76l80 67zM64 445l-81 -69l-65 77l82 69zM208 443l-81 -68l-65 77l82 68z" />
    <glyph glyph-name="threedotsupbelowar" unicode="&#xfbb7;" 
 />
    <glyph glyph-name="threedotsdownabovear" unicode="&#xfbb8;" 
 />
    <glyph glyph-name="threedotsdownbelowar" unicode="&#xfbb9;" 
 />
    <glyph glyph-name="twodotsverticalabovear" unicode="&#xfbbd;" 
 />
    <glyph glyph-name="twodotsverticalbelowar" unicode="&#xfbbe;" 
 />
    <glyph glyph-name="parenleftaltonear" unicode="&#xfd3e;" horiz-adv-x="280" 
d="M64 454h100q18 183 100 368l-74 41q-103 -208 -126 -409zM112 276l-76 76l76 77l77 -77zM164 250h-100q23 -200 126 -408l74 40q-82 185 -100 368z" />
    <glyph glyph-name="parenrightaltonear" unicode="&#xfd3f;" horiz-adv-x="280" 
d="M116 454h100q-23 202 -127 409l-73 -41q82 -185 100 -368zM168 429l76 -77l-76 -76l-77 76zM216 250h-100q-18 -183 -100 -368l73 -40q104 207 127 408z" />
    <glyph glyph-name="f_b" horiz-adv-x="911" 
d="M668 508q98 0 149.5 -61.5t51.5 -180.5q0 -71 -16 -136.5t-42 -105.5q-72 -39 -158 -39q-80 0 -136 26l-73 -15l-11 11v657l-50.5 5.5t-55 5.5t-43.5 2q-43 0 -63 -24.5t-20 -79.5v-79h147v-86h-147v-408h-97v408h-81v86h81v85q0 187 171 187q31 0 110 -8t126 -8h22v-280
q62 38 135 38zM741 90q28 72 28 166q0 84 -31 124t-96 40q-55 0 -109 -34v-292q52 -21 116 -21q49 0 92 17z" />
    <glyph glyph-name="f_h" horiz-adv-x="937" 
d="M691 508q169 0 169 -159v-349h-100v329q0 86 -96 86q-69 0 -131 -48v-367h-100v664l-50.5 5.5t-55 5.5t-43.5 2q-43 0 -63 -24.5t-20 -79.5v-79h147v-86h-147v-408h-97v408h-81v86h81v85q0 187 171 187q31 0 110 -8t126 -8h22v-291q80 49 158 49z" />
    <glyph glyph-name="f_i" horiz-adv-x="619" 
d="M104 494v85q0 187 163 187q60 0 114 -20v-85l-7 -4q-57 20 -98 20q-39 0 -57 -24.5t-18 -79.5v-79h147v-86h-147v-408h-97v408h-81v86h81zM488 571l-76 76l76 77l77 -77zM439 494h100v-494h-100v494z" />
    <glyph glyph-name="f_j" horiz-adv-x="651" 
d="M201 408v-408h-97v408h-81v86h81v85q0 187 163 187q60 0 114 -20v-85l-7 -4q-57 20 -98 20q-39 0 -57 -24.5t-18 -79.5v-79h147v-86h-147zM509 598l-75 75l75 75l75 -75zM460 494h97v-567q0 -99 -34.5 -144.5t-109.5 -45.5q-44 0 -95 17v83l7 3q42 -13 74 -13q33 0 47 24
t14 82v561z" />
    <glyph glyph-name="f_l" horiz-adv-x="607" 
d="M533 750v-750h-100v664l-50.5 5.5t-55 5.5t-43.5 2q-43 0 -63 -24.5t-20 -79.5v-79h147v-86h-147v-408h-97v408h-81v86h81v85q0 187 171 187q31 0 110 -8t126 -8h22z" />
    <glyph glyph-name="uni0627.short" horiz-adv-x="262" 
d="M176 0h-90v683h90v-683z" />
    <glyph glyph-name="uniFE8E.short" horiz-adv-x="290" 
d="M301 90v-79l-11 -11h-204v683h90v-581h114z" />
    <glyph glyph-name="dotlessbeh_alefMaksouraar.fina" horiz-adv-x="902" 
d="M912 91v-81l-10 -10h-35q-79 0 -132.5 60.5t-69.5 191.5q-59 -11 -102.5 -38.5t-43.5 -64.5q0 -53 56.5 -100.5t163.5 -103.5l-24 -95q-161 -76 -338 -76q-159 0 -242 63t-83 186q0 75 30 154l72 10l6 -5q-22 -66 -22 -135q0 -89 64.5 -130.5t195.5 -41.5q128 0 236 36
q-201 116 -201 229q0 85 82.5 146t210.5 76l9 -4q7 -101 29 -159t52 -77.5t76 -19.5h10z" />
    <glyph glyph-name="uni06330626" horiz-adv-x="1356" 
d="M238 327l8 -51q-46 -12 -110 -12h-97v56l50 -2q-19 25 -19 51q0 37 18 71q37 13 76 13q29 0 59 -7l-5 -50q-32 4 -62 4q-15 0 -33 -3q-2 -6 -2 -22q0 -35 20 -58q57 0 92 12zM1294 100l-63 -100q-135 0 -230 58l-40 -55q-26 -10 -65 -10q-177 0 -228 260
q-61 -11 -104.5 -38.5t-43.5 -65.5q0 -55 56 -101.5t165 -103.5l-25 -95q-161 -76 -337 -76q-159 0 -242 63.5t-83 186.5q0 75 30 154l72 10l5 -5q-22 -66 -22 -135q0 -89 65 -130.5t195 -41.5q126 0 237 37q-202 119 -202 236q1 85 83 143.5t206 73.5l8 -5
q21 -157 59.5 -211t125.5 -54q10 0 16 1l31 247l83 10l9 -6l-29 -220q67 -23 176 -25q-13 109 -47 290l89 20q37 -190 50 -312zM320 -297l66 -80l-83 -69l-66 80zM469 -297l66 -80l-82 -69l-67 80z" />
    <glyph glyph-name="uni06340626" horiz-adv-x="1356" 
d="M998 601l-63 76l81 67l63 -76zM921 468l-64 77l82 69l63 -77zM1000 545l82 67l65 -77l-82 -67zM238 326l8 -51q-52 -12 -109 -12h-98v56l51 -2q-20 24 -20 51q0 38 19 71q35 13 75 13q20 0 59 -6l-4 -51q-34 4 -63 4q-15 0 -33 -3q-2 -12 -2 -22q0 -35 20 -58q62 1 92 12
zM1294 100l-63 -100q-135 0 -230 58l-40 -55q-26 -10 -65 -10q-177 0 -228 260q-61 -11 -104.5 -38.5t-43.5 -65.5q0 -55 56 -101.5t165 -103.5l-25 -95q-161 -76 -337 -76q-159 0 -242 63.5t-83 186.5q0 75 30 154l72 10l5 -5q-22 -66 -22 -135q0 -89 65 -130.5t195 -41.5
q126 0 237 37q-202 119 -202 236q1 85 83 143.5t206 73.5l8 -5q21 -157 59.5 -211t125.5 -54q10 0 16 1l31 247l83 10l9 -6l-29 -220q67 -23 176 -25q-13 109 -47 290l89 20q37 -190 50 -312zM319 -285l66 -80l-82 -69l-67 80zM468 -285l66 -80l-82 -69l-67 80z" />
    <glyph glyph-name="uni06350626" horiz-adv-x="1307" 
d="M239 327l8 -51q-45 -12 -109 -12h-98v55l51 -1q-19 23 -19 51q0 38 18 71q35 13 75 13q29 0 59 -7l-4 -50q-25 3 -63 3q-13 0 -33 -3q-1 -6 -1 -21q0 -34 19 -58q56 0 93 11zM1053 419q61 0 108 -48t69.5 -120t22.5 -153l-69 -98h-276q-110 0 -166 58t-75 194
q-60 -11 -103 -38t-43 -65q0 -55 56.5 -101.5t164.5 -103.5l-25 -95q-161 -76 -338 -76q-159 0 -241.5 63.5t-82.5 186.5q0 80 30 154l71 10l6 -5q-22 -66 -22 -135q0 -89 65 -130.5t195 -41.5q129 0 237 36q-202 120 -202 236q0 84 83.5 141.5t210.5 73.5l8 -4
q5 -64 10 -101q87 72 170 117t136 45zM765 184q18 -47 53.5 -64.5t104.5 -17.5h244q-8 93 -42.5 153.5t-91.5 60.5q-89 0 -268 -132zM318 -285l67 -80l-83 -69l-67 80zM467 -285l67 -80l-83 -69l-67 80z" />
    <glyph glyph-name="uni06360626" horiz-adv-x="1351" 
d="M942 517l-66 78l84 69l65 -78zM238 326l8 -51q-54 -12 -110 -12h-97v56l50 -1q-19 23 -19 51q0 36 18 70q40 14 76 14q14 0 59 -7l-5 -50q-48 3 -62 3q-15 0 -33 -3q-2 -6 -2 -22q0 -37 21 -58q60 1 91 12zM1053 419q61 0 108 -48t69.5 -120t22.5 -153l-69 -98h-276
q-110 0 -166 58t-75 194q-60 -11 -103 -38t-43 -65q0 -55 56.5 -101.5t164.5 -103.5l-25 -95q-161 -76 -338 -76q-159 0 -241.5 63.5t-82.5 186.5q0 80 30 154l71 10l6 -5q-22 -66 -22 -135q0 -89 65 -130.5t195 -41.5q129 0 237 36q-202 120 -202 236q0 84 83.5 141.5
t210.5 73.5l8 -4q5 -64 10 -101q87 72 170 117t136 45zM765 184q18 -47 53.5 -64.5t104.5 -17.5h244q-8 93 -42.5 153.5t-91.5 60.5q-89 0 -268 -132zM318 -285l67 -80l-83 -69l-67 80zM467 -285l67 -80l-83 -69l-67 80z" />
    <glyph glyph-name="uni06410626" horiz-adv-x="1100" 
d="M774 617l-66 78l84 69l65 -78zM824 524q84 0 137 -98t53 -217q0 -113 -22 -209h-250q-42 0 -94 21l-4 -7q59 -47 104 -103l-27 -91q-68 -32 -160 -52t-183 -20q-322 0 -322 249q0 82 29 152l72 12l6 -5q-22 -66 -22 -135q0 -90 62 -131t195 -41q156 0 265 41
q-95 112 -231 179l31 81l7 3q63 -31 109.5 -41t106.5 -10h242q2 28 2 46q-189 -2 -298 94q11 113 65.5 197.5t126.5 84.5zM238 326l8 -51q-52 -12 -109 -12h-98v56l51 -1q-19 23 -19 51q0 39 18 70q38 14 75 14q14 0 59 -7l-4 -50q-51 3 -63 3q-14 0 -33 -3q-1 -6 -1 -22
q0 -36 20 -58q60 1 92 12zM713 285q71 -54 215 -50q-9 76 -40 130.5t-74 54.5q-32 0 -61 -38.5t-40 -96.5zM318 -314l67 -80l-83 -69l-67 80zM467 -314l67 -80l-83 -69l-67 80z" />
    <glyph glyph-name="dotlessfeh_alefMaksouraar" horiz-adv-x="1078" 
d="M823 524q57 0 101.5 -48.5t66 -119.5t21.5 -147q0 -113 -22 -209h-250q-42 0 -94 21l-4 -7q59 -47 104 -103l-27 -91q-68 -32 -160 -52t-183 -20q-322 0 -322 249q0 82 29 152l72 12l6 -5q-22 -66 -22 -135q0 -90 62 -131t195 -41q156 0 265 41q-95 112 -231 179l31 81
l7 3q63 -31 109.5 -41t106.5 -10h243q1 7 1.5 22.5t0.5 23.5q-189 -2 -299 94q12 114 66 198t127 84zM711 285q69 -52 215 -50q-9 76 -39.5 130.5t-74.5 54.5q-32 0 -61 -38.5t-40 -96.5z" />
    <glyph glyph-name="uni06420626" horiz-adv-x="1097" 
d="M696 598l-66 77l83 69l59 -70l83 69l65 -77l-83 -69l-59 70zM821 524q84 0 137 -98t53 -217q0 -113 -22 -209h-251q-40 0 -93 21l-4 -7q59 -47 104 -103l-27 -91q-68 -32 -160 -52t-183 -20q-322 0 -322 249q0 80 28 152l73 12l6 -5q-22 -66 -22 -135q0 -90 62 -131
t195 -41q156 0 265 41q-98 114 -231 179l31 81l6 3q63 -31 110 -41t107 -10h243q1 7 1.5 22.5t0.5 23.5q-189 -2 -299 94q12 114 66 198t126 84zM238 326l8 -51q-45 -12 -109 -12h-98v56l50 -2q-18 25 -18 51q0 40 18 71q35 13 75 13q29 0 59 -7l-4 -50q-34 4 -63 4
q-14 0 -33 -3q-1 -6 -1 -22q0 -34 19 -58q57 0 93 12zM710 285q71 -54 215 -50q-9 76 -40 130.5t-74 54.5q-32 0 -61 -38.5t-40 -96.5zM317 -314l66 -80l-83 -69l-66 80zM466 -314l66 -80l-82 -69l-67 80z" />
    <glyph glyph-name="uni06430626" horiz-adv-x="1233" 
d="M877 388q59 0 108 -13.5t92.5 -45t69.5 -90.5t29 -141l-54 -98h-383q-41 0 -93 21l-4 -7q59 -47 104 -103l-27 -91q-68 -32 -160 -52t-183 -20q-322 0 -322 249q0 82 29 152l72 12l6 -5q-22 -66 -22 -135q0 -90 62 -131t195 -41q156 0 265 41q-95 112 -231 179l31 81l7 3
q63 -31 109.5 -41t106.5 -10h407q-11 115 -74 155.5t-180 40.5q-99 0 -206 -15l-37 85l355 375h9l42 -79l-296 -295q98 19 173 19zM238 326l8 -51q-46 -12 -110 -12h-97v56l50 -2q-19 25 -19 51q0 37 18 71q37 13 76 13q29 0 59 -7l-5 -50q-32 4 -62 4q-15 0 -33 -3
q-2 -6 -2 -22q0 -35 20 -58q57 0 92 12zM304 -315l66 -80l-83 -69l-66 80zM453 -315l66 -80l-82 -69l-67 80z" />
    <glyph glyph-name="uni06440626" horiz-adv-x="977" 
d="M891 750v-750h-151q-42 0 -94 21l-4 -7q59 -47 104 -103l-27 -91q-68 -32 -160 -52t-183 -20q-322 0 -322 249q0 82 29 152l72 12l6 -5q-22 -66 -22 -135q0 -90 62 -131t195 -41q156 0 265 41q-95 112 -231 179l31 81l7 3q63 -31 109.5 -41t106.5 -10h113v648h94z
M238 315l8 -51q-46 -12 -110 -12h-97v56l50 -2q-19 25 -19 51q0 37 18 71q37 13 76 13q29 0 59 -7l-5 -50q-32 4 -62 4q-15 0 -33 -3q-2 -6 -2 -22q0 -35 20 -58q57 0 92 12zM306 -316l66 -80l-83 -69l-66 80zM455 -316l66 -80l-82 -69l-67 80z" />
    <glyph glyph-name="uni062A0626.fina" horiz-adv-x="902" 
d="M558 456l-66 77l83 69l59 -70l83 69l65 -77l-83 -69l-59 70zM238 327l8 -51q-46 -12 -110 -12h-97v56l50 -2q-19 25 -19 51q0 37 18 71q37 13 76 13q29 0 59 -7l-5 -50q-32 4 -62 4q-15 0 -33 -3q-2 -6 -2 -22q0 -35 20 -58q57 0 92 12zM912 91v-81l-10 -10h-35
q-79 0 -132.5 60.5t-69.5 191.5q-59 -11 -102.5 -38.5t-43.5 -64.5q0 -53 56.5 -100.5t163.5 -103.5l-24 -95q-161 -76 -338 -76q-159 0 -242 63t-83 186q0 75 30 154l72 10l6 -5q-22 -66 -22 -135q0 -89 64.5 -130.5t195.5 -41.5q128 0 236 36q-201 116 -201 229
q0 85 82.5 146t210.5 76l9 -4q7 -101 29 -159t52 -77.5t76 -19.5h10zM325 -285l66 -80l-83 -69l-66 80zM474 -285l66 -80l-82 -69l-67 80z" />
    <glyph glyph-name="uni062B0626.fina" horiz-adv-x="902" 
d="M605 577l-63 76l80 67l63 -76zM528 444l-65 77l82 69l64 -77zM607 520l82 68l64 -77l-81 -68zM238 327l8 -51q-46 -12 -110 -12h-97v56l50 -2q-19 25 -19 51q0 37 18 71q37 13 76 13q29 0 59 -7l-5 -50q-32 4 -62 4q-15 0 -33 -3q-2 -6 -2 -22q0 -35 20 -58q57 0 92 12z
M912 91v-81l-10 -10h-35q-79 0 -132.5 60.5t-69.5 191.5q-59 -11 -102.5 -38.5t-43.5 -64.5q0 -53 56.5 -100.5t163.5 -103.5l-24 -95q-161 -76 -338 -76q-159 0 -242 63t-83 186q0 75 30 154l72 10l6 -5q-22 -66 -22 -135q0 -89 64.5 -130.5t195.5 -41.5q128 0 236 36
q-201 116 -201 229q0 85 82.5 146t210.5 76l9 -4q7 -101 29 -159t52 -77.5t76 -19.5h10zM320 -285l66 -80l-83 -69l-66 80zM469 -285l66 -80l-82 -69l-67 80z" />
    <glyph glyph-name="uni06330626.fina" horiz-adv-x="1401" 
d="M238 326l8 -51q-54 -12 -110 -12h-97v56l50 -1q-19 23 -19 51q0 36 18 70q40 14 75 14q11 0 60 -7l-5 -50q-51 3 -63 3q-14 0 -32 -3q-2 -6 -2 -22q0 -36 20 -58q62 1 92 12zM1411 91v-81l-10 -10h-19q-62 0 -117 55l-34 -55q-135 0 -230 58l-40 -55q-26 -10 -65 -10
q-177 0 -228 260q-61 -11 -104.5 -38.5t-43.5 -65.5q0 -55 56 -101.5t165 -103.5l-25 -95q-161 -76 -337 -76q-159 0 -242 63.5t-83 186.5q0 75 30 154l72 10l5 -5q-22 -66 -22 -135q0 -89 65 -130.5t195 -41.5q126 0 237 37q-202 119 -202 236q1 85 83 143.5t206 73.5l8 -5
q21 -157 59.5 -211t125.5 -54q10 0 16 1l31 247l83 10l9 -6l-29 -220q67 -23 176 -25q-13 109 -47 290l89 20q34 -178 47 -285q33 -25 95 -25h15zM319 -285l66 -80l-82 -69l-67 80zM468 -285l66 -80l-82 -69l-67 80z" />
    <glyph glyph-name="uni06340626.fina" horiz-adv-x="1401" 
d="M1000 601l-63 76l81 67l63 -76zM923 468l-64 77l81 69l64 -77zM1002 545l82 67l64 -77l-81 -67zM254 326l8 -51q-54 -12 -110 -12h-97v56l50 -1q-19 23 -19 51q0 36 18 70q40 14 75 14q11 0 60 -7l-5 -50q-51 3 -63 3q-14 0 -32 -3q-2 -6 -2 -22q0 -36 20 -58q62 1 92 12
zM1411 91v-81l-10 -10h-19q-62 0 -117 55l-34 -55q-135 0 -230 58l-40 -55q-26 -10 -65 -10q-177 0 -228 260q-61 -11 -104.5 -38.5t-43.5 -65.5q0 -55 56 -101.5t165 -103.5l-25 -95q-161 -76 -337 -76q-159 0 -242 63.5t-83 186.5q0 75 30 154l72 10l5 -5
q-22 -66 -22 -135q0 -89 65 -130.5t195 -41.5q126 0 237 37q-202 119 -202 236q1 85 83 143.5t206 73.5l8 -5q21 -157 59.5 -211t125.5 -54q10 0 16 1l31 247l83 10l9 -6l-29 -220q67 -23 176 -25q-13 109 -47 290l89 20q34 -178 47 -285q33 -25 95 -25h15zM319 -285l66 -80
l-82 -69l-67 80zM468 -285l66 -80l-82 -69l-67 80z" />
    <glyph glyph-name="uni06350626.fina" horiz-adv-x="1357" 
d="M239 327l8 -51q-48 -11 -109 -11h-98v55l50 -1q-19 23 -19 51q0 37 19 70q33 14 75 14q29 0 59 -7l-4 -50q-25 3 -63 3q-15 0 -33 -3q-2 -12 -2 -21q0 -38 21 -59q60 1 91 12zM1367 91v-81l-10 -10h-19q-60 0 -116 54l-38 -54h-276q-110 0 -166 58t-75 194
q-60 -11 -103 -38t-43 -65q0 -55 56.5 -101.5t164.5 -103.5l-25 -95q-161 -76 -338 -76q-159 0 -241.5 63.5t-82.5 186.5q0 80 30 154l71 10l6 -5q-22 -66 -22 -135q0 -89 65 -130.5t195 -41.5q129 0 237 36q-202 120 -202 236q0 84 83.5 141.5t210.5 73.5l8 -4
q5 -64 10 -101q87 72 170 117t136 45q86 0 139.5 -88t59.5 -208q34 -21 90 -21h15zM765 184q18 -47 53.5 -64.5t104.5 -17.5h244q-8 93 -42.5 153.5t-91.5 60.5q-89 0 -268 -132zM318 -285l67 -80l-83 -69l-67 80zM467 -285l67 -80l-83 -69l-67 80z" />
    <glyph glyph-name="uni06360626.fina" horiz-adv-x="1357" 
d="M942 517l-66 78l84 69l65 -78zM251 326l8 -51q-48 -11 -109 -11h-98v55l51 -1q-19 23 -19 51q0 39 18 70q33 14 75 14q29 0 59 -7l-4 -50q-25 3 -63 3q-13 0 -33 -3q-1 -6 -1 -21q0 -37 20 -59q60 1 92 12zM1367 91v-81l-10 -10h-19q-60 0 -116 54l-38 -54h-276
q-110 0 -166 58t-75 194q-60 -11 -103 -38t-43 -65q0 -55 56.5 -101.5t164.5 -103.5l-25 -95q-161 -76 -338 -76q-159 0 -241.5 63.5t-82.5 186.5q0 80 30 154l71 10l6 -5q-22 -66 -22 -135q0 -89 65 -130.5t195 -41.5q129 0 237 36q-202 120 -202 236q0 84 83.5 141.5
t210.5 73.5l8 -4q5 -64 10 -101q87 72 170 117t136 45q86 0 139.5 -88t59.5 -208q34 -21 90 -21h15zM765 184q18 -47 53.5 -64.5t104.5 -17.5h244q-8 93 -42.5 153.5t-91.5 60.5q-89 0 -268 -132zM318 -285l67 -80l-83 -69l-67 80zM467 -285l67 -80l-83 -69l-67 80z" />
    <glyph glyph-name="uni06430626.fina" horiz-adv-x="1281" 
d="M1291 91v-81l-10 -10h-19q-58 0 -112 50l-28 -50h-383q-41 0 -93 21l-4 -7q59 -47 104 -103l-27 -91q-68 -32 -160 -52t-183 -20q-322 0 -322 249q0 82 29 152l72 12l6 -5q-22 -66 -22 -135q0 -90 62 -131t195 -41q156 0 265 41q-95 112 -231 179l31 81l7 3
q63 -31 109.5 -41t106.5 -10h407q-11 115 -74 155.5t-180 40.5q-99 0 -206 -15l-37 85l355 375h9l42 -79l-296 -295q98 19 173 19q56 0 103.5 -12.5t90.5 -41t70.5 -82t33.5 -128.5q33 -22 91 -22h15zM231 315l8 -51q-45 -12 -109 -12h-98v56l50 -2q-19 25 -19 51
q0 38 19 71q35 13 75 13q29 0 59 -7l-4 -50q-34 4 -63 4q-15 0 -33 -3q-2 -12 -2 -22q0 -35 20 -58q57 0 92 12zM304 -314l66 -80l-83 -69l-66 80zM453 -314l66 -80l-82 -69l-67 80z" />
    <glyph glyph-name="uni06440626.fina" horiz-adv-x="1000" 
d="M1010 91v-81l-10 -10h-13q-67 0 -124 57l-34 -57h-89q-42 0 -94 21l-4 -7q59 -47 104 -103l-27 -91q-68 -32 -160 -52t-183 -20q-322 0 -322 249q0 82 29 152l72 12l6 -5q-22 -66 -22 -135q0 -90 62 -131t195 -41q156 0 265 41q-95 112 -231 179l31 81l7 3
q63 -31 109.5 -41t106.5 -10h121v648h91v-623q33 -25 95 -25h9zM232 315l8 -51q-46 -12 -110 -12h-97v56l50 -2q-19 25 -19 51q0 37 18 71q37 13 76 13q29 0 59 -7l-5 -50q-32 4 -62 4q-15 0 -33 -3q-2 -6 -2 -22q0 -35 20 -58q57 0 92 12zM306 -316l66 -80l-83 -69l-66 80z
M455 -316l66 -80l-82 -69l-67 80z" />
    <glyph glyph-name="uni06460626.fina" horiz-adv-x="905" 
d="M586 455l-65 78l83 69l65 -78zM232 327l8 -51q-46 -12 -110 -12h-97v56l50 -2q-19 25 -19 51q0 37 18 71q37 13 76 13q29 0 59 -7l-5 -50q-32 4 -62 4q-15 0 -33 -3q-2 -6 -2 -22q0 -35 20 -58q57 0 92 12zM915 91v-81l-10 -10h-35q-79 0 -132.5 60.5t-69.5 191.5
q-59 -11 -102.5 -38.5t-43.5 -64.5q0 -53 56.5 -100.5t163.5 -103.5l-24 -95q-162 -76 -338 -76q-158 0 -241 63t-83 186q0 77 29 154l72 10l6 -5q-22 -66 -22 -135q0 -89 65 -130.5t195 -41.5q128 0 236 36q-201 116 -201 229q0 85 82.5 146t211.5 76l8 -4q7 -101 29 -159
t52.5 -77.5t76.5 -19.5h9zM321 -285l66 -80l-82 -69l-67 80zM470 -285l66 -80l-82 -69l-67 80z" />
    <glyph glyph-name="uni06260626.fina" horiz-adv-x="902" 
d="M701 501l8 -51q-46 -12 -110 -12h-97v56l50 -2q-19 25 -19 51q0 37 18 71q37 13 76 13q29 0 59 -7l-5 -50q-32 4 -62 4q-15 0 -33 -3q-2 -6 -2 -22q0 -35 20 -58q57 0 92 12zM232 327l8 -51q-46 -12 -110 -12h-97v56l50 -2q-19 25 -19 51q0 37 18 71q37 13 76 13
q29 0 59 -7l-5 -50q-32 4 -62 4q-15 0 -33 -3q-2 -6 -2 -22q0 -35 20 -58q57 0 92 12zM912 91v-81l-10 -10h-35q-79 0 -132.5 60.5t-69.5 191.5q-59 -11 -102.5 -38.5t-43.5 -64.5q0 -53 56.5 -100.5t163.5 -103.5l-24 -95q-161 -76 -338 -76q-159 0 -242 63t-83 186
q0 75 30 154l72 10l6 -5q-22 -66 -22 -135q0 -89 64.5 -130.5t195.5 -41.5q128 0 236 36q-201 116 -201 229q0 85 82.5 146t210.5 76l9 -4q7 -101 29 -159t52 -77.5t76 -19.5h10zM325 -285l66 -80l-83 -69l-66 80zM474 -285l66 -80l-82 -69l-67 80z" />
    <glyph glyph-name="zero.dnom" horiz-adv-x="340" 
d="M173 352q140 0 140 -169q0 -105 -39 -164q-50 -27 -104 -27q-143 0 -143 169q0 103 40 165q52 26 106 26zM223 67q21 46 19 114q-1 105 -73 105q-31 -2 -51 -9q-21 -49 -19 -114q1 -105 71 -105q31 0 53 9z" />
    <glyph glyph-name="one.dnom" horiz-adv-x="340" 
d="M309 61v-61h-257v61h102v209l-91 -42l-31 56l120 60h73v-283h84z" />
    <glyph glyph-name="two.dnom" horiz-adv-x="340" 
d="M305 61v-61h-261l-10 61l59 47q75 61 99.5 88t24.5 50q0 41 -57 41q-45 0 -103 -20l-5 3v63q63 19 115 19q59 0 91 -25.5t32 -72.5q0 -40 -33 -80.5t-122 -103.5l-12 -9h182z" />
    <glyph glyph-name="three.dnom" horiz-adv-x="340" 
d="M227 178q75 -24 75 -86q0 -48 -34 -82q-43 -18 -104 -18q-49 0 -122 18v61l5 3q71 -19 115 -19q33 0 63 9q6 13 6 28q0 53 -104 53h-50v64h59q48 0 76 9q9 21 9 36q0 34 -58 34q-48 0 -108 -19l-5 3v61q65 18 117 18q59 0 92 -21t33 -61q0 -35 -27 -79q-17 -7 -38 -12z
" />
    <glyph glyph-name="four.dnom" horiz-adv-x="340" 
d="M319 80h-58v-80h-66v80h-176v64l173 201l69 -1v-200h58v-64zM195 144v119l-107 -119h107z" />
    <glyph glyph-name="five.dnom" horiz-adv-x="340" 
d="M126 208h18q160 0 160 -108q0 -50 -34 -89q-41 -19 -103 -19q-65 0 -130 20l13 64q58 -18 115 -18q28 0 58 8q7 15 7 34q0 47 -86 47h-82l-7 9l21 188h207v-67h-149z" />
    <glyph glyph-name="six.dnom" horiz-adv-x="340" 
d="M178 222q65 0 100 -28.5t35 -82.5q0 -55 -37 -97q-47 -22 -98 -22q-151 0 -151 156q0 104 43.5 154t132.5 50q43 0 88 -14l-11 -64q-44 15 -80 15q-81 0 -99 -85q35 18 77 18zM97 148q1 -93 89 -93q23 0 45 7q15 20 15 46q0 53 -77 53q-36 0 -72 -13z" />
    <glyph glyph-name="seven.dnom" horiz-adv-x="340" 
d="M303 344v-68q-80 -92 -107 -147.5t-27 -128.5h-70q0 78 26.5 136t99.5 140h-187v68h265z" />
    <glyph glyph-name="eight.dnom" horiz-adv-x="340" 
d="M247 176q69 -34 69 -85q0 -47 -33 -78q-48 -21 -118 -21q-67 0 -104.5 23.5t-37.5 64.5q0 50 66 90q-50 37 -50 86q0 41 35 79q53 17 95 17q60 0 95 -23.5t35 -64.5q0 -49 -52 -88zM233 254q0 17 -18 28t-48 11q-15 0 -51 -8q-10 -15 -10 -26q0 -18 17.5 -30.5
t64.5 -28.5l8 -3q37 31 37 57zM88 90q0 -38 86 -38q28 0 66 7q7 11 7 24q0 16 -19.5 27.5t-65.5 25.5q-14 4 -27 10q-47 -30 -47 -56z" />
    <glyph glyph-name="nine.dnom" horiz-adv-x="340" 
d="M166 352q143 0 143 -180q0 -94 -39.5 -137t-125.5 -43q-45 0 -98 15l11 64q54 -16 89 -16q78 0 89 83q-34 -16 -74 -16q-129 0 -129 111q0 57 37 98q52 21 97 21zM101 237q0 -54 70 -54q35 0 65 12q-6 94 -74 94q-25 0 -46 -6q-15 -20 -15 -46z" />
    <glyph glyph-name="zero.numr" horiz-adv-x="340" 
d="M173 711q140 0 140 -169q0 -106 -39 -164q-50 -27 -104 -27q-143 0 -143 169q0 103 40 165q52 26 106 26zM223 426q21 46 19 114q-1 105 -73 105q-31 -2 -51 -9q-21 -49 -19 -114q1 -105 71 -105q31 0 53 9z" />
    <glyph glyph-name="one.numr" horiz-adv-x="340" 
d="M309 420v-61h-257v61h102v209l-91 -42l-31 56l120 60h73v-283h84z" />
    <glyph glyph-name="two.numr" horiz-adv-x="340" 
d="M305 420v-61h-261l-10 61l59 47q75 61 99.5 88t24.5 50q0 41 -57 41q-45 0 -103 -20l-5 3v63q63 19 115 19q59 0 91 -25.5t32 -72.5q0 -40 -33 -80.5t-122 -103.5l-12 -9h182z" />
    <glyph glyph-name="three.numr" horiz-adv-x="340" 
d="M227 537q75 -24 75 -86q0 -48 -34 -82q-43 -18 -104 -18q-49 0 -122 18v61l5 3q71 -19 115 -19q33 0 63 9q6 13 6 28q0 53 -104 53h-50v64h59q48 0 76 9q9 21 9 36q0 34 -58 34q-48 0 -108 -19l-5 3v61q65 18 117 18q59 0 92 -21t33 -61q0 -36 -27 -79q-17 -7 -38 -12z
" />
    <glyph glyph-name="four.numr" horiz-adv-x="340" 
d="M319 439h-58v-80h-66v80h-176v64l173 201l69 -1v-200h58v-64zM195 503v119l-107 -119h107z" />
    <glyph glyph-name="five.numr" horiz-adv-x="340" 
d="M126 567h18q160 0 160 -108q0 -50 -34 -89q-41 -19 -103 -19q-65 0 -130 20l13 64q58 -18 115 -18q28 0 58 8q7 15 7 34q0 47 -86 47h-82l-7 9l21 188h207v-67h-149z" />
    <glyph glyph-name="six.numr" horiz-adv-x="340" 
d="M178 581q65 0 100 -28.5t35 -82.5q0 -55 -37 -97q-47 -22 -98 -22q-151 0 -151 156q0 104 43.5 154t132.5 50q43 0 88 -14l-11 -64q-43 15 -80 15q-81 0 -99 -85q35 18 77 18zM97 507q1 -93 89 -93q23 0 45 7q15 20 15 46q0 53 -77 53q-36 0 -72 -13z" />
    <glyph glyph-name="seven.numr" horiz-adv-x="340" 
d="M303 703v-68q-80 -92 -107 -147.5t-27 -128.5h-70q0 78 26.5 136t99.5 140h-187v68h265z" />
    <glyph glyph-name="eight.numr" horiz-adv-x="340" 
d="M247 535q69 -34 69 -85q0 -46 -33 -78q-48 -21 -118 -21q-67 0 -104.5 23.5t-37.5 64.5q0 49 66 90q-50 37 -50 86q0 41 35 79q53 17 95 17q60 0 95 -23.5t35 -64.5q0 -49 -52 -88zM233 613q0 17 -18 28t-48 11q-15 0 -51 -8q-10 -15 -10 -26q0 -18 17.5 -30.5
t64.5 -28.5l8 -3q37 31 37 57zM88 449q0 -38 86 -38q28 0 66 7q7 11 7 24q0 16 -19.5 27.5t-65.5 25.5q-14 4 -27 10q-47 -30 -47 -56z" />
    <glyph glyph-name="nine.numr" horiz-adv-x="340" 
d="M166 711q143 0 143 -180q0 -94 -39.5 -137t-125.5 -43q-45 0 -98 15l11 64q54 -16 89 -16q78 0 89 83q-34 -16 -74 -16q-129 0 -129 111q0 57 37 98q52 21 97 21zM101 596q0 -54 70 -54q35 0 65 12q-6 94 -74 94q-25 0 -46 -6q-15 -20 -15 -46z" />
    <glyph glyph-name="dotcenterar" 
d="M342 99l-79 -65l-63 74l80 66z" />
    <glyph glyph-name="waslaar" 
d="M94 841q24 0 40.5 -17t16.5 -42q0 -36 -29 -59t-62 -23q-50 0 -89 44q-28 -16 -70 -53h-6l-20 44q38 36 87 67h7q22 -23 45 -35q42 74 80 74zM68 754q39 0 39 17q0 6 -7 10t-15 4q-18 0 -38 -29q14 -2 21 -2z" />
    <glyph glyph-name="hamzacenterar" 
d="M378 408l8 -51q-54 -12 -110 -12h-97v56l50 -1q-19 23 -19 51q0 36 18 70q40 14 76 14q14 0 59 -7l-5 -50q-48 3 -62 3q-15 0 -33 -3q-2 -6 -2 -22q0 -37 21 -58q60 1 91 12z" />
    <glyph glyph-name="shaddaAlefabovear" 
d="M-64 967l-12 123l42 18l5 -1v-134zM9 941l37 16q15 -38 15 -66q0 -38 -20.5 -60t-49.5 -22q-26 0 -48 18q-26 -31 -60 -31q-21 0 -35.5 14t-14.5 43q0 25 18 65l33 10l5 -4q-14 -31 -14 -53q0 -23 21 -23q15 0 26.5 17.5t12.5 51.5l32 12l5 -3q1 -28 -5 -55
q14 -10 32 -10q8 0 15 6.5t7 17.5q0 30 -12 56z" />
    <glyph glyph-name="shaddaDammaar" 
d="M48 1088q0 -58 -49 -95t-129 -47l-16 45l5 6q85 7 118 30q-27 1 -45 13t-18 31q0 31 27.5 62t51.5 31t39.5 -24t15.5 -52zM-42 1082q0 -19 46 -19q2 10 2 15q0 13 -7 24t-15 11q-9 0 -17.5 -10t-8.5 -21zM10 937l37 16q15 -38 15 -66q0 -38 -20.5 -60t-49.5 -22
q-26 0 -48 18q-26 -31 -60 -31q-21 0 -35.5 14t-14.5 43q0 24 18 66l33 9l5 -4q-14 -31 -14 -53t21 -22q15 0 26.5 17t12.5 51l32 13l5 -4q1 -35 -5 -54q14 -10 32 -10q8 0 15 6t7 17q0 30 -12 56z" />
    <glyph glyph-name="shaddaDammatanar" 
d="M-159 942l-27 29q4 13 26 49t39 58h38q-1 -49 10 -64.5t37 -15.5q20 0 38 12q-56 2 -56 46q0 31 25.5 60.5t53.5 29.5q22 0 35.5 -19.5t13.5 -48.5q0 -50 -38.5 -90.5t-83.5 -40.5q-27 0 -44 23t-19 54q-39 -70 -42 -80zM-13 1065q0 -21 43 -21q3 9 3 20q0 29 -20 29
q-8 0 -17 -9t-9 -19zM9 927l37 16q15 -38 15 -66q0 -38 -20.5 -60t-49.5 -22q-26 0 -48 18q-26 -31 -60 -31q-21 0 -35.5 14t-14.5 43q0 25 18 65l33 10l5 -4q-14 -31 -14 -53q0 -23 21 -23q15 0 26.5 17.5t12.5 51.5l32 12l5 -3q1 -28 -5 -55q14 -10 32 -10q8 0 15 6.5
t7 17.5q0 30 -12 56z" />
    <glyph glyph-name="shaddaFathaar" 
d="M61 1078v-49l-233 -87v47zM9 938l37 16q15 -38 15 -66q0 -38 -20.5 -60t-49.5 -22q-26 0 -48 18q-26 -31 -60 -31q-21 0 -35.5 14t-14.5 43q0 24 18 66l33 9l5 -4q-14 -31 -14 -53t21 -22q15 0 26.5 17t12.5 51l32 13l5 -4q1 -35 -5 -54q14 -10 32 -10q8 0 15 6t7 17
q0 30 -12 56z" />
    <glyph glyph-name="shaddaFathatanar" 
d="M59 1126l-233 -88v47l233 89v-48zM59 1033l-232 -88v47l232 89v-48zM9 941l37 16q15 -38 15 -66q0 -38 -20.5 -60t-49.5 -22q-26 0 -48 18q-26 -31 -60 -31q-21 0 -35.5 14t-14.5 43q0 25 18 65l33 10l5 -4q-14 -31 -14 -53q0 -23 21 -23q15 0 26.5 17.5t12.5 51.5l32 12
l5 -3q1 -28 -5 -55q14 -10 32 -10q8 0 15 6.5t7 17.5q0 30 -12 56z" />
    <glyph glyph-name="shaddaKasraar" 
d="M-114 883q-21 0 -35.5 14t-14.5 43q0 24 18 66l33 9l4 -4q-13 -32 -13 -53q0 -22 21 -22q14 0 26 17.5t13 50.5l31 13l6 -4q1 -29 -5 -54q14 -10 31 -10q8 0 15.5 6.5t7.5 16.5q0 30 -12 56l36 16q16 -37 16 -66q0 -38 -20.5 -60t-49.5 -22q-27 0 -49 18q-25 -31 -59 -31
zM74 880v-48l-233 -88v47z" />
    <glyph glyph-name="shaddaKasratanar" 
d="M-109 982q-21 0 -35.5 14t-14.5 43q0 25 18 65l33 10l4 -4q-13 -32 -13 -53q0 -23 21 -23q14 0 26 17.5t13 51.5l31 12l6 -3q1 -31 -6 -55q16 -10 32 -10q8 0 15 6.5t7 17.5q0 29 -11 56l36 16q16 -41 16 -66q0 -38 -20.5 -60t-49.5 -22q-27 0 -49 18q-25 -31 -59 -31z
M77 982v-49l-233 -88v47zM-159 799l232 90v-49l-232 -88v47z" />
    <glyph glyph-name="connect01" horiz-adv-x="182" 
d="M31 70l37 59q35 -27 98 -27h15l10 -11v-81l-10 -10h-19q-39 0 -67.5 17.5t-63.5 52.5z" />
    </font>
</defs>
</svg>
